<mxfile host="Electron" agent="Mozilla/5.0 (Macintosh; Intel Mac OS X 10_15_7) AppleWebKit/537.36 (KHTML, like Gecko) draw.io/26.0.9 Chrome/128.0.6613.186 Electron/32.2.5 Safari/537.36" version="26.0.9">
  <diagram name="Seite-1" id="UitAHyoDzq-TpFip7iu7">
    <mxGraphModel dx="1439" dy="1613" grid="1" gridSize="10" guides="1" tooltips="1" connect="1" arrows="1" fold="1" page="1" pageScale="1" pageWidth="827" pageHeight="1169" math="0" shadow="0">
      <root>
        <mxCell id="0" />
        <mxCell id="1" parent="0" />
        <mxCell id="P1CbO8xyOQ-boX0f4-9M-2" value="" style="shape=image;verticalLabelPosition=bottom;labelBackgroundColor=default;verticalAlign=top;aspect=fixed;imageAspect=0;image=data:image/jpeg,/9j/4AAQSkZJRgABAQEAYABgAAD//gA7Q1JFQVRPUjogZ2QtanBlZyB2MS4wICh1c2luZyBJSkcgSlBFRyB2NjIpLCBxdWFsaXR5ID0gODUK/9sAQwAFAwQEBAMFBAQEBQUFBgcMCAcHBwcPCwsJDBEPEhIRDxERExYcFxMUGhURERghGBodHR8fHxMXIiQiHiQcHh8e/9sAQwEFBQUHBgcOCAgOHhQRFB4eHh4eHh4eHh4eHh4eHh4eHh4eHh4eHh4eHh4eHh4eHh4eHh4eHh4eHh4eHh4eHh4e/8AAEQgDNAM0AwEiAAIRAQMRAf/EAB8AAAEFAQEBAQEBAAAAAAAAAAABAgMEBQYHCAkKC//EALUQAAIBAwMCBAMFBQQEAAABfQECAwAEEQUSITFBBhNRYQcicRQygZGhCCNCscEVUtHwJDNicoIJChYXGBkaJSYnKCkqNDU2Nzg5OkNERUZHSElKU1RVVldYWVpjZGVmZ2hpanN0dXZ3eHl6g4SFhoeIiYqSk5SVlpeYmZqio6Slpqeoqaqys7S1tre4ubrCw8TFxsfIycrS09TV1tfY2drh4uPk5ebn6Onq8fLz9PX29/j5+v/EAB8BAAMBAQEBAQEBAQEAAAAAAAABAgMEBQYHCAkKC//EALURAAIBAgQEAwQHBQQEAAECdwABAgMRBAUhMQYSQVEHYXETIjKBCBRCkaGxwQkjM1LwFWJy0QoWJDThJfEXGBkaJicoKSo1Njc4OTpDREVGR0hJSlNUVVZXWFlaY2RlZmdoaWpzdHV2d3h5eoKDhIWGh4iJipKTlJWWl5iZmqKjpKWmp6ipqrKztLW2t7i5usLDxMXGx8jJytLT1NXW19jZ2uLj5OXm5+jp6vLz9PX29/j5+v/aAAwDAQACEQMRAD8A+saKKKALumf8tPw/rVzvVPTOsn4f1q5360AHvWNWz256Vjd6ADtV3S+kn4f1qkOlXdL/AOWn4f1oAuDqaX8aSloAxaKOKKALul/8tPw/rV2qWl/8tPw/rV31oAO1YtbPesbigAq7pn/LT8P61Sq7pn/LQfT+tAF2ijvSfhQBjUUcUUAXdM/5afh/WrtUtM/5afh/WrtABzWLWz+FY1ABV3TP+Wn4f1qlV3TP+Wn4f1oAufhS80nvQfwoAxjRRRQBd0z/AJafh/WrnHpVPTP+Wn4f1q516GgBeaxa2axqACrumf8ALT8P61SBq7pn/LT8P60AXKWk+lFAGNRRRmgC7pn/AC0/D+tXP51T0z/lp+H9aufjQAc/SsatntWNQAVd0z/lp+H9apd6u6Z/y0/D+tAFz60fhR+NHrQBjUUUUAXNNz+8/D+tXegzVPTP+Wn4f1q527UAJ+NY2a2f51j0AJ+FXdM/5adun9ap1c0znzPwoAu9qT/9dL9KTj/9VAGNRmlooAuaZ/y0x7f1q6M1S0z/AJaD6f1q79KAErGrZ45rHoATPtV3TP8Alpj2/rVOrmmf8tPwoAujr9aT/wDVS+3ejvzQBi0ZpRRQBc0z/lpx6Vd5zVLTP+Wn4f1q73xQAn9Kxq2vqRWL+lABn2q7pf8Ay049P61Tq5pn/LT8KALnNKf/AK9HTrR+VAGL0o/CiloAuaXz5nHpVzrVPTP+Wn4f1q770AH171i1tH6isWgA/Crumf8ALXj0/rVP9auaZ1k/CgC4aU//AFqO2e1HbqKAMWjNFLQBc0zrJx6f1q52x0qnpn/LT8P61doAOgzWLW127Vi0AGauaZ/y049P61Uq5pn/AC0/D+tAF39KO1A5o+lAGLRRS0AJk+lFKKKALv2H/pr/AOO0fYP+mv8A47/9ermfpRQBT/48v9vf+GMf/rpPt3T91/49RqeP3f4/0qnQBc+38f6r/wAe/wDrUv2Hn/W/+O//AF6o9q2s96AKYsf+mv8A47RzZf7e/wDDGP8A9dXB+NUtTOTH+P8ASgBft3/TL/x6j7f6xf8Aj3/1qpUUAXTY8f63/wAd/wDr0fYf+mv/AI7/APXq4ORRmgCnzZf7e/8ADGP/ANdH27/pj/49SameY/x/pVOgC6L7/pl/49R9h4/1v/jv/wBeqWfStkHrQBT+w/8ATX/x3/69HNl/003/AIYx/wDrq5+FUtUP+r/H+lAC/bv+mX/j3/1qPt3/AEy/8eqlRn0oAu/Yf+mv/jv/ANej7D/014/3f/r1Le3lpYwme9uobaEdZJpAij8TxVJPEfh6T7mu6W3+7dxn+tAFj/jy/wCmm/8ADGP/ANdH27/pl/49VS/1TTZfL8rULSTr92ZT6e9QLc27fdniP0cUAaX27/pl/wCPUfYf+mv/AI7/APXrP86LtIn/AH0K2fOiJH7xP++hQBW+wf8ATX/x3/69HNl/003/AIYx/wDrq15kf99PzqnqTofLw69+/wBKAF+3f9Mh9N3/ANal+3cf6r/x6qO5f7w/Ojcv95fzoAvfYf8Apr/47/8AXo+w+kv/AI7/APXq15if3l/Ol3p/eX86AKn/AB5f9NN/4Yx/+uk+3f8ATL/x7/61JqTr+7+Ze/f6VT3L/eH50AXvt3byv/HqPsP/AE1/8d/+vVHcvqPzrY3rj7w/OgCr9h/6a/8Ajv8A9ejmy/6ab/wxj/8AXVvev95fzqnqTL+7wR36H6UAL9u/6Zf+Pf8A1qBff9Mh/wB9VRyPUUZHqKAL32H/AKa/+O//AF6PsP8A01/8d/8Ar1b3D1H50bh6j86AKn/Hl/003/h0/wD10fbv+mX/AI9/9ak1Mj9307/0qlketAF77d/0yH/fVH2D/pr/AOO//Xqjkeoraz16fnQBT+w/9Nf/AB3/AOvRzZf7e/8ADGP/ANdXMj1qlqRH7vp3/pQApvv+mX/j3/1qPt3P+qH/AH1VLIoyPagC79hx/wAtf/Hf/r0fYf8Apr/47/8AXq5nnt+dAPFAFI/6F/003/hjH/66Dfc/6r/x7/61GqY/d/j/AEqlxQBd+3f9Mv8Ax7/61Asc/wDLX/x3/wCvVLitkmgCn9h/6a/+O/8A16P+PL/ppv8Awxj/APXVziqep4/d5x3/AKUABvv+mX/j1H2//pl/49/9aqXFGRQBdFjn/lr/AOO//Xo+w/8ATX/x3/69XM0cUAU/+PL/AKab/wAOn/66Dff9Mv8Ax7/61Gp9I847/wBKpcUAXft//TL/AMe/+tR9hyceb/47/wDXqlxW1mgCl9h/6a/+O/8A16P+PL/ppv8Awxj/APXVzg/1qnqR/wBX07/0oAPt3H+q/wDHqBf8Y8r/AMe/+tVLijI9aALv2H/pr/47/wDXo+wf9Nf/AB3/AOvVzI9R+dIXTGSwH40AVP8Ajy/6ab/wxj/9dH27j/Vf+Pf/AFqj1SeAbMzRjr1Ye1Zz31inLXluv1lUf1oA1ft/byv/AB7/AOtQbH/pr/47/wDXrEfWtGQ4fVrBT73CD+taTeJvDi9df0kfW8j/AMaALJsMf8tf/Hf/AK9H/Hl/003/AIYxVM+KvDGefEejj/t+j/8Aiqp6j4q8LnZjxJo5xnP+nRe3vQBsC+/6Zf8Aj1Avx/zy/wDHv/rVzJ8V+Fh/zMujD/t+i/8AiqT/AIS7wn/0M+ij/t/i/wDiqAOn+w/9Nf8Ax3/69H2Dj/W/+O//AF6zT418G/8AQ2aB+Oow/wDxVTWPirwvf3K2tl4j0e6nf7kUN9G7k+wDZoAt/wDHl/003/hjH/66X7dz/qv/AB6jU/8Aln+P9KpGgC6L/n/Vf+Pf/WoNj/01/wDHf/r1T4rZz3FAFL7D383/AMd/+vR/x5f9NN/4dKuZHfpVPU/+Wf4/0oABff8ATIf99UfbsH/Vf+Pf/WqlxRQBdNj/ANNf/Hf/AK9H2Hv5v/jv/wBertJnp+tAFP8A48v9vf8AhjH/AOuj7d/0yH/fVGp/8s/x/pVOgC4b7n/Vf+Pf/Wo+w/8ATUf98/8A16pD862uOnWgCkLHP/LX/wAd/wDr0f8AHl/003/hjH/66uZ/yKp6nj93j3/pQAfbv+mX/j1Bvv8Apl/49VL60UAXfsOR/rR/3zQLHP8Ay1/8d/8Ar1dyKTPWgCn9h/6bD8v/AK9FXMZ6Z/OigBfzoJA6k1jUc0AXNTxmP8f6VT4q7pmf3mPb+tXOetAGL61sj0o5xWPzQBsCqep/8s+PX+lUu1XdMP8ArPw/rQBTpOK2iT+FHOM0AJwD0oGO1Y/NFAFzVP8Alnx6/wBKpcVd0zP7z8P61dye1AGNWxwOaXmsbmgDZ496panj93we/wDSqfNXNMz+8/D+tAFLivLfF3j/AF2/8TS+EfAulST38LBbi7mTCR/QHt7n8K9G1XxTap4lXw7bDz7wKGkRegyOAfw5/KtqwsIbZ5LjyYvtM2DNKqAFsdBn0FAHlmk/CK/1GT7d4y8S3V/dPjdHGx2j2yf6V01v8KvCUCgJbXBx6zGu5AxmloA5GL4eeG4sbIZx/wBtjVlPBWiR/dScf9tTXS0UAYA8J6UOgm/7+Gnjwvpo7z/9/DW5RQBiDw1pw7z/APfw0v8Awjen+s3/AH8NbVFAGL/wjen+s3/fZpf+Ec0//pt/32a2aKAMb/hHbD1m/wC/hoHh2w/vTf8Afw1s0UAY/wDwjtge83/fw0f8I9Yesv8A32a2KKAMf/hHrH1m/wC+zS/2BZf3pv8Avs1r0UAZH9gWX96b/vs0f2BZH+Kb/vs1r0UAZH9gWX96b/vuj+wLL+9N/wB91r0UAZP9hWf96b/vs0v9h2n9+b/vutWigDK/sK0PV5v++6T+wrP+9L/33WtRQBlf2Faf3pf++6X+xLX+/N/33WpRQBmf2La/3pv++6Q6JaHq0v8A33WpRQBl/wBiWn96X/vqj+xLT+9L/wB9VqUUAZn9jW39+b/vuj+xrb+/N/33WnRQBmHRrY9Xl/77o/sW1/vS/wDfVadFAGZ/Ytr/AH5f++qP7Gt/+ek3/fdadFAGZ/Y1v/z0m/77o/sa2PV5v++606KAMz+xbX+/L/31R/Ytr/fl/wC+q06KAM3+xrb/AJ6Tf990f2Nb/wDPSb/vutKigDM/sa2PV5v++6P7Ftf78v8A31WnRQBmf2La/wB+X/vql/sa3/56Tf8AfdaVFAGZ/Y1t/fl/77oOi2p6tL/33WnRQBl/2Jaf3pf++6T+w7T+9L/33WrRQBlf2Faf35v++zUb+HLB/vNP/wB/DWzRQBz0vhDSJBh1nP8A21NVZfAPh+X78U5/7amurooA4qT4Y+FJOWtpz/22NV5PhL4Nk+9aXB/7bGu9ooA87b4N+BnPNlcf9/2qJ/gn4CbrYXB/7eGr0migDzJvgZ8Pm66fcn/t4ao2+A3w6brp1z/4EtXqNFAHlZ+AXw3PXTbn/wACWqlqH7O/gOZCbH+0LCbtJHcEkH15r2GigDwabwr8UvhyoutB1o+LNFi+9YXefOVe+08/p+Vd54E8YaX4u0w3Nl5kFxEdtzaTDEsLdwR/Wu7Irl9Q8OWVj4jTxPYRC3uCdt2IhgSqe7AdaAL9bNNjdXUOhBH1rIoA2sd6pal0jP1/pVKrmmdJOPT+tAFOitnPag0AHalxzWL70UAXdS/5Z/j/AEqnVzTP+WnHPH9auA0AYwrZ/nQcGsagDaxmqWp9U/H+lUqu6Z/y049P60AUqO9bINHWgA/nS9RWLRQBsk49aKxj+FFAC0Ad6u/YR/z1H/fP/wBegWH/AE1/8d/+vQAmmD/Wfh/Wrp61S/48v+mm/wDDGKX7fz/qv/Hv/rUAW8DpWNwDV37dx/qv/Hv/AK1H2Hn/AFv/AI7QBS7Vd0wD94eO39aBY/8ATX/x2j/jz7b9/wCGMf8A66ALuBiiqf27/pl/49/9aj7f/wBMf/Hv/rUAUsCirv2H/pr/AOO0fYP+mv8A47QAmmAESfh/WruBiqR/0LqPM3/hjH/66Pt3/TL/AMe/+tQBdx+JrGwKu/bv+mX/AI9/9aj7D/01/wDHaAKWBU8M0draXVzIQEiTexJ7AE1N9h/6a/8Ajv8A9euX+LLvp/w08QtE53tYSYYcbcD/AOvQBwX7OEc/iHXPE3jm+3PJd3jpBuOdgznA9gMAewr3EV5V+y3Esfwrt2UYMlxIzfnivVRQAtFFFABRRRQAUUUUAFFFFABRRRQAUUUUAFFFFABRRRQAUUUUAFFFFABRRSUALRRRQAUUUUAFFFFABRRSZHrQAZFGagvrq3sbSa8u5o4LeFC8kjthVUDJJNch4M+KngPxhq0uleH9fgu7yLP7vBUvjqVz978KAO3opBS0AFFFFABRRRQAUUUUAFFFFABRRRQAUUUUAFFFFABRRRQAUUUUAFFFFABRRRQAUUUUAFFFFABRRRQAUx1DqVIyCMGn0UAeTeANSvdH+MPiTwlqN5JNb3QW7sfNbJHAyq+2P/Qa776mvNfFqCH9pPw9cquSbRgwBxn93JXq/wBh/wCmv/jtAFKrumf8tPw/rQLHn/W/+O0n/HmP+em/8MY//XQBdo/EVT+3f9Mv/Hv/AK1H27/pl/49/wDWoApUVd+w/wDTX/x2j7Dzjzv/AB2gBNM/5afh/Wr1UubL/b3/AIYx/wDrpBff9Mv/AB6gC7+IrGq79v8A+mX/AI9/9aj7D/01/wDHaAKVXNM/5afh/Wl+w8/67/x2jJsv+mm/8MY//XQBc7UH8Kpfbv8Apl/49/8AWpft3/TL/wAe/wDrUAUqPxq79h/6a/8Ajv8A9ekNj/01/wDHaAKf5UVcNkf+ev8A47/9eigC/wDnRSD6ClFAFLU/+Wf4/wBKpdau6mOYz9f6VSoAStkYrH7VscA4oAUdKpal/wAsx9f6VdHrVLUx/q/x/pQBToHWijvQBs+tAx6UgAApR7UAUtT6x/j/AEqnVzU/+Wf4/wBKp8etABWz3NY1bIAoAB6VxXxt/wCSa66P+nCX+VdqcVxnxqGfhvrn/XjL/IUAYf7MQx8KrT/rtJ/6FXqFeZfszjHwttB/02k/nXptABRRRQAUUUUAFFFFABRRRQAUUUUAFFFFABRRRQAUUUUAFFFFABRRRQAUUUUAFFFFABRRRQAUUUUAFUr+0e4lRkk2heoq7RQBxXxt0O78SfCvXtEsWkW4ubbahTqSCDj8cY/Gvjv4PfDrxPH8QdNXTdLu7O4t7lGlcxuqRKp+Zix/pX3yaQBQcgD8BTTa0FYEyFANLRRSGFFFFABRRRQAUUUUAFFFFABRRRQAUUUUAFFFFABRRRQAUUUUAFFFFABRRRQAUUUUAFFFFABRRRQAUUUUAeQ+Mkz8ftAf0tm/9Akr1z8K8r8XJn446I/pbt/6A9eqdvagA+tU9U6x/j/SrnFU9S/g/H+lAFL8KWkFFAGz+FHfkUCgUAU9U58v8f6VSq5qX/LP8f6VTHWgBa2D9Kxq2R14oAM88iqeqdI/x/pVziqepdY+3X+lAFL8KKO9BoA2qQ/SjvwaO9ACg+gopM+gP5UUAY9FFHNAF3TMfvOnb+tXOM9qp6Z/y0/D+tXD1oAT+prH71sdsdKx6AAVd0zH7z8P61S7Vc0z/lpj2/rQBdo70dvpRj1AoAxjRRRQBd0z/lp+H9aucY7VS0z/AJaY9v61d7UABrGrZ+tY2KACsP4kc/DPxKP+nB/5GtztWJ8RBn4beJP+vF/5GgDK/ZvXb8MbUf8ATWT/ANCr0qvOf2dl2/DW1H/TWT+dejUAFFNbPavHPjX8cdP8CX39jaVapqmrjBmRn2xwD/aI7+1AHstFfGdx+0r8RXmd4U0WKMn5UNozbfbO7mo/+Gk/iX/e0T/wCP8A8XQB9oUV8X/8NJfEv10T/wAAj/8AF0f8NJ/Ev+9on/gEf/i6APtCivi//hpL4l/3tE/8Aj/8XR/w0l8S/wC9on/gEf8A4ugD7Qor4v8A+Gk/iX/e0T/wCP8A8XR/w0l8S/72if8AgEf/AIugD7Qor4v/AOGk/iX/AHtE/wDAI/8AxdH/AA0l8S/72if+AR/+LoA+0KK+L/8AhpL4l/3tE/8AAI//ABdH/DSfxL/vaJ/4BH/4ugD7Qor4v/4aS+Jf97RP/AI//F0f8NJfEv8AvaJ/4BH/AOLoA+0KK+L/APhpP4l/3tE/8Aj/APF0f8NJfEv+9on/AIBH/wCLoA+0KK+L/wDhpP4l/wB7RP8AwCP/AMXR/wANJfEv+9on/gEf/i6APtCivi//AIaS+Jf97RP/AACP/wAXR/w0n8S/72if+AR/+LoA+0KK+L/+GkviX/e0T/wCP/xdH/DSXxL/AL2if+AR/wDi6APtCivi/wD4aT+Jfron/gEf/i6P+GkviX/e0T/wCP8A8XQB9oUlfGH/AA0n8S/72if+AR/+Lo/4aS+Jf97RP/AI/wDxdAH2hRXxf/w0n8S/72if+AR/+Lo/4aT+Jfron/gEf/i6APtCivi//hpL4l/3tE/8Aj/8XR/w0n8Sv72if+AR/wDi6APtCivi/wD4aS+Jf97RP/AI/wDxdH/DSfxK/vaJ/wCAR/8Ai6APtCivi/8A4aS+Jf8Ae0T/AMAj/wDF0f8ADSXxL/vaJ/4BH/4ugD7Qor4v/wCGkviX/e0T/wAAj/8AF0f8NJ/Ev+9on/gEf/i6APtCivi//hpP4lf3tE/8Aj/8XR/w0l8S/wC9on/gEf8A4ugD7Qor4v8A+GkviX/e0T/wCP8A8XR/w0l8S/72if8AgEf/AIugD7Qor4v/AOGk/iX/AHtE/wDAI/8AxdH/AA0n8S/72if+AR/+LoA+0KK+L/8AhpL4lf3tE/8AAI//ABdH/DSXxL/vaJ/4BH/4ugD7Qor4v/4aS+Jf97RP/AI//F0f8NJ/Ev8AvaJ/4BH/AOLoA+0KK+L/APhpL4l/3tE/8Aj/APF0f8NJ/Er+9on/AIBH/wCLoA+0KK+L/wDhpL4l/wB7RP8AwCP/AMXR/wANJfEv+9on/gEf/i6APtCivi//AIaS+Jf97RP/AACP/wAXR/w0l8S/72if+AR/+LoA+0KK+L/+Gk/iV/e0T/wCP/xdH/DSXxL/AL2if+AR/wDi6APtCivi/wD4aS+Jf97RP/AI/wDxdH/DSXxL/vaJ/wCAR/8Ai6APtCivi/8A4aS+Jf8Ae0T/AMAj/wDF0f8ADSfxK/vaJ/4BH/4ugD7Qor5D0D9p3xfbTj+2dK0zUIiw3eSrQsB3xycmvpn4f+L9I8a+HIda0WcvE52yI33onHVWHrQB0dFA6UUAec64mfjboz4+7bt/6A9dZXPaomfi9pz+ls3/AKC1dAKACrumD/WD6f1qlV3TP+Wn4f1oAuduRRj04o7UYNAGPSc0UfhQBd0z/lpx6f1q707VR0zpJn2/rV7FACY9KxzWxyaxu9AC1c0z/lp+H9ap/lVvTP8Alp+H9aAL3IPSkx+FA9qOaAMeko70v5UAJjPWijn0ooAvfYOf9b/47/8AXoFh/wBNf/Hf/r1cFFAFL/jy/wCmm/8ADGP/ANdL9u/6Zf8Aj3/1qNT/AOWf4/0qketAFz7d/wBMf/HqPsPP+s/8d/8Ar1TrZxzzQBSFjx/rf/Hf/r0f8ef+3v8Awxj/APXV0VT1Mf6v8f6UAH27/pl/49R9uH/PH/x6qVFAF37D/wBNf/Hf/r0fYP8Apr/47/8AXq4eM0d//r0AUuLL1ff+GMf/AK6X7d/0y/8AHqNT/wCWf4/0qligC79u/wCmX/j1H2H/AKa/+O//AF6pVtUAUvsP/TX/AMd/+vXN/E9Ps3w+1yPO/wA2ycZ6Y4/+vXYD0rlPiwM+BtVHraSfyFAGT+z8u34dWw/6av8Azr0KuC+BC7fh/bj/AKav/Ou9oAa3Az6V+cfjLUpdX8Xaxqk3+sur2WRh6Hca/RxvumvzV1T/AJCl5/18Sf8AoRoAt2mjy3FslwsmA4zgITSto0yHEkhjbGcPGQfrz2r0n4aW9pb6NY397E7xGFsBFyc7uM/lXRX+veGtS1SdvEemyNaR7xat5e+UhiSckY244wO1exDC03FPkvojwlj5ynKPPZptHif9kSYz5q/98ml/sW58nzh5hh/56+S2z8+leh+Mb7QLrRLHT9CgMIgneRwYSh2lQAGY/eOQTVz/AITudPCn2Hyh/aQIiB2DyfKx97H97tjFW8HTsmofiy1i6l2nP8Dy3+ynIz5y/wDfNH9lN/z2X8q2dgGf8KTbzV/UaPYj67W7mP8A2U3/AD2X8qX+yn/57L/3zWuVowcUfUaPYX12t3Mj+yX/AOey/wDfNJ/ZL/8APYf981s4oAo+o0e35h9drdzH/sp8Z84f980f2S//AD2H/fNbGDT448npR9Ro9g+vVl1MZdGkbjzl/wC+alXQJm/5eF/75rpLW13HpWxaadkAkUngqHY5qua1Yfa/I4ceG5/+fhf++DSN4dmA/wCPhf8AvivR003j7o/KmTabx90UfUqHY51nda9ub8jzZ9DlXrOv/fNRnR5P+e6/9813N5YEZIWsmaAqaPqVDsddPM6s/tfkY9v4bkmGRdoP+AH/ABq3/wAIdNjP2+P/AL9n/GtjTTggGtiMAqK0WAoP7J6FPFVJLVnH/wDCHTf8/wDH/wB+z/jR/wAIdN/0EI/+/Z/xrsitG01X9n4f+X8X/mafWJ9zjf8AhDpv+f8Aj/79n/Gj/hDpv+f+P/v2f8a7LbQVo/s/D/y/i/8AMPrE+5xn/CHTf8/8f/fs/wCNNk8IyoMm+Q/9sz/jXalarXRwpzS+oYft+L/zJeImlucJPobxNg3Cn/gNQnSmBwZ1H/ATXRXhzJir/hLU4NJvrqW5jDw3FpJA37oOQxHykZ6c96yngqKWkfxOb67Wvbm/A47+y22b/O+Xpu2nGfrSrpEznEbs5xnCxkn9K9P0vxPodp4fjtbxJr9hdrM9l9mVEAU5BVum7PJ56DFEHjDTbPxJ4o1iztrhhqQU2cZAjIbIJDEAhV9hWX1anr7n4sv61U09/wDBHmA0mQ4/e9enyHp60HSn/wCeyn/gNey/8J54bmsBNcaWY9UGmy2IaK3AjAk3FvxDYAPoTXmEabUVfQYqqeEpSveFvmTPF1Y7Sv8AIyP7Kf8A57D/AL5o/sp/+ey/981sBeaNtafUaPYj67W7mP8A2U//AD2X/vmj+yn/AOey/wDfNbBWgKKf1Gh2D67W7mP/AGS//PYf980v9kv/AM9h/wB81sbaMUvqNH+UX12t3Mf+yX/57L/3zR/ZLf8APYf981sYpNvFH1Gj2D67W7mP/ZTf89l/Kl/sp/8AnsP++a1wvrS7aPqNHsH12t3Mb+yn/wCey/8AfNOXSHP/AC2X/vmtfbmnxJk01gaD6D+vVu5lR6DI5x9oUf8AAasx+F5nH/H2g/4Af8a3rSLnoa0oowBXXSyvDy3j+LIePr9zlF8IzH/l9T/vg/40v/CHzZ/4/o/+/Z/xrsQuB70uPSun+yMJ/L+LF9fr/wA35HGHwjMP+X1P+/Z/xqN/Csyj/j8Q/wDADXbEetRSJkZqZZRhbaR/Fh9fr9/yOGfw/Kmf9JX/AL5qJtGkXrOv/fNdddRnB4rOmTn6VxVMuw8X8P5lrHVn1MOHQ7maQRQMZpD0VEJNNfRpY3ZJJNjKcMGTBBrtvBOr2Wi6qbi/tBcQnBZWBIbH8LY5xz2qHXNRtdR12G9SzWGCORd+z70ihs5we+OPwrm+p0ua3L+Jp9cq8t+Y406TIN2ZD8oy3yEYHqfQUf2TJz+9xj1Qiva7zxr4Uklv5FtrhmntvKX/AEYYYjOB07ZGc8elczruu6PrPh14by3kg1NIUMZt48RySDjDewH86iGGpPeH4sqWKqLaf4HBJ4a1J0V0glZW5BEfB/WiTw1qUcbyvBKsacsxTgfWvefBfxc8N6BoEGm3Ph4XcqD5pGiBJNUPHPxN8PeILvSru00b7L/Z0kkjQCPC3IZCuxu2MnPPpWaw8ea3s9PUt4iXLf2mvoeBXdubaQIXD5XOQK+iP2H9SlXVPEej4JheKO6/4EDt/lXgGvkNfltgQNlgq9FBJ4HsK9y/Yi/5HPX/APsHp/6MrhxEFCo4rY9ChJypqT3PrKiiisTU4nVT5fxNtJdudtqePwNdR9h/6a/+O/8A165nWR/xcG3P/Tt/jXZA0AU/sPP+t/8AHf8A69J/x5D+/v8Awxj/APXV2qWp/wDLP8f6UAKL7/pl/wCPf/Wo+3f9Mf1/+tVKjNAF37D/ANNf/Hf/AK9H2HnHm/8Ajv8A9ermaOtAFL/jy/29/wCGMf8A66BfdvK/8e/+tRqZB8v8f6VToAu/bv8ApkP++qT7D/016f7NU81sk0AU/sOOPN/8d/8Ar0f8eR6b9/4Yx/8Arq53qlqf/LMfX+lAB9u7eV/49/8AWpft3/TL/wAeql2ooAufYc/8tf8Ax2j7D/01/wDHf/r1dzRQBSNic/6zP/Af/r0VdP0/SigB3FJWNRQBd1P/AJZ/j/SqVXdM/wCWn4f1q53oAxq2vxpvbp1NY/GaANkciqep9I/x/pVIVd0z/lp+H9aAKVFbVJxn9KAF/GkrGNFAF3U/+Wf4/wBKpVd0z/lp+H9auEDGKAMatqisXigDa4rlfimM+CtTH/TrJ/IVoVm+MhnwNro/6dG/kaAKXwQXb4EgH/TV/wCddxXGfBldvgmAf9NH/nXaUANb7pr81dU/5Cl5/wBfMn/oRr9Km+6a/NXVP+Qpef8AXzJ/6EaAPa/hzAsvgPTMgHMbf+hGo9c09QSQtXvheufAel+8bf8AoRrT1eAPGeO1fS4Z2hH0R+c1ajhi6n+J/meZ3UO09KoyoASMVvarEEkIrIlUV1TaPZg+ZXKLKc0m32qwV5pNoHNY3NSHbmkK1YC80baVwINvtRt4qfbSbcincCJVzVu1hy2MVHGvNaenx5YGlcyqSsjS0u0zt4rorS0AA4qrpUQwK3YI8KOKls+fxVVtkC246YpklsCOlaIXmmulK5xczOcv7MEHArmdSttrE4rvLyMbTXMavCMtVHqYSq7nOQ/JJWvbOCoINZMy7Xqe0n24Bq4s+ioVDYxkUpWooJlYVYUgjNaXOxO4zb7Ubak4pruFFA7kb4ArM1CXggdas3NwMYFVUged8kcUJOTsjCrUSMpomd+BUqWMjdjXQW+nqo5q2kCAdK6YYS+rOJzOY/s2Q/w8VHJYyL2P5V13kpjOKY1uh7Vo8GhKRxjwOvUE0woRXV3NgjDhaxruyaNicVyVKEoFKVzN20bKnZcHGKNvFYXKIAtBXB6VMV9BS7falcCuF9qXbU4WjbTuBX2+1LtHpU+32o2ii4EG32oC1PsoCii4ECrU0Sil21LCAKaeomXrNOPwrQjXjpVK0x0rSiGRXpUXoQxNtAWpglKErpuSQFeKay8dKsbRTJFGCalsEZl0nWsyaPnpWvdcg88VT8vcw9K8+uyr2KccBY9KsR2Zbsa07Oz3Y4rVhsBgfLXGclTEqOhzDWZHUGq0lsV7V2Mtjx0rMvLPAouFLE3djmWjxTdtaNzBtJ4qtswadzsi7nNeIRi8T/c/rXt/7EX/ACOev/8AYPT/ANGV4l4lGL5B/wBM/wCte3fsRf8AI6eIP+wen/oyvnsV/GkfR4X+DE+sqKKKwOg43WRnx9Af+nb/ABrsB+OK5q5H/FwoD/07H+tXKANmqepf8s/Tn+lUqu6Z/wAtB9P60AUqK2c8Yo96ADn/ABoxWNRQBc1I58v8f6VTq7pn/LT8P61cHGc0AY1bHPvS/wA6xqANnvmqWpf8s/x/pVOrumf8tPw/rQBSorZHBo/GgBOfxpaxqKANnIHFFY3XviigBaBV37B/01/8d/8Ar0Cx/wCmv/jv/wBegA0wf6z8P61c9PWqX/Hl/wBNN/4Yx/8Aro+3c/6r/wAe/wDrUAXB04PesfvVz7cMcRf+Pf8A1qDY8483/wAdoApjpV3TP+WmPb+tILDP/LX/AMdpf+PLp+83/h0//XQBc+lH+c1S+3f9Mv8Ax7/61KL/AP6Zf+Pf/WoApUVd+w8f63/x2j7B/wBNf/HaADTP+Wn4f1q5iqf/AB5d/M3/AIYx/wDrpPt3P+q/8e/+tQBdrGq79u7+V/49/wDWo+w/9Nf/AB2gClWf4tGfBWtj/p1b+Rrd+wf9Nf8Ax2sfxpH9n8KanHnf5tuwz0xx/wDXoAq/CMbfB0I/6aP/ADrr65T4Vjb4TiH/AE0b+ddXQA1/umvzV1T/AJCl5/18yf8AoRr9Kn+6fpX5q6n/AMhS8/6+JP8A0I0Ae7/C7jwFpX/XNv8A0I1s6l/qT9Kxvhfn/hAtK/65t/6Ea1NWkCwn6V9FRdqcfQ/M8Sr4yp/if5nC60R5prGkznpWrqjb5iazypz0rdyue9RVolYrS7BVgp7UBPapNSuEo2e1WNme2KCtAFcpxijZU+w59aUJ7UCIUQZ4rR08AEVUVMHirVt8rCgioro6rSmGFrdhPyiuX02YKRW/aTrgc1J4OJpO5oKAaa9NWUY65pskoAPNI4vZsrXpG01zOq4zW1f3Awa53UJdxNNHp4Sk0zFuB85NQYI7ValGc1Hs4FUe3BWQRSsvTNW47vAxzVQJ1o2U7mim0XftfFQyXTNx/WoNpxxSohLUXuN1GTWsTTPz61t2tsEQcVFpVthQSK1AmBXqYamkrmEpXZCF+lG3jFTFKNvFdRBBtpdvFTbKNntQMg2Z61WurVZEIx2rQ2UhTtSklJWYHJXtsY24HFVNnPSuk1W2ypOKxGj2tjFePXhySLTKwT1o2c1Y2Unl/nWIyuFpdlWAnFGzHagCvto2CrGz2o2e1Ayvs5xSFOcVYKe1Ls9qAK4XrTkFTbDRsNCYE1uQCK0YGyBWYny1ahkIwe1dVKrYlo0lxT8DFVY5R3qTzB611qsibEjYHNQTNgGh5R2zVWZycionWBIinbJPpS2qAtUTcmrVnwefWuCpO5NTY2bCAEDitWKIYFUrAjge1asWCuazueLXvcgkiGMEVmahAMHitt8bTWZqBG00XFRvc5a/iwTWc6c1sX4BJrOkTmmj26Oxx/ioY1BP+uf9TXtf7EX/ACOniD/sHp/6MrxfxeMajGP+mf8AU17R+xH/AMjp4g/7B6f+jK+fxX8aR9Phf4MT6yooorA6Dmbj/kfoD/07H+tWzVK/fyvHET7c/wCj+v1ra+w/9Nef92gCnVzTP+Wn4Z/Wj7Dz/rf/AB2kz9i6fPv/AAxj/wDXQBepCPeqQvj/AM8//Hv/AK1L9u4/1X/j3/1qAKVLVz7D/wBNf/HaPsJ/56/+O0AGmf8ALT8P61dHtVLP2L/ppv8Awxj/APXSfbj/AM8//Hv/AK1AF3ArG7dau/bv+mX/AI9/9ak+w/8ATX/x3/69AFOrumf8tPw/rR9hP/PX/wAdo/48s/x7/wAOn/66ALnvR9apfbjn/V/+Pf8A1qX7d/0y/wDHv/rUAUh060Vc+w/9Nf8Ax3/69L9hP/PX/wAdoAp89qKtmyx/y1/8dooAvDpRmjjrmigCnqf/ACz/AB/pVI/Wrup/8s/x/pVKgArZHXvWNW1QAg6d6p6kP9X+P9KuDnmqep/8s/x/pQBSooooA2T3o796WkoAp6n/AMs/x/pVLFXdT/5Z/j/SqVABW1WLW1QAlYHj0Z8OXY/6YPXQYrB8cjPh+6H/AExf+lAFb4ZjHheMf9NG/nXT1zXw4GPDaD/po3866SgBH+6a/NXU/wDkKXn/AF8yf+hGv0qb7pr81dT/AOQpef8AXxJ/6EaAPd/hmwTwBpRJ48tv/QjSa/djaVDVleB70ReA9NjBGRE3/oRqC/naWQnOa9+j/Dj6HwbwzeKqSf8AM/zM6fLOe+aj2c1YK5NIUra56S0RAVpuw56VZ8sYo2c0XGV9nftQEHPBNLfTJa25kZdzE4Vc9TWHLfX0jZ83YPRR0r1svybEY6PPCyj3ZjOtGDszc8sjnFJsPpWD9qv/APn5el+1X/8Az8PXpf6q4n+eP4/5Gf1qBu7PY1WvdQjtJFhEbSzN0RRzWX9rvv8An5erXha6S38SPc30yKWgcKZDtDMVwBu/h+vavmuKcvxmT4RVotO7SuunnqfbcC5Zgc5x86WKu1CDkop2cmraaa+ehqaNrMc9ybd43gmH8D9/b610ltdEY+bFcZrUiah42Se0kSRQsZcxncqkLyN38X171vo7D6Zrw8lxlbF0ZOr0dr9y+P8Ah3A5VjKUcInFTgpOLd3F9u+vmdFHe+9Ry3vB5rEEzChpCa9k+AWFRZurnOfmrMmYtT2Yk5qMjk+9K5006SiQMuabs56VY2dqbMUhhkmkYIkalmZugAo5jdERXtikKn0NeofA7QPhr4/8HzXy6rNcaj80U8TTCJ7RuxVe/qD3rxT4q6X40+FnjGOO7vE1bSvO8yxupFDQ3Sjny5AOjdiPxrjlj6adrHfHL6sldtI2gvpUtvGd4yO9es/DT/hVvxd8BXB061t9A1oJsuo4pQs1pJjh1z1T0r548av44+F/jaOy1yWHUEik8y3aRQ1vfxA+3TjqOxpLMKaezH/ZtTuj1KwjAjFWdld78MLn4ZfFLwgL/SYk0nUYwFurZZgr20mPQ/eX0Ncz4h0a40TU5LG4eOTbzHLGwKyL2PFe3gswpYj3Y6M5MRg6lFc0tjI8v1o2ZqfbQFr0bnKQeXQE7VPto2+1FwIAlGznpU+3mlK+gp3Azr+LMZ4rm7lNrniusvVPlE811vwr+F0Xia2Gta480enFiIIIztMwH8RPYV5OYVY01zSNqFKVWXLE8i2+uPzox9K+r4/hj4ChRUbQrU4HBdiSa5zxTofw70a6FnD4Wtrq5xllGQF+pr5/E53hsLD2lZ2R6tDJsRiJ8lPVnzngUbRX0j4U8PfDrXZWtz4XtrW5UbvLbJDD1BreuPhb4CniZP7Ct13DGY2IP508PnWGxNNVKTumKtk9ehNwqaM+UAh9KCp9K9O+LvwzHhNE1XSZZZ9KdwjrIctAx6c91rznZzivTp1I1I80TzalOVOXLIr7fajZxzVgpRsFXczK+zjpS7an2UbM54ouMgCkU4Ag81Ls4o2U7gIpPf8AGnbyOp5NdB4B8J3fi3Xl0+BzBBGN9zcYz5ae3ua910r4W+BbG2WJtLN4w+9JcSFixrGrjY0nZ7nRRwlSsuZbHzQZD/eFRsc8k19T/wDCvPAmf+RbtP1pf+FeeBO3hy0/M1g8xg+jOj+zandHyr8uasQHB47mvqE/DrwIR/yLtqM9wTXJ+N/hDo01hLd+GBJaXsalhbl90cuO3PQ0Rx9OTs0Z1MuqqN1ZnkVlNgDmtOK4GBzzXPRlkYqwZXU7WUjBBHY1ZSc4xu6V13PEq4e5syXA9azbyfOeagedu5qtJJnrmgVPD2ZXuDuJqqy881aIz3pm3nJp3O6MbI4jxqMapH/1yH8zXsn7EX/I56//ANg9P/RlePeOhjVYv+uI/ma9h/Yi/wCRz1//ALB6f+jK8HE/xZH0eF/gxPrOiiisDoOW1X/kcY/+vf8AxrpwRXM6qM+Lk/69/wDGulBoAXj8apan/wAs8e/9Ku9Kp6n/AMs/x/pQBS/wozRRQBs+3SjjOe9IOKX8aAKep4/d49/6VS9O1XNT/wCWfHr/AEqnQAZ4rZz+FY1bFAC8Zyapan/yz9ef6Vd75qlqf/LP8f6UAU+1FFFAGzn8KOD16UnSl9DQAEiijPvRQBj0UUUAXdM/5afh/WrneqemZ/efh/Wrnv3oATjH1NY+ATWx29eax+9AAOlXdM/5afh/WqQ+tXdMz+8x7f1oAu9KTvR9KPagDGxRRR+NAF3TP+Wmfb+tXCOO9U9Mz+8x7f1q5+NAC1i4rZrGoAKh1YZ8O6mP+mB/kamqPU/+Rf1L/rif60ARfD0Y8OoP9tv510dc/wCARjQF/wB9q6CgBrfdNfmrqf8AyFLz/r4k/wDQjX6Vv901+amp/wDIUvP+vmT/ANCNAHovhF2/4RixTsEP8zWgVJNUPBq58M2R/wBg/wDoRrX2V79F/u4+h8zVVqsvVlbaaNnpVny6XZntV3JKu0+lGzOatBMUmznpTuIw9bjLyRDHQE1Hpmg6tqruml6bdXrIMuIU3EVr3lv5jqQM8V7J+z/o5vvCmo+VMba7hvd9vOvVG2jg+qnuK+wjmry7KIVYq78/Ns8ilT+t4+VC9v8AgI8T/wCEH8X/APQrar/4Dmj/AIQfxf8A9Ctqv/gOa+xtD1SS5Z7C/j8jUYBiVP4XH99D3U/pWsXABJOAOua8V8cYqLs6UfvZ7keH6UldVH+B8Sf8IP4vH/Mr6qB/17msOexYO0U8JV0OGVhyD6V9pXLz+Jbhra2lkh0iJsTTKcNcsP4F/wBn1Pevm34pWi/8LE1tURVRZwFVRgABRxXsZRxBLNKksPXpq1r23+TueXmOHllcY4ihUad9Hs/k0c1pltFDaR+XEiEr82B1qzsqaCLbCgPYU7y6+VrwjTqzjBWSb0Xqd6r1MQlVqycpNJtt3f4lfbRtOasFBRsBrO4WK2ygJVkpzS+WKVwKuysLx9bahdeEryx0u3lub272QQxRrlnLMBgV02ytfwei/wDCR2mR/Ef5GoqaxaJnWVCLq2vy6/cdH8DPgv4c+GHg248T+O57aXVZLbzb55JP3VnHjOwYPzH39elfOfxr+Ib/ABT8a2vhfwJoHk6QlyEsYY4z5t5IePMb0HoOwr6rmgt5kMc0CSofvJJ8yn6g1HFZafE4kh060ikHR44VVh9CBxXkfVpHF/rpH/ny/wDwL/gGV8Gfg94T+FHge68R+Ori1n1N4fMv7iVv3dsg58pAOp/ma+Z/i747ufi748sfD/grw4LfT4pzHp0EafvZ2Jx5jnsPboBX1fLb20yFJ7dJkPVJBuU/UHrTYrLT4XEkOnWkLjo8cSqw/EU/q0g/10j/AM+X9/8AwDN+FPwk8G/B/wAAXXiDxvcWl1qTQiXUbqQ/u4R2iQZ5549zXnPhT4iWvxD8Va7JpOlRaXotiEWxiC/PIM4LufU+navWpbe2mTZPbxzJnO2Qbl/I1ka9bWkCwi1tLe33E7vKjC7vriu3LaMoYmMv62KhxPHHP2HsrX63/wCAYpTnrRsqcIKAnNfVXOgr7f8A9dG0561Y2jvRsFK4Ffb6Uu3GTU5UY4qKZgimhySQGXrDbbd8HoK+lvD0iaX8P7KZEytvp4cKB1wua+X9Vk3xuBnpXvmu+Jzo3g3SbG3iWW5ubJM7x8qptwa+bzabqNJHt5LSdStypX2PLrvXNT1nUGv7y8mLSNlUVyFQdgAKr6H4lmOuXNhq8zSK8uIp3PK+zf41w/i++8T+Hr1poLmKTTpWJjcRj92T/C3p7Vi6HrWp6zqsumSxpcT3gIt3hHO/0IFfkue4erUvF9P6ufv1HAUJYdzSXLbS3Q+gdIuWXX4BbuVQEguOM8fyrs9Pvp7W4WWORsbhuUngivEk8RX+navDYxGG3+xxrHM8xG+SQAAgD0FdnoGta3dOs0skQhVs/c+9/wDWr4SOGxsasJwk007rVn5bjM4w1aq472Vj0z4pwx3fw41oOOPsbSD6gZFfKiodor6Z13WTq3w219ZkCTxWUgYL0IxwRXzgsY2j6V/Q2TYmGIw6qQd0z47Mbc69Ctso2cVZ2d8UbPavWuecVtnFATrVryxSbPSi4FbZntRsxzirOygoMUXA9X/Z82W+jatMQN8lyqk+wWtzx18UtB8KSyWbsb3VY9hNkpZDtbuX2kDA5xXMfB6b7Po1+oJG65B/8drwf4+apeL8WtYWLULyKMLFhI5iqj5R0FeLif4rPoMH/BierfFz426hMtpYfDu5uY9p33l6bIkHjhE3D8zivP0+LnxbjkVxr1xIVIO19PXa3seOlcf4ek2aRc+I9e1XWJNNtpVt4LWC7KyXc5Gdu7+FQOSas2vijRtUuE0+/sLvRY52EcV9YX8jPbseFMisfnXJGfzrA6T6d8O/G3whfaNbXGr3k2magUAubeW1k+WQdSpAIIPau28O+JtL17TY9U0e8W6tWcqHClfmHUYIzXwp4iuNU0zWrjTJr3UIZbU+VIBeM4cj+MH0brivof8AZi1GWT4ZM09xNM/9oS/NK+5ui96Sd0Bz3jqFIvG2sxxjCi7cj8eax+eldB4vjafxhqrjndcE5qpDYKB+85r6OlFyij5erZTfqZgUnjGad5Erfwn8q2lhjX7q4p2wV0Kj3Zlcwvsso6r+lNe3cdVNb+z9KQxg9uKbpLuNSZ5L8QAV1iEEf8sR/M16/wDsRf8AI6eIP+wen/oyvK/iqoXxBBgYzbA/+PGvU/2Iv+Rz1/8A7B6f+jK+bxStWkj6TCfwYn1nRRRXOdBgyD/itIz/ANO/+NPpsgz4yT/r3pxoAKu6Z/y0GfT+tU6uaZ/y0/D+tAF0Hj0pMd8ZooIoAx6Sij6UAXdM/wCWnOOn9aujiqWmf8tPw/rVz9aAD9ax+nrWxj3rG7UAFXdM/wCWh+n9apVd0z/lp+H9aALg4NHX3o75oxQBjfnRQOlFABjPTFFLz6UUAXfsH/TX/wAd/wDr0Cw/6a/+O/8A16uUUAUs/Yv+mm/8MY//AF0fbuf9X/49/wDWpdT/AOWf4/0qkaALn27A/wBV/wCPUfYRn/W8/wC7/wDXqn2rZ70AUhY5/wCWv/jv/wBel/48v+mm/wDDGKuDp1qlqQ4j/H+lAB9u/wCmX/j3/wBal+3f9Mv/AB6qVAoAu/Yf+mv/AI7/APXpPsH/AE1/8d/+vV31FHfrQBT/AOPL/ppv/DGP/wBdH27n/Vf+PUmpf8s/x/pVPmgC79v/AOmX/j1H2H/pr/47/wDXqlWzQBT+w/8ATX/x3/69UfECfZdFvEzv8yJh6Y/zmtqsfxZ/yCpf+ubUAReBRjQ1H+21b1YfgnjRR/vtW5QA1/umvzV1T/kKXn/XzJ/6Ga/Sp/umvzV1T/kKXn/XxJ/6EaAPTPBIz4WseP4D/wChGtjbWX4HUnwrY8fwH/0I1tbD0xXu0n7i9D5ut/El6kO3jml29ql2e1Gw1dzK5Dt4FG3iptntRtoENhg8wEkdDivZPgTcwaV4W1SecnBugFVRkuxUYUDua8t0mHfFJx0auh0HVtU0Ni2nPEpzn95GGAPqAe/vXvVKEsXlkKMHr/k2fHLN6eXZzOpU2Wmnmke0HRbzUn/tW8nNrqIH+ibDxbD0P97PepHtNc1QLZ6mIbW0AxOYXy1x7D+6p7968v8A+FheMf8An8tf+/Apf+Fg+MP+fy1/8BxXif2DjO8fLXb00Pf/ANdMq7T89Fr66np1oz+HZksrgltMY7beX/nj/sN7ehrwT4kW2/x7rDgdZ/6Cupm8e+LJY2iluLSRGGGU24wa5e7Wa6uXuJ23yOcsa9fJsurYKu6tRrVW0PCz/ibC43DxpYe+jvqrW09TmHj2uV9KNtWrtMXUo9GwKi2exry8Q71pPzZ9RhHfD035L8iLaKQr6VNtNG01lc6LkO3saNtTFeaNuM8UgISpz0rT8KjGv2p9Cf5VS2E81oeHRs1q3J9T/KnFXdjnxSvQmvJ/kd1v96N/vUG6jcPSuv6qfD+zJ93vSbveod9G6j6qHsyff+NYfiqbyza89S1au/Brn/GZJFr7FqTpeyXOjvyuFsVF/wBbEcUquOtSjBOawopWT1q1HdsBitoYpPc+usamKQ4AzxVD7adtRveMat4mAWZelmVV61l3lzv4FRyyu1QlSetctXEuWiGkVrkExP8ASvdfFXhy91Hwxo2pWEfnPDZIksY6lcdRXiEyEwtx2r6j0ZHuvAtrFA2HlsAqEepTivIxkmrHs5NWlRrOceh8qeMbm/1AyaZbafO1qDtlJjP7wjt9BXnljc6n4U8QyavotiumvpYLiV13NI+OgB7V7hMs9ldSWl2Ghnicq6Pwc1yMfh1tY8Q3096jLp/mkEHgy+w9q3o5dRlPmlrY+uxXEFSGHcdk9DjLc3viHxKbzWLAahNqC/aFuUyGDkZKsAelev8AgPUtQiaHSdQtZgjHZbybfu+in2rnLHRJNH8U2jwqxsySI2H8HH3TXb6fBPf6jb2loGkmklXaFGcc5z7V4Oe5Th6k2tr+SPzGNWVOveH3Ho1/pFxYfDnX5rtPLlms3AT0AHevn5V+XpzX1B8QD5Pw81ZZG5FkyknuduK+ZFX5RgV25LhYYTD+yp7I9rMPij6EW2jaDU2yjbXrnnEO32o247VNtNBQ0CIdtG3mptlG04xigZ1nw+n8jTrpSes2f0r58+O9xu+K+rncOVi/9BFe4eHpTBbSr0y2a4rxx4F1LXvE1xq1lc6Esc6rkXdsWkBAx1B5FeRiV+8Z7+Df7mJ5roLDX/CEnhi3liTVba8N9ZRyuEW6UrteME8bx1APWoNM8Ka5PeD+0rObSrCFg13d3i+VHEg5OCfvHsAM5Ndsfhbrp5+1+Fcg5H+iN/jUs/w38UXCKlzq/h64QdElikcD6AmsLHUeceMdah1rxRfarb5WCZwIg3Uoo2qT74Fe+/s03ez4asA3/L/L/wCy1wn/AAq7Xv8An78Kf+Ajf416J4A0uXw14cGmXEtnJKZWlY2seyPnHQfhSsK5e1cb9Xu5QOXkJJqttqzcHfcu3945pm2vq6WkF6Hy9X45erIdp9KNvtU22jaKu5mQbaXbxU20UbR+FMDyf4tDb4it/wDr2H/oRr1D9iL/AJHTX/8AsHp/6MrzH4wDHiS3/wCvUf8AoRr079iL/kdPEH/YPT/0ZXzGM/jyPpcJ/BifWVFFFcx0HPXkvleLFbGf9Hx1rS+w8f63/wAd/wDr1lamP+KoX/rhXRDtQBT+xc/63/x3/wCvRn7EP+em/wDDGP8A9dXB9apan/yzx7/0oAX7ef8Anl/49R9u/wCmX/j3/wBaqX+FGaALn2H/AKa/+O//AF6X7F0/e/8Ajv8A9erlHcnOKAKefsX/AE03/hjH/wCuj7ef+eX/AI9/9ajU/wDlnj3/AKVS9MUAXft3/TL/AMepPsP/AE1/8dqnmtmgCl9i/wCmv/jv/wBelz9iz/y03/hjH/66udT1qnqf/LP15/pQAfbz/wA8v/HqPt3/AEy/8eql/jRmgC59h/6a/wDjtH2L/pp/47/9ero6UenNAFI2WOsv/jv/ANeirpx/nFFADgKSsaj6UAXdT/5Z/j/SqVXdM/5afh/WrntQBjVtU3t171j4560AbI5qnqf/ACz/AB/pVIdKu6Z/y0/D+tAFKjvW1Sd6AF+tFYtFAF3U/wDln+P9KpVd0z/lp+H9auHp1oAxq2qKxfxoA2sc1j+K+dLlH/TNv6U2i650e/H/AEy/xoATwYMaP/wM1tVj+EP+QV/wM1s0ANb7pr81tT/5Cl5/18Sf+hmv0pb7p+lfmtqf/IUvP+vmT/0M0Aeq+Awf+ESsD/sH/wBCNbe09ay/h/Hnwdpx/wCmZ/8AQjW5sxXuU/gXofNVv4kvUr7aXbU232pdtWZEAHHSjafSpttG0Ci4Emmzi2nJfJjb7w9Pet6MwSKCksbA+9c5t+b2oKDHTFduHx06EeW10fOZtw7RzGp7XmcZfemdN5af30/MUnlp/fT/AL6rmHtblrR7yOFngSRYmcdmboMU24tL22u2tbi2kjlRgjg9A2M4zXR/bL/l/E8r/Uf/AKfP/wAB/wCCdV5cf99fzFVL25t7eMkOsknQKOaw3hkhnMU67HGMgnPWl2jHFKeazkvdVjWhwbRp1FKrVckulrfqyNgzOzt95jk0m32qbbRtFeXe7uz7JJJWRBjuRS7am20oHtQMrlaNvFT4pduaLgQbTinRM8UqSIfmQ5FSFaNuaL2B2aszpbPUbe5jDBwj45RjjBqz5qf89E/76rj5AApLDgd6JbO8Uy5gwIo1lck4AQ9D+NdyzCy95HkSyaMneMjsfNT++n/fVHmp/fT/AL6rh3hvFgjle2lVJc7DtPOOSabH5ziMrBKwk+4dp+b6U/7RX8v4i/sT+9+B2013bxKWlmRQPfk1zOrXZvrveBiNRtQH0qrGCTgg5HXPapSpznPFY1sU6qtayOnC5fDDy5r3ZCF4pNp71PtwaMVzHfch2n1oKepqbbQVzQHzIdpo21Nt9qNtFwICuRjAr174SePLK30uHQdbnW3eD5bedzhWTspPYjpXlBWkZBjn8qyq01VjZmtGvKjLmifS93B4a1KRbi5XTrl8cSMVJrkPGfhG3v79r/SNQso2cfvIHcBeO4x0rxiDTbq7hea1hV0VtnL4JbGcAdzVWa2u7e4FvLaTiYjIXBJI9vWsaNOVGXNCep11sT7eHLOGh7v4J8J2em3LX2rX1lPKUKLCrgouepOeprq7ZfDulBp4G0+14+ZlZR+tfLjQXASNvsk22RC6EKeVB5NOjQ4RnjYKwypYHn6UqtB15805XYqWJjRioxhseqfF7xxZ6nYnQdFlE8TsDczr93A/hX1ry3afYVMEwBxSheOldFKnGnHlRy1q0qsuaRDtz2oCDNTbaApz0rQyISlJtOetT7aNtFwINpo2mp8UY570XAZCzRsSO9TfaDTNnekht57l2jt1XKjczOwVVHqSa56tCM3zHZh8XOkuVK6JPtHvR9oqpcR3UErxSW77kYKdoyM9uR1pUS4WVFe3mXc2AChGTWKwsW/iOj6/L+UtiZiehqWIyuc7dq+9NiadzhYJP++D2q3Cdwzj8K6oYCF7uVzOpmE7WUbDdlG3ip9vpQB6ivT0PMINnfNGwetTbRil2ii4iDZR5fep8Z7UgTnOKBnj/wAZBjxLb/8AXqP/AEI16Z+xF/yOniD/ALB6f+jK81+NAx4nth/06j/0I16T+xF/yOev/wDYPT/0ZXzWM/jyPpMJ/AifWdFFFcx0nOal/wAjMP8ArhXQD8KySP8AirB/17/1pvHSgDZqlqf/ACz/AB/pVOrumf8ALQfT+tAFKitkYxxiigBB15pef8isbiigC5qeP3f4/wBKp1d0z/lp+H9auDHtQBjdq2D6mg+tY/AoA2e//wBaqWp/8s/x/pVOrumf8tPw/rQBSorZGM80GgBPrS/y+lY3vRQBs/Xr9KKxsegooAWirv2H/pr/AOO//Xo+wf8ATX/x3/69ABpmf3mPb+tXPeqf/Hl/003/AIYx/wDro+3/APTL/wAeoAt9ufWsfvVz7dx/quf97/61H2Hn/W/+O/8A16AKYq5ph/1n4f1oFjx/rf8Ax3/69L/x5f8ATTf+GMf/AK6ALnP1o/nVP7d6Rf8Aj1H27/pkM/71AFKirn2H/pr/AOO//Xo+w8nEv/jv/wBegA00/wCs/D+tXeap/wDHl0/eb/wxj/8AXSfbj2i/8eoAun9Kxqu/bv8ApkP++qT7Cf8Anr9fl/8Ar0AU6Ln/AJBF9/1y/wAau/Yf+mv/AI7/APXqrrC/ZNLuVzv8yMj0xj/9dACeEuNLP++a16yfCn/IMP8AvmtegBrfdNfmtqf/ACFL3/r4k/8AQjX6Uv8AdP0r81dU/wCQpef9fMn/AKEaAPafhxFu8EaYccmM/wDoRrceH1rN+GKZ8B6Wf+mZ/wDQjW/JEOa+hpxvTj6HzFd/vZerM4p14puyrckfpUZSpaMyDaKNh/Cp9ntRsNICDZSFOKsbKNmO2aACx1F7C3kt/swnjkfeyk45A+U/geasjxA5SXzLEvJMQzsX4JHf61VMXtSGIdhWbppu5oq0krJkd3K15evcmPYXAyOuMUhTNTLHgcUuz2q0raEN3INmelGzvVgJznkUmw0xEBT14oCCp9hxRsNAEGyl21Nso2UAQBaNnfFTiPmjy+aAK0seVx61Zj1WWGyt7YWqu0IZWkY5MikHaCP9nJo2Gk8vPapcU9yozcdi2niGWJCkdnJ8xZizuGZSey+i+1Rwa5Kkok+zOrsQZNrjaMAj5B/DnPNQCIYo8oZ96n2UTT28+5A/766muBH5QkcuEznbk0pXrU/l8Cjy/WrRk3cg2GjYKsbM0bBQIr7B6UbPrU5SjbTAg8sZ70bOOKn2E0bOKAINh9aTYdp44qwFOelBU5oAhW9u7bTJLK1Jj3zeaZQASOMYHpVltamlZxPbylXbduSXDoOOFPYcc1GY+OlHlD0qHTTNFVa0RJ/bUjnMlrJnO793LtHDbgB/s+o70zUb9tQggR4CjxkncTxj+6B2FJ5Q9KPLHpQqaTuEqsmrEITI5o28VOY8UbD6VZmQiPqDTSnYVZ2UmygCvs46UbDkcVZ2e1JsoAg2e1BUVPsNHljtQBBtoidI4rm3nhaWC5QLIEOGGDkEGp/LzQYx3GaTSY07EttrMdravBb6aY1P3R5mQMHg896l07W7tJS8kHm4jCfM2dvBGV9+f0qp5Q9KuWMS7W4pU6UW9TR1pFqHWpjqMd3LbM3lx7URWAAO7OcdMnpVZRumkk27d7lsemTmrCwr6U7y67I04w2Mp1HPchK0gWrGyk28VZBDt9qTbU+3ijZ2oAg2+1G0VPso20wPFvjaMeKLX/r0H/oRr0f9iL/kdPEH/YPT/wBGV538cxjxVa/9eY/9CNeifsRf8jp4g/7B6f8Aoyvm8X/GkfS4P+BE+sqKKK5zpMc/8jX/ANu/9aZSXMvk+Jd+3P7jHXFXfsOf+Wv/AI7QBT9qu6Yf9Z+H9aT7Cf8Anp+lGPsfX95v/DGKAL34UnIFUzf/APTL/wAe/wDrUfbv+mX/AI9/9agClRVz7F/01/8AHaPsJ/56fpQAumf8tPw/rVz+tUsfY+v7zf8AhjH/AOul+3f9Mv8Ax7/61AFzmsarv27p+6P/AH1/9ak+xf8ATX/x2gCnV3TP+Wn4f1pPsPpJ/wCO0f8AHmP+em/3xjH/AOugC9SY59Kp/bsf8sv/AB7/AOtR9u/6ZH/vr/61AFIZoq59i/6a/wDjtH2H/pr+lAFPOKKu/YfWXH4f/XooAuij+VLSduKAKWp/8s/x/pVM1c1PpH+P9Kp0AFbPesatkjmgAHTPtVPU/wDln+P9KuD6mqWpDiP8f6UAU6KKKANn6UDn8KWk/OgCnqfSP8f6VSq7qQ/1f41SoAK2fpWNW1QAgrK8T/8AIPf02N/StY5rJ8Tf8g9/9xv6UAJ4V/5Bp/3zWvWT4W/5Bx/3zWrQAj/dNfmrqf8AyFLz/r4k/wDQjX6VN901+aup/wDIUvf+viT/ANDNAHvPwuUHwBpX/XJv/Q2ro3UVgfCtf+LfaT/1yb/0Nq6RxX0dJ/u4+iPl6/8AFl6soyofTPNRMh9KuSCoWUZrOTIRDswaNvepcUBai4EIWl21LtpdvFFwINval2c4qULS7cUXAhC9qNtS7eKNtFwIttGypttG2i4EOygJUu2jbmi4EWygr6VLtpcUXAh20bc1KVpdtAEOyjb3qXbRtouBFspNtTlaTbRcCLbSban20FaLgQ7SKTacVPtpNvFFwIQuaUJipitJs9KLgR7abtqYLxRt4ouBFto2VLt5pdvFFwIdp9KAtTbaTbzRcCHbk0pTFTFeKTb9aLgRbeaTbU23tS7eKLgQ7cUBam20m3mi4EJQ0bDmp9tG3mmBDt9OlG3vUu3il20gIdnajZU22jFMCHaat2IGGB61FtzU1nxLg9+Kqm7SEywVo29qm2Y70BK7Lk2IdoowKm2UFOlFwIdoowKl2Uvl0XAhwKMdamKUmyi4HiHx248WWg/6cx/6Ea9B/Yi/5HTxB/2D0/8ARlcB8eht8W2n/XmP/Qmr0D9iL/kdPEH/AGD0/wDRlfOYr+NI+lwf8CJ9ZUUUVznSc/qP/Iw/9sa3+etYOof8jAf+uIrdz64oAXOapan/AMsx9f6VcH4VS1P/AJZ4x3/pQBUNJ7UflRQBtUZpM/QCj8qAKep9Y+fX+lUz6Vb1P/lnj3/pVOgArZHtWN71s5+mKAFzVLU/+Wf4/wBKud+1UtT/AOWePf8ApQBU7UlFFAGyKXNJn2FJ+IoAdjPPH5UUnHfH50UAY9FFFAF3TP8Alp+H9aud6p6Z/wAtMe39aue9ABzj8axuc1sdsn1rH70AA6Vd0z/lp+H9apD6Vc0zjzPw/rQBdo79RRRQBjc0UUUAXdM/5afh/WrhzjqBVPTP+Wn4f1q5k0ALWLzWyaxqACln/wCQTff9c/8AGkpZ/wDkFX3/AFz/AMaAH+F/+Qcf981rVk+Fv+Qcf981q0AI33T9K/NXU/8AkKXn/XxJ/wChmv0qb7pr81dT/wCQpef9fEn/AKGaAPoD4Uj/AIt7pB/6ZN/6G1dHJXN/Cs/8W90kekTf+htXSMc171OX7uPofMV/4svVkDimYOeKmam4qWzMi2n0pcce9SYoxSAj2ik2npV3T7K41C8jtLSPfK/Qdh7k9hXV/wDCCRxWrzXWrbNiF3KR5VQBk1nOrGG7N6OHqVdYI4fbg4pdtbcVv4Ml03TdRi8a272uqXP2WxkCZE82cFFHXP1rom8AQglTqsmR1/dCs/rVPubfUK/Y4LafSkK13v8AwgEP/QWk/wC/QrO1vwZdWNq1zaXAvEQZdNuHA9fenHEU27XJng60Fdo5PbRtqUDj1owPStzluR7TSAc1Lj2ox7UCI8UbakxnrRigZHtPpSbeKkxSgUXFciwaXb7U15QrEKM470zzm/uivCrcSZdRm4Od2uyuFyQL3pce1Ree391fzrR8N266pr9npspMaXDlWZeo4zxU0+JsvqzUIyd35McVzNRXUpBaXbiu88R+AodPhjezv5ZGdtu2UDH5iuLuYJbed7edNkiHBB7e/wBK9unWhU0izoq4StRipTWj6lcKfpSFalA9aK0Oa5FtNG2pcUYoGRBSKXae4qQg0YPegCMrSYqX8K3fCvha+8QM0kREFqhw0zDv3AHeplOMVdlQhKbtFHPbaNteox/DGwCDfql0T3wFA/lTv+FZad21K8/Jf8Kx+tUzq+oVux5YV9qNp9K9T/4Vlpv/AEE7z8l/wpkvwxsth8rVLoN23BSP5UvrVMPqNbseXge1Jtre8UeG77QLhVuNssEh/dzKOCfQ+hrGxntW8ZqSujlnCUHyyWpHt9KNtSYIo7VRJHtNAWpMUUCuR7aNtSYoxQFyLbRirljZz3t0ltbIWkf8gPU109v4NiKD7RfOX77F4rOdWEN2b0sPUq6xRxu3mnIMODXXXPhrRbVgtzrBhY9A7KDU8fhDT5I/Mjv5nQ/xJtIqPrVPubfUK3Y5tPmUEd6Xaa6mLwraRqVF3OQAT0FYEds8tr9oj+ZQSCO4wa6oY2lJpXMp4KvFXsVQD6UbfapBzjFLius5Lke00YqTFJii4xm2kxUgFKRzRcDwn4+jHi60z/z5D/0Nq779iL/kdPEH/YPT/wBGVwf7QH/I32n/AF5D/wBDNd5+xF/yOniD/sHp/wCjK+exX8aR9JhP4MT6yooornOkyh/yMx/64f1qGpf+ZmP/AFw/rUVABV3TOknHp/WqVXdM6yH6f1oAujoe9NpaOcUAY1FFFAF3TB/rO/Tr+NXRVLTP+Wn4f1q53oAT9Kx62efSsbqKACrumf8ALT8P61Sq7pnST8P60AXR1pCPajvR9KAMaiiigAP40UowKKALv2H/AKa/+O//AF6PsH/TX/x3/wCvVwUe1AFP/jy/6ab/AMMY/wD10fbv+mP/AI9/9ak1PpH+P9KpmgC59u4/1X/j1H2HnHm/+O1TrZ70AUhY/wDTX/x2lP8AoXbzN/4Yx/8Arq4ORmqep/8ALP8AH+lAB9u/6Y/+Pf8A1qPt3/TL/wAe/wDrVSoH0oAufYeR+8/8do+w8n97/wCO1d5oH5f1oApn/Qu3mb/wxj/9dJ9v9Iv/AB7/AOtS6n/yz/H+lUqALv27/pj/AOPf/WpDYn/np/47VOtmgCn9h/6a/wDjtVdXX7Jplwv3/MjIz0xj/wDXWsKyvE//ACD3/wBxv6UAHhb/AJBx/wB81rVk+Fv+Qaf981rUANf7p+lfmrqf/IUvP+viT/0I1+lT/dNfmrqf/IUvP+viT/0M0Ae+/Cw/8W/0n/rk3/obV0pOa5r4Vrn4f6T/ANcm/wDQ2rp9texTfuI+Zr/xZerIyKMGpNtG36VRkR4oxUm047UbD1pAdT8MVQXWoOQN6ogB9AetdvHIqt8wDL3B6Ed64f4dnbc6j/uJ/Wupubu2tYfNurmG3jzjfK4UZ/GvMxD/AHjPosFH9zFI+X9J07UfDXxp8RaQYYp9D8Bpf+IbCFujPMmYwfox/St6L4o/EXSvDutvqmt2eoXlx4Vj8RWFwlqE+xl5dpix/EMd66W+0TT7z4nePtbvPE+hwaT4l0VdOt2W7DSI4GCWXsPxrjbXwRqd7oGt2+veK/CMN8fDKeH9JW1vCySoj7xJKSPlJ6Vz88e53/V638j+5nq/wy8Xa5rnxF8R6NqV0ktlY6Tp91AgQKVklTLnPfJr0dGBYA4OePwrxb4K6fqmi+LNd1vxTrnhh5dS0+ztIU0683hTCMYO7H5969hWTEoBppp7GcoShpJWPKtSRU1O6RBhVnYAfjUBGataiC2p3Z/6bv8AzqAqa9mPwo+Vqq03buMxRin7aNtMgYaCOaftNBFMNSPFPiaGOQPPa3F1CPvQ25xIw9qULWr4S3p4htijshyeVPPSoqSjGLclddi6cHOaitLlH7V4c/6E/wAS/wDf3/61H2vw7/0J/iX/AL+//Wr0m+1NbCze81HV/sVujBTLNLtXJ6DPvWVdeOPDdq6Jc+M7GNnOFAuC354HFeHy5Qt8HH/wJnuU8ixVX4JN+kE/0OL+1eHP+hQ8S/8Af3/61WdK1nQ9L1GHULbwf4h86A7k3yZXPvxXb2XiPTL27jtLPxRaXFxKCYoo7ncz49BWlaXFy1yitczMrbgVZsg/Kaun/ZKknHCK/wDiZnPKMTR+Kdn/AIEhPCutWnjvSHu/sk9mtvOUClwSSB14+tcx8U9Kg0+4sZoS5MgKsWPp0qt8JXlTwjc+XK8ZbVJASpxkYp/xBaR47HzJXk+ZsbjmvRxMYUMwnRgrJNkqtUrZcpzd76nIAd6XFSbKNldR41iPFGKk2Gk2mgBmKMVIF96NlAWIX4Un2r3bwlax2fhuxhiXAEIJ9yeTXhsifu2+le9aCP8AiS2Q/wCmCfyrkxeyPTyxe9IxdVvrzT/EbSPPO9iIkZo9nyqS2CSfbrVL/hL79oppE0cosa5XzGIyM/e6dD2rtGAC5ri217xFr+oTw+E7azi061kMUmoXhJWVx1WNB1APBYkc9K85xfRnvxqxt70bhc+KdQF7EyWnlw+WzNEUbdnAwW9BWp4f1241K7jglsvJYwiVyDkKD0H1zmqOkeItUs/EEOgeKrOGC4ugfsV5bEmC5IGShzyj4BOOcgHmuqjgiSZ5kjVZJMbmxycdKOWV9wdSm425dTF+IFpHdeEr4OoPlx+Yp9COa8THQH1r3Txh/wAirqf/AF7v/KvDwvFelhPhZ89mS99PyGUmM1Jjmjb6V1HnDMUYp+2l2UwI8Cgin7TShaQHUfD+FBDd3BHzbggPoMVL471m60q1ggs2VJbnOZCPuqPT3p3gRSun3Oe8w/lWX8UmQjT1yfNG84x24rzK/wDEZ9Fg1ahGxxTkyOXkYyMTklzk1oaBqd1pmowSQyt5e8K8Zb5WBOOlZ9SWnli8gMpIjEq7iB2yKxOk9o45x/dP8q8+0vUtOWKMtqcMflu4aPP3ue9egrgjI5G0kfTFeP2KvuQLbxtEZJPMYgcHccV6OX4GOLbTbVjyM2zOWAjFxine+50DiN3LwsHjY5Vh0IppWi2ZRCqEAADC4qYpkZBr1rKPu9jyIz9olPvqQYowalK8UgWgZHilxT8ewoINFwPBv2gePGFn/wBeQ/8AQ2rvP2Iv+R08Qf8AYPT/ANGVwv7Qgx4ws/8AryH/AKG1dz+xF/yOniD/ALB6f+jK+fxX8WR9LhP4MT6zooorA6DFuJfJ8RF9uf3OOtXPsPYS/wDjv/16z9Q/5D5/64itz8P0oApfYf8Apof++f8A69GPsf8At7/bGMf/AK6vZFUtSH+r6d/6UABv/wDpn/49Qb7/AKZf+PVTNJQBd+w/9Nf/AB3/AOvSfYf+mhOP9n/69Xfw/SlyOlAFH/jz9X3/AIYx/wDrpft3/TP/AMeo1Mcx9O/9KpnpQBc+3f8ATL9aPsP/AE1/8d/+vVKtnHtQBS+w9vMP/fP/ANejmzHd9/tjGP8A9dXsiqWpj/V9O/8ASgA+3Y/5Z/8Aj1H2/wD6ZfrVM0goAu/Yf+mv/jv/ANek+w/9NTz/ALP/ANeruPalyKAKQsf+mn/jlFXCM9hRQA6k7etY1FAF3U/+WfPr/SqVXdM/5afh/Wrn4fSgDGrZPXNHOPxrG5zQBsjp1qlqXSP8f6VTHSrumf8ALT8P60AUqK2aOc/hQAtJ+NY3NFAFzUv+Wf41Tq7pn/LT8P61d59KAMWtqisXmgDa+lZPif8A5Bz/AO439KjpZ/8AkE33/XP/ABoAf4W/5Bp/3zWrWV4X/wCQcf8AfNa1ADW+6a/NXU/+Qpef9fEn/oZr9Km+6fpX5q6n/wAhS8/6+JP/AEM0MD6A+FI/4t9pP/XJv/Q2rqCK5n4UD/i3mkf9cm/9DaupAr1qfwo+brfxJerGEUbRTyKTFVczG4owKdigCgDe8DHbdX/vGn9a4H4l3Oja78YbPwv4ludRGn+RFFax2hxidz95vbFd14QYrc3v+4leO/EaZk/ab0ZTwGuLTH5V4WZau3mj73hNJScr2ahJprdMz/iF4Z03T9cvbHwlZ6pd2+l3Is9QnucFVmYgIq/UmpdO+HupX/ge71C10q+n8Q2uq/YpLFMfKmwMSR6811crT3N78S4raCWeX/hLbEhI0LNjzlycDsK2Y7i+Gr3a2X2on/hYESzeQG+55S53Y7fXivMWEpuV2tz7F57ioU4wUtVZ3fXRPXy1Z4vpvhvxFqdheXunaBe3NtZMUuZET/VMOo9yO+K+ifgbrE+rfDnTp7mdp5YXeDexySqnjJ+lYOhan9ksdMew0nUNUvG17VBElrceXAp53ed2Ix0zTv2cHJ+G6uV2htQuCAOgG6tcLQVKpo90ebnuZyx+El7SKXLJW79b/kXb3m+uT6zMf1qICpbnm7uM/wDPVv500CvqYP3Ufk1X45eozFGKeRQBVXIGYpMc1IRSAU7gM284q9oJddWhZG2MCcH04qqRV7w9GJNYgQsVyTyPpXBmkKtTA1oUXabjKz87aHRhGliIOW11+ZF8X21eXwRLJZSuwtrhZZ1RRkx9Mn1ANczZNorQvHff2dDcJYKXeJwYwxGd6nuwGMkdzXrLWUi5aKbecYKyKCCPSuN1D4deC767aefSriym3bpI7WbYjH12nOM+1fK8N8UUsly9YPiOLi0241UlPmvZ8re6a1tfdeh7WbZZisRXdbL56NK8btW816mBosH2nxt4dj8PzRIY3aW5a2YMDbADbJIccMxyMV6+1zb2sv2q5mjt4FLlnkbCqCD1NYvhTTNF0S1k0/R9OhsQ53ORy83uWPJ+lc98cNO1HU/B8UVhHNKkd0r3McKkuyY9B1xX0uHzPAZ/XoPCSSpPRSsk97u679LGHsMTl2GqTr3lO17Xb+6/3l74WzWUfhy4s4dSsruf7e8xW3l3FVI4Jqbx1grZAc8tXD/DMrqHxU03W9H0u60rTbW2MF55sZVXCrtXnHLNwSPWvSvincW1yNPNs6vtZt2BjtXqZrho08yU+a7krtaXTfR2PPwdd1MuceWyWieuu3c4fAoxTuR0ApSM0rnIMxRinY5pcUAMAo20/GKMUARSACNvpXu+g/8AIGs/+uCfyrwuQfu2+le6aD/yBrP/AK4r/KuTF7I9HLfikXJQWiZRxkYrjfhZfW0Xh+Pw9OY7fVNMJhubcnDZycOPUN1zXZv92vOo5/DHiLUJ7TxlaWmna9YSMvzTtA0kefldHBUspHoTg1xHrkPxb1qF9U8O6PpoW71BdXglmKNxbRbsFmPbOdoHU5r0uvK7ew0LVfF1hofhK1j/ALM0+4+3arfQsWSSRQRHF5hzvbJ3Hk4C16pg4zmgDJ8X8+FtS/692/lXiSgbRXtvi/jwvqX/AF7t/KvFADtFd2E+FnkZj8a9BMUEU+jFdVzzhmKMU/HNCqSeKaENVC3Sp44eMkVLDGABkc1MF7VtCHViub/g9dtlcD/pp/Sq3xC08XeiC7DAPaNux6g9RVzwoMWk47+Z/StO/jhbT51uwPIaNt+7gEYrx8V/GkfQ4P8AgRPGfrxmtXwlYf2lr0FuxwiHzH46he1ZXGTt+7k7fpXafC6OAyXsmAbobQvPOzvisDpO47scY+U/yNeI2cl7tdFv1TMr7V8sHjca9uGVzkEfK38jXhtncW6h3eKYyJK43CMkfeNeVmmYzwMYuFTkv52Pn8/wOKxcILD03Nq97Jv8jrLEObGEu25ynzHGM1Jll6GjTsPp0DgEBkBGRg1IyivscPNzowm3e6T/AAOKEZQioyVmtyPzyDyBR56d81HKvWosc1TqSRdiz58fvSNOoHAzVfHFJjil7VhY8S+P7+Z4vtDjGLIf+htXe/sRf8jp4g/7B6f+jK4D4+f8jdaD/pzH/oTV337EX/I56/8A9g9P/RlePXd6jPosL/BifWdFFFZHQYOof8h8/wDXEVuAn0rMH/IzH/rhUOKANn9Kp6n1j/H+lUquaZ0kP0/rQBTorZxxk0lACg9hxR+FY2KKALuqf8s+/X+lUu9XNM/5afh/WroHegDG98Vs5xxSVj4oA2e/Sqep9I+/X+lUquaZ/wAtPw/rQBTo61sgZNBoAM+1BzWNiigDZx6ZorGNFAC0Vd+w/wDTX/x2j7D/ANNf/HaADTD/AKzj0/rVzvmqf/Hl/wBNN/4Yx/8Aro+3f9Mv/HqALY6fjWP3q59u45i/8e/+tR9h5/1v/jv/ANegCmOlXdM/5afh/WkFl/01/wDHf/r0pxZdf3m/8MY//XQBcz60e9U/t/8A0y/8eo+3/wDTL/x7/wCtQBSoq59h6Dzf/Hf/AK9H2Hk/vf8Ax3/69AC6Z/y0/D+tXM+3FUziy6/vN/4Yx/8ArpPt/wD0y/8AHqALvesarpvv+mX/AI9/9akNjx/rf/Hf/r0AU6Wf/kFX3/XP/Grn2H/pr/47/wDXqrq6/ZNMuF+/5iEemMf/AK6AF8Lf8g4/75rWrJ8Lf8g4/wC+a1qAGt901+aup/8AIUvP+viT/wBDNfpU/wB0/SvzV1P/AJCl5/18Sf8AoRoA+hPhN/yTzSP+uTf+htXU4rlvhN/yTzR/+uTf+htXUnrXrU/hR83W/iS9WGKMUg60tXYzDFGKKSkBo6Dcpb3bhztEqgBvcVxvxh+GereKfEFh4n8M6pBZ6taoqFZjgHbyrqw7iuhbgVXnvJIgAskoHQYY4zXJiMIqx62WZrUwLvH+r9DyyD4bfHCwvNQurHVIlm1Bw95LFe7WmYHIJ96fZeBPj5YzXE1pqgge5mM8zJegb5CMFj74r0j+1HBIM8nHX5zT21CdVDO06qehJIFcn9mJfaPcfFlV7019yPNdA+F3xmsLO8sLfxDb6ZaX7E3Si8JDk9W47/SvafBWiWngnwZZaJHcmdbRSXlIwZZCcsQPTNc8NUfIHnSf99GrUNwZuWcsfUnNaUsvUHuceO4iq4qNnFLrorE7kvI8h6uxb86TFITRmvSSPmXdu7FxzRikpaADFGKKKADHtUtlMbS8iuQM+W2SPUd6izQM96TjdWY03F3R6JbTRXUCzwOHRhnjt7VFe2pmxJHxMo4z/EPQ1wttLPCxMErxk/3T1rRj1C+jG6W8lwO5NeBjsip4yjKhVs4S6f11PZp54qLUmndGzwx2kFHU9OhBrS0O7mOq2kUqhwZCA44PTuK5g63EWBmcs46FutWLPW4TOrRkK4OVI6iviMq4FzPKMZz4XEr2V9U76r8r+aOqvxVhq1O0qTv8jufFTW9rBbEqI1Mv8KdTg+lcb4ht3vpI2Qfu41wOOSa2Uu5rtFMsrSY5GT0pSoPXk1+kUMJOFaVSbTXTT77u/wB2h81jc79tTVOnG3e5wk9nJGeVxVcqQcV3F3ZxyqeOa5vU7FomJA4rvOWjiVPRmXj1opWGODTaDrFIoxSUCmAFcgg16t8Ptbgv9His5JFW7t12MhPLAdCPwryrmmtMYWEiOyOvIZTgj6VlWpc6sb4eu6Mr7nv+ciqOq6PpeqKo1HT7a62/dMsYJH414k/ivXIFUHUrtFI+Xcev0z1pP+Ex1vj/AIm1wM9ORzXJ9Vl3PS+vx/lZ7rYWdpY2629nbRW8K9EjQKB+VWD0rwE+Mtbxxq9wfoRR/wAJbrMuY31W5IPBG7FH1WXcX9oQ7M9L+JOtwW+lPpcTq9zccMAfur3JrzQDHSmRyGQl2YszcsSck/Wn110qfs42PNxFZ1p8zDHejFIetLmtDETFTwJzUI6gVbtxxVwWoiUAAUhp1JXQKw26v9TsdPl/s1grMcucZYD2rlbm/vbvIuryeUE8hnOPyrq2O0ZrNu2t2LO9sr7fvME6fWuLEYRVJcyZ6GFxjpx5JK5z2R6inRyyQyCSGVo3HRkbBrUE2n5/1EVOE2njrbRflXP9Rl3Or+0I/wArHad4p1myfP2v7QmCCk3IPHrWVo1vJeLHIjMCWYlR93k1rxzabn/j2h59q0bWSARbYI0RfRRXh5xwr/asqSqVLRi3fTV+Xl6np5fxJ/Z8ajhC8pLTsvPzJkXy41QHIUYzTG6U4sOveo3avroxjTioRVktF8j5STc5OUnqyOQVCeDUjnmo2rJ6isFJilJ4oqBnh3x9/wCRvtP+vIf+hNXe/sRf8jnr/wD2D0/9GVwXx9/5G+0/68h/6E1d7+xF/wAjnr//AGD0/wDRleZW/iM+gwv8GJ9Z0UUVkdBlf8zMf+uFQ0txL5PiIvt3fufWrn2Ht5v/AI7QBSq7pnWT8P60n2LH/LX/AMdo/wCPPgHfv/DGP/10AXR9aO3IzVM3/wD0y/8AHv8A61Bv/wDpl/49/wDWoApUVd+w/wDTX/x2k+xY6y/+O0ALpn/LT8P61c7+lUv+PPvv3/hjH/66X7d0/df+Pf8A1qALn6isbtV37f8A9Mv/AB7/AOtR9h/6a/8AjtAFKrumf8tPw/rSfYcdZf8Ax2jP2Mf39/4Yx/8AroAu96P1qn9u4/1X/j3/ANaj7f8A9Mv/AB7/AOtQBS4o7Vd+w/8ATX/x2k+w/wDTXr/s0AVB9aKt/YQf+Wo/KigC8KOelKKTnFAFPU+kf4/0qkc1c1P/AJZ/j/SqdABWz3rGrZ5zQADpx0qnqf8Ayz/H+lXOcdqpal0j/H+lAFOgfjRRQBs0Drx+NLSfiKAKepn/AFf4/wBKpVc1LpH+NU6ACtmsatqgBBWV4n/5B7/7jf0rWrJ8T/8AIOf/AHG/pQAeFv8AkGn/AHzWtWT4W/5Bx/3zWrQAj/dNfmrqf/IUvP8Ar5k/9CNfpU33TX5q6p/yFLz/AK+ZP/QjQB9CfCYf8W70j/rk3/obV1Ncv8Jf+Sd6R/1yb/0Nq6kivXp/Aj52sv3kvUSilpQKsysNopcUYoCw1/u4qG2uhaNOJk8yNl3xjGdsgPBHocZqwRTGiDdcVMldWKi+V3K0h0iZsSCNT5ofzFgIGwEHYR3YjOTUaz29zZw2l3PKEQsRvBZVHmZA/wC+eKtfZ19BR9nT0qPZmvtWOe60WSaIywLJCm1UjEW1kI7se49qjbyXu3e3jCRkDhehOOTTxbpnoOKeiBelOMOUmdTmWwtFLijGa0MrCUUuKBxQFhKMGnY96KAsN70UuKci5YCgLF/S7QytuIq/cJDHaTWtwrGORlPyrkjbyP1q3oMI8sHFaUtrHJ94ColHmVjzamIcal0csfsN7dvLdRqZJnU/NHjGMd/TFLZxWgMiskZlIIaSOLaCcnaFFdH/AGdD/dFOjsIkOcDNZ+yQSxratZEelIywKGznFXqRECjilrU4HqFVL+3WWI8DNW6CAV5oHFuLujhtQgMUp4qng10OvwgEsBWAaZ7dCXPC40D1op1FBrYSoJ+CrFdyqwJX1welWKay5FA0iGSezbUGlur+S5hZzIkLxZSP2Poe3FEk+hsjqbYyYXam5SBsznA96cYFPUCk+zJ6CsvZI19q+xFBcaaJxIIIYZEkHlsYMqIwRkY/vEA81Ok+jiB3WFJZyWaPdF3Pr9Kb9mT+6KUW6A9BT9mh+1diKyVgg3das0oUDpQRWiMLCUU4CigLCDqKtw1VqeBucVcNwsWAKMUoorcVhkvKkd6pXEifZYE+1TW4h3iaKNcmfP6VfIzxUckCt2qZQ5ioS5WZzSaahJS3hkYthf3GFWPP3SO7Y71JFLpckqvcopiWLyhGIuQvzd/XkVa+yp6Zo+yp6Cs/Yrua+2fYppNaIZo0EBikQBQLfoobO0n1x3qxctA92XtQBGQMhVwoPtUotkHOB7VE6heBxRycmtyZVHJWF3cU1mpgNBqXJszsIaSnGjFSFhOtIfanUUBY8N+Pv/I32n/XkP8A0Nq7z9iL/kdPEH/YPT/0ZXB/H/8A5G60/wCvIf8AobV3v7EX/I6eIP8AsHp/6Mryq38Rn0GF/hRPrKiiiszcwdR/5D5/64itwY7Vh6h/yHz/ANcRW5n60ALx0qlqWf3fXv3+lXBVPU+sfXv/AEoApEUUfnRQBsjFLxSZ7DNH50AU9Tz+7/Hv9KpkVc1T/ln+P9KpUAFbIxWN+dbOe3NAC8VS1P8A5Z9e/f6Vc4zVPU8/u+/X+lAFM0goooA2eO/Wl4pM/Wg/TmgAOT0z+dFHPr+lFAGPRRRQBd0z/lp+H9aud/eqemEfvM+39aud6ADt071jZ56VsDp+NY/egAHSrumf8tPw/rVIdKu6Zx5nbp/WgC5R36dqM/hR70AY1FFFAF3TP+Wn4f1q4Tx0qnpn/LT8P61czQAtYtbPesagApZ/+QTff9c/8aSlm/5BV9/1z/xoAf4X/wCQcf8AfNa1ZPhb/kHH/fNa1ADW+6a/NXVP+Qpef9fMn/oRr9Km+6a/NXU/+Qpef9fMn/oRoA+hfhKP+LdaP/1yb/0Nq6rFcv8ACUf8W70f/rk3/obV1WK9emvcXofPVn+8l6jetGD6U40dauxncbRSgcUuPaiwXG/hRg+lPRSx6VfsrB5SDg0ESqKKuzPVGbtUotpD0FdLbaUigbhV1LCNR90UjkljIp6HGtbSDnFRtGwPIrtnsIj/AAiqdxpaMDgUBHGRb1OSINGPatW9054ySBx9KzXQqxBpnXCopLQZRzS4peRRYu42inGk60WC4lSQD5xn1puMU6M4YfWiwnsdjo4AgGPStCsrQ5A0QHtWrxSPDrfGxKKKXrSMxKKUCnAUANpKdtppoEYviADyzXLOPmNdJ4hkGCM1zjck1SR6+EVoDaKXFHeix1XDBpMU7BFHJosO43n0op2KKLBcbS4NKOKO9FguNop1FOwXG0Ype9LSsFxtPQ4NN60uDTEW4nz1qTHeqSPgj0qxHKDWsZCJcUUgYGjIrTQQv4UZpCwxUby4FJtIYSvgVVc5NK7EnNIBWMncY2inEUgqbBcTB9KKdzSUrDuJRTqMYosFzwv4/wD/ACN9n/15D/0Nq739iL/kdPEH/YPT/wBGVwf7QH/I32f/AF5D/wBDau8/Yi/5HTxB/wBg9P8A0ZXlV/4jPew38KJ9ZUUUVkbmV/zMx/64VDiph/yMx/64VDQAVc0z/lofp/WqdXdM6yfh/WgC5jjmjnpQM0cUAY2KKKKALmmf8tPw/rV0DPNU9M/5adun9auD2oAT+VY+K2eOlY1ABVzTP+Wn4f1qnV3TP+Wn4f1oAuDk0fSl78UnfmgDGxRiiigANFKKKALv2H/pp/47/wDXo+w/9Nf/AB3/AOvVyigCn/x5f9NN/wCGMf8A66Pt3/TL/wAe/wDrUan/AMs/x/pVI0AXPtwx/qu/96j7Dyf3v/jtU62O9AFMWPH+t/8AHaU/6F38zf8AhjH/AOurY+lVNU/5Z/j/AEoAT7d6xf8Aj3/1qX7f/wBMv/Hv/rVSoFAFz7D0/e/+O0v2H/pr/wCO1cPrR/k0AUz/AKF1+ff+GMf/AK6T7d/0y/8AHv8A61Lqf/LP8f6VSoAum/8A+mf/AI9/9ak+wjH+t6/7NU62aAKf2H/pr/47VXV1+yaZcLnf5kZHpjH/AOutYVleJ/8AkHv/ALjf0oAPC3/IOP8Avmtasnwt/wAg0/75rWoAa/3T9K/NbU/+Qpef9fMn/oRr9KX+6fpX5ran/wAhS8/6+ZP/AEI0AfQ3wl/5J1o//XJv/Q2rqa5b4S/8k60f/rk3/obV1Ne1T+Beh87W/iS9QoJpaTtVmYgpy8nFIKsWURkcDHegluyL+l2RlbcRxXSW1usSDgVFptusUQ4xV0n6VlKajuedKNbESappsBijNKFJG7OFH5UxWRzhJI2b0DA1n7WHcP7OxX8jHZo4zRtwcHj60E9qaqReiZnUwWIprmlBpENxAkikEDNc7q9iUJYCuoqrfwLJERitEyKNVwZxDLhjTSauajD5cp7VTHNaHsRfMrhS59qSgmgoM0A80daSiwjc0O52uFJrpo2DqCK8tvvE2l6RP5c9wXnHWOIbiPr6VatPipokKhZLW+P0jFefVzHC0pcsqiTO5cI5zjYKth8NKUXs7b/eelU5RXng+LXh3/nz1D/v2KX/AIW54c6fY9R/79isv7Wwf/PxE/6jcQ/9Ak/uX+Z6KB0pdtcTpPxQ8K3twsMs09mznCtPHhc/XtXbxujxq6MrqwyrKcgiumhiaVdXpSTPGzHJsflklHGUpQb2uhNtQ3BCJmp3YDms3UpvkIFbo8+Ebs57WZS8pFZJ4rQvRuYk1QatEj2KWkRoPWgdaKWmbBQPakrH8W+KfD/hLTP7R8Q6lFZwt/q1PzSSn0VRyaTaSuwScnZGzmivHLj9ozwGkrLHaavKo4DCNRn8zUY/aP8AA54GnayfpGv+NZe3p9zf6tV/lPZxRmvGD+0f4HHB07WP+/a/41NaftF+ApZlSa21eBCeXaJTj8jR7en3D6tW/lPYc4pCeKzPDHiHRfE+lrqmgajFfWhO1mQ4aNv7rL1BrTJrVNNXRi007MKBSU6mISjNLRQIaetOzgcU2igZIJGHelEpx1qNQWIVQWYngAc1ox6PeOu5giE9ia48ZmeFwKTxFRRv3ZvRwtav/Ci2UWkY96aSTWl/Yl3/AH4vzpf7Euv78X5153+s+U/9BEfvOj+ysZ/z7Zl/hSg1p/2Jdd3j/Oqt5Y3VoN0keU/vLyK3w2e5bipqnSrRbfS5nVy/FUo806bSK1JQRzSHivWOMXNGaAaWgYA0hNBNHWgDwz4//wDI32n/AF5D/wBDau9/Yi/5HTxB/wBg9P8A0ZXBftAD/ir7P/ryH/obV3n7EX/I5+IP+wen/oyvHr/xGe/hf4UT6zooorI3MW4l8nxEW27v3OMZxVz7D/01/wDHf/r1n6h/yHz/ANcRW4ODQBS+xf8ATX/x3/69HNlwPn3/AIYx/wDrq9gVS1L/AJZ/j2oAPtw/54/+PUG+4x5X/j1UjRQBd+w/9Nf0/wDr0fYvWX/x3/69XAPelwKAKP8Ax5/7e/8ADGP/ANdL9u/6Y/8Aj1Gp/wDLPj17fSqZoAufbv8Apl/49R9h/wCmv/jv/wBeqVbOPegCn9h/6bf+O/8A16TP2Mf3/M/DGP8A9dXsD61S1Mf6v8e30oAPt3/TH/x6j7f/ANMv/HqpmkoAuix/6a/+O/8A16T7D/01/T/69Xce9LgGgCl9gz/y1/8AHf8A69FXCP8AOKKAHDHak+tY1FAFzU/+Wf4/0qnV3TP+Wg+n9auf5+tAGNWz0NGeD9axieaANkdMYqlqXSP8f6VTHSrumf8ALT8P60AUqK2fyxRnn8KAFpPwrGzRQBc1LpH+P9Kp1d0z/lp+H9auEjFAGNW1RWLmgDa6Vk+J/wDkHv8A7jf0qPNLP/yCb7/rl/jQA/wt/wAg4/75rVrK8L/8g4/75rWoAa33TX5ran/yFLz/AK+ZP/QjX6Ut901+a2p/8hS8/wCvmT/0I0AfQ3wl/wCSdaP/ANcm/wDQ2rqq5X4S/wDJOtH/AOuTf+htXUivbp/AvQ+cq/xJeotFIc0duasgMc1raJHukGays81t6BjdSZhXdoM35HESqvTIzXH/ABC8eW/heKK0tYBfazcjMFtnhB/fc+nt1Nb/AIlvotOtmvZj+6ggaVvcCvDdH1RrLTtT+IupxJdaldT+VYwvyDK33f8AgKCvJrt87PbyqKjhYtdf8zc1PR/Eep6Y3iHx94rk0jTjgiEMUQZ6KqLyfSuftrL4dSyhLHx3e2txnCSTRyIpPH8QPH1963tKvZbjTrfRvG2oDVdR1djdWVtMMCKQDKgn+EHoK46TxdpMlxJY634OtoYUcxyeQ+JIsHB4I5xWJ6R3cHiPxl4EMD6pOPEmgTcpOrh2C9yjjrxzg16npOr2eq6bBqen3Cz2twu6Nx/I+hHpXg+mTxeDL2COKc6j4N1zCvG3IiJ4DqD91gTzW/8ADuaXwv461HwlLLvtLoNPbnPAcc5H+8KBNXPbUbfGreopGXIIqOxO6yhb1XNSt3r147I/Pa6UKsoro3+ZzGvxAPmsQ9cV0Ov4zXPc5rVHq4fWAlA60HijFM3E71R8Q3rafol3eJ9+NPkPoTxmr+KwPiE2zwdft6Kv8xXPjJOGHnJbpP8AI9PJqMK+Y0KU1dSnFP0bR5iZmZzIzFnY5Yk8k1c0fTtT1iaSHSLGa/liG50hGSo9TWz4K07wu3grVPFWvQ6hqLaZOsb2Fs4QFW+65Pp616L+z1rtjrfjnUDpuh22jW1vp6okMLFi/wA33mPc1+d0MH7ScVOXxfef0ZmeeywtGtKhSb9lo29Ip6ab3e/RHmq+DPGJbB8NakoPcx5x+tTX3gjxRDKi2mjajeIUy7i32bW9ME8/WvfPjx4w1Twf4Riu9JWMXNzOIRI/IjGOuO5rh/2ffiL4m8QeK59D1m7W9ga3MySFcOhB9uoNdc8DhoVVRcndnhUeJM3r4GWYxpw5I30u9f8AhvVHlOr+H/EOlWZu9V0W7s7fcFMkq4GT0FeqfAbXJrnQbvS7iRpBYyAwknJCN/D+FdV+1I+z4Vu2f+X6H+teYfs9y7p9c5/hirqwND6pmMYQejX+f+R4nEuYf27wnXxNeCUoSVrdNUuvk2exzXO4cVRuGJHNOZh61WuJOMA19pY/A4R1M+8Iyaz5MZIq3cuCTzVI9TVJHo01ZDfrS0lLTsaCou+RV9TXxB8evEt74m+Jmqy3ErfZ7SY21tFn5Y0Tjge/WvuK3/16f71fKXwS8Bw+Pv2lrmwv036ZZXs15eAjhkRshT9TiuLG/Cj0cuS52zofgD+zZP4l0BfGfjl7qy0XaZbexgGLi6UfxZP3VP5mvqTw98NPANh4XR/DXgnTLaTOF+1WyzSkA4bJbOTXXaOutJqU9vfRqLBAywBUURhB9wADvjP6VsgKo2qAo9AOK849Y801b4U+Atf8LTyeJvBen+eFkc/ZoFhmVRnAymOcV8oftEfs5XvgbSz4t8LTXGpeHWCySxyqDPZhum7HVeetfdp1XTjrY0M3KNqBgM7W4GSseQNzemSe/Wq+tQ3F3eWunG2aTTLiN0vQyAxFCCNrd+c8UAfnR+zN4lu9D+J1jYpK32PVH+yzxE/Kd33Wx6g19kEYJFfKmveBv+Ff/tYad4cgB+yDVYZ7PPeF2yv5cj8K+wLXSXkYtL8i5r0sG/caPFzOUYTTZlgEnAFSx20z42ox/CujgsreEcIGPqasgAdABXVc8eWK/lRzK6ddH/lm1I2n3KjPltXT0A0XI+tS7HJPBKn3kI+oqJhjtXYsFYHcoP1qpcafbzAkLtPtRcuOKX2kZmgqqu8xALDhc9q1xNx2puk+Gru6SUw37QqrYwsQfPvyav8A/CH6h/0Fpf8AwGH+NfjfFXDmcZjmlStSs4aJXl0sj9FyXHYWjg4J79fvKfnfSjzquf8ACHahjP8Aa0v/AIDD/Gj/AIQ/UMZ/teb/AMBl/wAa+d/1LzztH/wI9X+1ML5lMzU15QylWAZSMEHuKvf8IfqGP+QvL/4DL/jSDwfqJ/5i0o/7dl/xprgzPYtNKN/8QnmeEas/yOMnTy7h4xnCsQKYasalA9tqNxbyOZHicqzEYz74qCv6AwvtPYQ9r8Vlf1tqfm1ZRVSSjtdjcUoozS1uZhSd6M+lLQB4X8f/APkb7P8A68h/6G1d7+xF/wAjp4g/7B6f+jK4P9oD/kb7P/ryH/obV3n7EX/I6eIP+wen/oyvHxH8Rnv4X+FE+sqKKKxNzB1D/kPn/riK3ARWX/zMp/64VFQBsj9ap6meY+fX+lUqu6Z/y0P0/rQBSorZ7dcUc0AHHI6n6UcetY1FAF3Uz/q/Xnp+FUs1c0z/AJaZPp/Wro5oAxq2cj2z9KPbrWNQBs8ZqnqZ/wBX+PT8KpVd0zP7z8P60AUqK2RzR9OaADI/yKDWNRQBs5I6EUVjc0UALRV37D/01/8AHaPsPrL/AOO0AGmf8tPw/rVzvVPH2L/ppv8Awxj/APXSfbuP9V/49/8AWoAudvxrH71c+3cf6rv/AHv/AK1H2Hk/vf8Ax3/69AFMVd0z/lp+H9aQWIx/rR/3z/8AXoI+xf8ATTf+GMf/AK6ALuaKpfbvWL/x6l+3cf6rj/e/+tQBSoq79h/6bf8Ajv8A9ek+w9f3o/75/wDr0ALpn/LT8P61czVMj7F/t7/wxj/9dJ9u9Yv/AB6gC7WNV033/TL/AMe/+tR9h9Jv/Hf/AK9AFKln/wCQTff9cv8AGrn2H/pr/wCO/wD16q6uv2TTLhc7/MjI9Mf5zQAvhf8A5Bx/3zWtWT4W/wCQcf8AfNa1ADW+6a/NbU/+Qpef9fMn/oRr9KX+6fpX5q6p/wAhS8/6+ZP/AEI0AfQ3wl/5J3pH/XJv/Q2rqs1ynwl/5J3pH/XJv/Q2rqq9un8C9D52sv3kvUXNFJRVmdgHWtfRJNrjmsirNjL5cgPShmdWPNGxD8a5XHg7UFiJ3NZt0+ozXkerSRt4X8JRsf8ARlvXL46buK9c8dvHeRxWspBjmtmRvxrxeyhabTrvwleuIbu3l8y0duAHHT8GFeTXX7xnuZarYaC/rdkXxTN2PiHc+WXEi+V9k29hgbdv41b8YP4bfXHbXGu11Qxx/afsABQvtGd2ej564rcspYb2ysbzxHajT9W04mCC6m4VjjAyP4sdRWJ/wh2npcNea34vspIWcvIYOZJMnJ+hNYWO40rRvC5+HMYuv7V/sj7f+7eQL5m7jIUD+GtPxBOh+KWgvbN90IOv8Gw/0xWBeXVr4hurW2s4DZeGdKwSW48zHOPdjVvwhLJrHiu78QyptggUxQem48YH0FMR9EaQ2/S7Z+xTNWHOFJqj4bbd4esWPUxCpr6cRxE5r1ofCj4Cur15pd3+Zg69LlyAelYeat6jN5kpOc1TrZHrUY8sbAaXNJRQaWFzXN/ExtvgfUW9FX/0IV0dcv8AFY7fAGpt/sr/AOhCuXHf7tU9H+R6+Qf8jXDf44/+lI5H4JXUd3r+peFLhj5Gv6dJbqvUeco3If0rsv2R1kh8da9aTKVlgtRG4PUFXwf5V4X4f1mXRde07WIXKSWVykw29cA8j8s19A6I174f+JXjjVPC9qlxdalosWo6XCSMO0uOBnrg5OK+HwXvOD/lf4M/cuJU6ca9PpVivTmjJJ/g19x6B+0vpMGpfDK6neaOOawcXMW99u4jgj34Neb/ALIem291rmr69JIgkt4lt4Y93zfNyTj9K4DxD4W+MviO5a61zTdVv5HOcPOuxfooOAKpWHw/+Ken3AuNP0LU7SYciSG4VT+hrapUlLEqt7N6Hn4TBUaOT1MA8ZC8ne99Ftdb9bH0V+1g+34SSN/0/wAH9a8l/Z4uALjXef4Iv51Y8faj46n/AGfr6z8dwSJd2+qW628sxXfLHz1x1x61hfs9THzdcOf4Yv512YeXPmVOVrafozxMVh/YcJ4ujzKVprVap6w2Pb2uRjrVSafJxmqZmNMZye9fX2PxqNKw6Z81DmgmkpmyVhaM0lFA7Elsf9Ij+tePfse+b/wtX4lfYdv9o+S/2fOOvmH1r2G2/wBfH/vV8rfBDx5D4B/aWur3UJfL0u+vZrO8J6KrtgMfocVxY3ZHo5d8Uj9ANI+3/wBl2v8AaQRb3yx5wTpu9v0qt4qOuDw7fHw0ts2riL/RBc/6st71HoyX8El/c6jqEM1pNIJbVg4KxxEcHPpWnG6SxrJFIsiOMqyHII9RXnHrJ2ZwHwVurFtBmuL15l8SXFw66xJdgCRrhTgpnoFH8K+nSu41c3f9mTixDG62/u9uM5/HiuU8SaLcad4sh8R6dardWF8Vt9bsyQAR/Bcrnoy9D6qT6Vt6xc6laajZXUMlrH4ft43l1Gd5ACEC8EZ/hGM5FJJrcqTi9Uj5d/aBy37Xfw6+1BPtxis/tIH97zGxX0ZJ99vrXxXqHjdfiB+2BpHiGBy9mdYggs8j/lijYX8+T+Nfakn3z9a9HB/Cz5jPP4kfQSiiius8UKKKKBBR3oo70Abvhc3IinECwsNwzvYjtWxm/wD+eVp/32f8KxvC7XCwziKBZBuGSXxjitnzb3/nyj/7/CvKr/xGfZZb/usBQdQ/55Wn/fZ/wpc6h/zytf8Avs/4Unm3v/PnH/3+o829/wCfSP8A7/CsTtAnUP8Anla/99n/AApCdQH/ACztf+/h/wAKPNvf+fOP/v8ACjzb3/nzj/7/AAoA8n8R7j4hvy4AfzjnHSqGav8AiQsfEN+XUKxmORnOKz69yn8KPnKnxv1FyKM0lFURYX8aM0lFAWPDfj//AMjfZ/8AXkP/AENq739iL/kdPEH/AGD0/wDRlcF8f/8Akb7P/ryH/obV3v7EX/I6eIP+wen/AKMrx8R/FZ7+F/hRPrKiiisTcyR/yM5/64f1qL8aW4l8nxEW27v3OMZq59h/6anP+7QBSq7pn/LT8P60fYe/m/8AjtJ/x5dP3m/8MY//AF0AXR0x1o4/Gqf27/pkf++v/rUG+4x5X/j3/wBagClRV37D/wBNT/3zR9h/6a/+O0AGmf8ALT8P61cHtVLP2P8A6ab/AMMY/wD10v27/pkf++v/AK1AFzjpWMau/bv+mX/j3/1qBY/9NT/3zQBSq7pn/LT8P60fYf8Apr/47Rn7EP8Anpv/AAxj/wDXQBc79qPrVP7d/wBMj/31/wDWo+3f9Mv/AB7/AOtQBSoq6LH/AKa/+O//AF6PsP8A01/8doApgZ60Vc+w/wDTY/8AfP8A9eigC7mjP50tJ+lAFPU/+Wf4/wBKpGrmp/8ALPr3/pVOgA4xWx3rGra/i9aAEFVNU/5Z/j/Srg6cZqlqfSP8f6UAU6PyoooA2eKO/wBf0o/WgcdqAKep8+X+P9KpVc1L/ln+P9Kp0AFbPHtWNW1QAlZXib/kHv8A7jf0rW6Vk+J/+Qe/+439KADwt/yDT/vmtasnwt/yDT/vmtagBr/dP0r81dT/AOQpef8AXzJ/6Ea/SpvumvzV1P8A5Cl5/wBfEn/oRoA+hfhL/wAk70j/AK5N/wChtXVZrlfhMcfDzSP+uTf+htXUZr3KXwL0Pnqv8SXqLmjNJRVmY6gHBzTc0E0AU/E7O9vBcL92PKt7Z71w3iXSItXC3MUggvoh8kvZh/davRsjaQwDKRggjg1mTaTpBfcxlhB7I3H61x18O5S5kd2GxUaUOWXQ8tu9R1KC2On6/prXcAPDYJ6dwwrOjuPDwYGHSLiZ+yPIWGfpXs8WiaCww93eY9MjFTp4c8OdRd3QPttrmeHmbPM6C3v9x5LDZaxrmyK4RdN09OkYXaSPZf6mux06CK3gh06wh2rkJGg6sT/M11f/AAjfh4nm+vT9WFbGjWeiaOxns4S0+MCWQ5YfT0qo4aTeplUzWml7ibfodJYJ/Z2k2tq5G+GFVb696xtYv95Kqar32pGXIBOKy5HLHk16MY2PEpYduTnPcV2JY03NJ+NFUdg7NBNNzRQAuayPGumyax4T1HToBmaWEmMerDkD9K1s0ySQIM5xipqQVSDg9mb4avPD1oVobxaa+TufJ8rNG7RSoyOhKsp6gjqD7128vxO1CXwxpmiyaLpM8un25t47+ZGafZkkDIYDj8a9K8U+D/C/iK6a7vLdoLpjl5rdsFz6kdCawf8AhVXhbP8AyEdRH/fNfHvI8XSk/ZtNep+0LjzJMbThLFwkpLW1m7P1XQ8mfWtSd2Y390pJzhZ2AH05pBrGpf8AQRu/+/7f4160fhT4WH/MR1L8loHwp8LEcajqJ+m2sv7Dxr7fedi49yFd/wDwA8in1K7uE2T3dxKgOdrysw+vNez/AAC0u4tNAu9VnRlS+kCwg9Si/wAX507Svht4QsLhZ5Rc3xU5CTsAv4gda72CWPYscaqkaqFRF4AA6AV6mV5PUoVfbVnqtlufJcXcaYbMcG8Hgovlk022rba2S+4sk0ZpoORS19GfmIZpabS0ALmkzRSZpjHxvskVvQ18QfHfw3eeGviXqsNwjCG6mNzbSY4dH5GD7dK+3axfGPhXQPF2ljT/ABBp6XUS58txxJFn+63aufEUfaxstzow1f2MrvZnjHwC/aVl8P6Cvgzx4s95o/lmK2v4xuntlIxtYHh1HbuK+ptN+IfgXxF4YMXhTxvo1vJ5SrB5lwsLoB22tjBr5yuv2dvAe4uupazEvUL8hx+dV0/Z68CNIANX1nnpgR1wfVKiPR+u0j6P8Y/Ef4d6P4Te28SeM9JZ2hCTLbzCd2YeirnNfJ/7Qf7Rl54y0n/hEPCK3Fh4eCiOeeU4nvAOzY+6vtXcR/s0/DoqC2t65nHPEdaGnfsw/Dnz1eTUtbuEU5KFkXP4il9WqMwea4ddX9x4d+yd4WvPEPxf02+jhY2WkP8AbLmXHyrt+6M+pPavu5iCSfWsXwd4X0Dwhoq6R4c02KxtAdzBeXkb+8zdSa2a7aNL2cbM8DH4tYmpzJaIM0ZpKK2OIXNLmm0tABmiikoA2vDN00TywLE0rSYYAEDp9a3ftFz/AM+Eg/7aCuIBZWDoxVgcgjqK0R4hv4UAZo3wP4hzXHXw8pS5onuYDM4Uqfs6nQ6f7Rcf8+En/fxaPPuD/wAuEv8A38WuPk8Z3KHBW39uKgufHF4kLNFHbFgM4IrD6rUPRWaYdu139x2xnuM/8eEn/fwU2W8khjaWWzdI0GWYyDAFedJ8RNXY4+z2f1wao6z4i1TWI/LupgsP/POMYU/X1q44Oo3rsaSx1NLQp6ldC81K5uwCBNKXGfSq+aM0Zr1ErKx5Dd3cXNJmjPvSUCFzS02lpgeHfH7/AJG60/68h/6G1d5+xF/yOev/APYPT/0ZXBfH3/kb7T/ryH/oRrvv2Iv+R08Qf9g9P/RleLiP4rPew38KJ9ZUUUVibmDqH/IfP/XEVuY55/lWFqH/ACHz/wBcRW7xQAbRVPUv+Wf41cGfXNU9TJzH+P8ASgCkfrRRRQBs49f5UECjj8aPxoAp6nj939T/AEqmauaof9WenX+lUqACtnFY1bPHegBcDvVHU/8Aln07/wBKu9+tU9TJ/d9uv9KAKZpKM0UAbOKXApOPag/XFAAeOmKKXJ9KKAMaiiigC7pn/LT8P61c/wAmqemf8tPw/rVzvQAdjWNkVsdvxrH70AA6Vd0v/lp+H9apCrumf8tO/T+tAFz6UZ5o+lHegDGooNFAF3TP+Wn4f1q4cVT0z/lp36f1q5x04oAWsWtmsagAp03/ACCr7/rn/jTaWf8A5BV9/wBc/wDGgB/hb/kHH/fNatZXhb/kHH/fNa1ADW+6a/NbU/8AkKXn/XxJ/wChGv0pb7pr81dT/wCQpef9fEn/AKGaAPoP4T/8k90j/rk3/obV1Fcv8J/+SeaR/wBcm/8AQ2rqa92kvcXoeBV+OXqJRS8UVpYzEpwBoUZqRRRYaREwOKTT0R5pg8CTHCgbiPl9TgkZHr3FWGQYqrcWyv2qZRurFR913Izp+nQuh+0/a2cPhVfCMdpPB68GieCwAeT50QFNkaSjJztBOfbJqI2MfQLSfYY/7orH2T7lucf5S5DpVuvzvNO8SyKqzK4AlyOeO2KiXdDdSwh96o2AQ2R+dMaBnjSJ3do0+6pPAqWKMIMCrhBxerIm4taIkJNJS0VrYiwYpdtFFAWDbSU7pScUBYbTIwjX1us2PLMi789MZ5qQimSIHBBpNDWjGXR0i78xFiKOJxH5q4jGOTnHPA4qJdOsEik3OzkxN5TGQYkO3O8emD2NI1nGx5Wm/YYuy1j7J9zb2i6oR7G1t9U05NxMUk22RXcMGQdH46A+hq3e2FnPKr+X5UgG1oVZUON3+sOCRgDtnJqt9hj/ALtIbFP7oodN9w9ouxLDp2nxuMubhSh8pjKAJjjO4Dtg9jSzxWqsJLQMv7xkZCwPQDkVD9hjz93mrNvaqvQYpqm073JlUTVrE8akipFjJ7VYt7ckYArRgs84+WtLnHOqomUIT6UjQkdq31ssdqbJZe1LmMliEc6yEHpTCOa2Li0IzxWdNFtzxTubxqKRBSGlIPSkqrGqIoVSS5KuEZvLYxI5wrOB8oNEFms+w3MMEd3u3GGBwpbgfL6A0TRB+CKtaJpsUt0cpnAzWU4N7McqihB3RJa2NtHeQl5neEsd8pcYT/ZI6nHr7Vq6chineJGLRqfkbP3h2NC6TEOdoq7bWywjCjAFZRg09zzatWM1ZIs9qKSjNa2OWwtGaSiiw7C0UlGaLCsLmjNJRRYdhap6pu+zNtJzg9Kt0yVA64PNJgjD1K1sp3meNlRlKL5YbBLAZ+Unsaprp9m4jiaRlOWMn7wE5wP3f4ZPPtWzLpcTnJTJpg0iH+4Ky9m+52rExX2Tm7ixtYLNZ7eZ3bzdrb2GSM9gKfGTtGTmpL6zSC9cBcYNIOK6IRaWp28ykk0FFBoqrAFFFHFOwBRR+FHFFgPD/j5/yN1p/wBeQ/8AQmrvf2Iv+Rz1/wD7B6f+jK4L4+/8jdaf9eQ/9Cau9/Yi/wCRz1//ALB6f+jK8TEfxZHu4f8AhRPrOiiisTYyf+ZmP/XCoqmH/IzH/rh/WoaACrumf8tPw/rVKrumD/WD6f1oAuAZFJ+FL2IIo+nFAGNRS0lAFzTOfM/D+tXR7VT0z/lpx6f1q6OMjGaAG9O1Y9bP04rGNABVzTP+Wn4f1qpVzTP+Wn4f1oAuDrxR07d6XoelJx9KAMaj+dLSUAH4fpRRjPWigC79hH/PX/x3/wCvR9i/6af+O/8A16uH8qDQBT/48v8Appv/AAxj/wDXR9uyB+6/8e/+tRqXSP8AH+lUqALv27A/1Xf+9R9h/wCmv/jtUq2e2KAKf2HpiT/x2g/6H/003/hjH/66ufrVPU/+Wf4/0oAPt2f+WX/j3/1qPt/byv8Ax6qWOKKALv2H/pr/AOO//Xo+w/8ATT/x3/69XAMHpR3+tAFM/wChf9NN/wCGMf8A66Pt/wD0y/8AHv8A61Gp/wDLPj1/pVKgC79v5/1X/j1H2Hj/AFv/AI7/APXqlWyBz0oAp/Yv+mn6f/Xqrqw+y6ZcL9/zIyPTGP8A9da3rjmsrxL/AMg9/wDcb+lAC+Fv+Qcf981rVk+Fv+Qaf981rUAI/wB01+amp/8AIUvP+vmT/wBDNfpW/wB01+aup/8AIUvP+vmT/wBCNAH0D8KP+Se6R/1yb/0Nq6jNct8KP+SfaT/1yb/0Nq6evfpL93H0PBq/G/UcTQOTSUA81diLEydalXrUCGp05FOxSHYprCplTNDJxmpBtFJxyaZ3qzJGeTUDKRzTIuhuaXNNoosMdnmnDpUY604HFAIdiikzRmgdhaKbnFLmiwC0zNLmmnrQIWjNJRRYBaKSiiwD15NW7ZNzfjVSL71a2npnFJ6GNV2RoWVvnBxWrFAABxUdmgAHFXlGBWLZ5FWbbGCIY6U1oganyaTrSMeZmdc24IPFYt9BjPFdPKoIrJ1CIYPFVFnVRqO5zEylahJq7dphjVFq1R60HdAeec1reHG/0ogelY9X9Dk8u9TnrxRJaE1leDOpNJgUh60ZrM8gWikzRmgBaKTNGaAFopM0E0ALRSZpQDQAUU8ISelOERPagLkVA65qbyT6UyRCoY9gKQJnKaw2b6T61SzU9+S9y7ds1W71sloezTVoodmjNNpaLFi0maKT8KLAOopKTNFgPEvj2c+LbT/ryH/oTV337EX/ACOev/8AYPT/ANGVwPx6/wCRttP+vMf+hNXffsRf8jp4g/7B6f8AoyvDxH8WR7eH/hRPrOiiisTYxbiXyfERbbu/c461c+wf9Nf/AB3/AOvWfqH/ACHz/wBcRW7360AUvsH/AE1/8d/+vQR9i/6ab/wxj/8AXV6qWp9Yz9f6UAJ9u9Iv/Hv/AK1H20f88v8Ax6qZooAufYP+mv8A47/9ej7B383/AMd/+vV0/rS0AUSPsWP+Wm/8MY//AF0C+/6Zf+Pf/WpdTz+7/H+lUqALn24f88v/AB7/AOtR9g/6a/8Ajv8A9eqdbJ/KgCl9g4/1v/jv/wBegj7EP+em/wDDGP8A9dXuapap/wAs/wAf6UAJ9u/6Zf8Aj3/1qPt3PMX/AI9/9aqdHWgC59g/6a/+O/8A16PsH/TX/wAd/wDr1dJ4o5oApfYPSXH/AAH/AOvRV7n2ooASjn1rF70ZoAu6kf8AV8+v9Kp1c0wf6zt0/rVz8aAMb9a2e9ArGoA2ap6p1j5PeqVXdNP+s/D+tAFOgdK2Dnjnj1ooAX8aT8qxu9FAF3U/+WfPr/SqdXNNJ/eY9v61coAx62fxpOc1jUAbQ9jWV4m/5B79fuN/Sov6Us3/ACCr3/rn/jQA/wALf8g0/wC+a16yfC3/ACDj/vmtagBH+6a/NTU/+Qpef9fEn/oZr9K2+6a/NTU/+Qpef9fEn/oZoA+gPhT/AMk+0n/rk3/obV09cv8ACk/8W+0kf9Mm/wDQ2rqK+gpfw4+h4VT436hRRmgGtLE2JE7VbgFU4uorSs1yfxqWZzlyosxRZA4qf7PlelT20Yxk1ow2FzKgaK2lcHuFrKU0tzilVlJ2irmFLbcE4qhcQkdq62TSb8rxZTf981n3Wi6oc7dPnP0Wkqse5pTVX+V/cctKMVGa2p9B1rkjSro/RKyrq2uLWXy7q3lgY9BIpGa1jOL2Z2KMktURClpucGlzV2AWikzRmkOwtFJRkUBYWkNBIpM+tAhaSmvIiDLuq59TUZurb/nun507M6KeExFVc0INryTZNRUP2q2/57p+dH2q2x/rk/Oixp/Z2L/59S+5luH71bOmdRWDBPE7AJKhPoDWxp8m1uTiokjz8XRqU/dnFp+asdRafdFW884rOspAR1q+pyKxZ4NRWY6ikzRnmpMxG+6azr/oavysADzWTqEoIPNUjeitTCvsbjWa3U1dvHyxqix5reKPap6RuxKkgk8uZWHY1Hk5xSbsVp7Kb6GLx2F2dSP3o7S3fzYEkHIIp9YmhahEkZhnlVR/CSa1FvrJjhbqIk/7VZOlNdGeTPE4dSsqi+9E9LQORkEEeooxWZotdUFJS4oxQMKSlxRQAAZNWIoiTTbdMnpWhEgA6VLZLdhkcIGKmEYHQU7jvUscE7ruSGRgehAqHJLcmMZT+FXK5QVXvYwIHx1IxWj9ku/+faT8qr3NneucLaSkfSkpx7mioVv5X9xxV/ZEFmxWRMm04rv7nSb6RT/ocp/CuW1uxmtpdssLxnsGXFbwqJ6XPRoymvjTRi0UNw2KM1tudYUv40maM0WHYKKM0meaLCPE/jz/AMjZaf8AXmP/AEJq7/8AYi/5HPxB/wBg9P8A0ZXAfHn/AJGy0/68x/6E1d/+xF/yOev/APYPT/0ZXhYn+LI9rD/w4n1nRRRWBsYOof8AIfP/AFxFb1ZQ/wCRmP8A1wqLFAGz271T1P8A5Z49/wClUqu6b/y0/D+tAFKitn8aPzoAKPWsaigC7qf/ACzx7/0qlV3TP+Wn4f1q5j35oAxq2RR+dY1AG1VHU8fu/wAf6VTq7pn/AC0/D+tAFKg1sgds0e3NAAKXvWLRQBs8dx+lFYwooATvRV37D/02/wDHf/r0fYef9b/47QAaaM+Z+H9auHr6mqePsX/TTf8AhjH/AOuk+29/K/8AHqAL2PU1jfjVw3w/54/+Pf8A1qT7CP8Anr/47/8AXoAp1d03/lp+H9aPsP8A01/8d/8Ar0EfYun7zf8AhjH/AOugC7Sc4qn9u6Yi/wDHv/rUfbu3lfr/APWoAp0lXfsP/TX/AMd/+vR9h4/1n/jv/wBegA0z/lp+H9auY/z61TIFn/003/hjH/66T7d/0y/8eoAu4PrWNV033P8Aqv8Ax6j7Dx/rf/Hf/r0AUwKJv+QVe/8AXP8AoaufYf8Apof++f8A69VdVH2TTbgZ3+YhHpjH/wCugB3hb/kHH/fNa1ZPhb/kGn/fNa1ACP8AdNfmpqf/ACFLz/r4k/8AQjX6Vv8AdNfmpqn/ACFLz/r4k/8AQjQB798Kj/xb/Sf+uTf+htXT5Nct8Kz/AMW/0n/rk3/obV0+a+ior93H0PEqL336i59qUHmmk0oNaWIsTwcsK1bH+tY8bYYVoWkgzUSWhhVV0dv4RsormaS4mAMcABwema3rHXdNu75rG3nzKhwVxgVl+AtsumXavjaZMN9MVT8O2Ggx+J55LS+Etz/cxivmMzljXiIqhFOKfveSPcyqOEpYf97K0nt5s62R7wSERwROg6FpCD/Km+bf/wDPtB/3+P8AhSyzXCSlUszIo6N5oGfwxTftF3/0Dz/3+H+FaHSKZdQ/59oR/wBtj/hVLWLGXVrJ7S7sbd1YYDebyp9QcVc8+7/6B5/7/D/Cj7Rd5z/Z5z2/fD/ChNp3Qmk9GeJXsElnez2cv34XKH8KiBrR8XFj4p1IsmxjMcrnOKzBxX0kHzRTZ4kklJokBoNR5pScVVhDqCRTd1JmiwDs0yeURQvIf4RmlzVTV2xp8p9hVRjdpHVgKMa+Kp05bSkk/mzMLzXVwqqHllkbCIoyST2AroW0jRtFA/4Sa7lmvCM/2fZkbkz03v2+lQ6I48P+F28RhVOo3jm307cP9Wo+/J9fSsPSITqeu2tpLM4a8uFSSUnLfMeW+taOk53tpFfeftHtedSjTfJShppo3be3ZLy1bOg/t7w4mEh8HWxjH8Utwxc/lQg8H6sfLha50K7Y/J5j+ZAT6E9RXott8NfCOmIZNRmefjkzzbV/Kua+K1n4ag8J2k3h+GzCLeeU8kGD/CeCe9cEKtGpNRp82vX/AIc8ilmmGq1Yww/Om3bmu7fc20cRq+m3uj332W+i8uQDcjqcq69mU9xWx4ev2mgKyHLIcE+oqPw1ONf0qbwxeMXnijafTJW5KMoyY/oRWb4adt04IwRgEH1rulB2lGW6/q5zcUKOKy2oqyXtKbTv5N2uvJ9u539jdDjmteGcYHNcZbXBXHNaUF7jHNccoH4zWwzb0OoWUeopHlHqKxFvuOtNkvuOtTynL9XZpXNwAOCKxL+4yTzUdzeZ6GsyecsTVxgdtHD23GzyZaqM043lQeB1qwWye9V/C9tDqWtym8bbY2atcXR9UX+H8TXqYFQjz1JfZR4nFFOvWpUsNSdueWvyXXy6s1dM0wS2I1PVLoafp5OEcjMkv+4vf61MdX8N2x22mhSXY/56XUxyfwHSuY1zXZtY1E3cvyRgbYIh92JB0AFW/CFsNR1MzT2puNPtMPeYfbtQ9/eu+ph5Km6uIk15J2S8ul2fHUacVVWHwVNO+nNKKk3563UV10V7bs2xqvhm7+S70aaxzx5trLnHvg9ar6vpZtLRdRsrhb/TWO3z0HKH0cdjVDxzpn9g64YYjus7hfOtHHQoe34Zqp4c15tJvwzjzbKf93dwH7siHgnHqOtKnQbpKth22nrZu9/1THWoxdeWGxsFGSduaKSafRtKya+V7bM3fDOpul6tm75il4UH+Fvaur46Zrhruy/sjxxbWUb77eSRJbd/70bcj/Cu4Iwa8vMIwco1IbSVz6LIoVqNKdCrvCVg70ZpKK889wcDSgZNMp6UAXrNO9WxUFr90VYFZMwluX9EtlmmaWQZWPoPetW/vrTT4la4lCbjtRQMlj6AVS0J1js7iVjhUJZj7AV4b4t8YX194nuL1JisSKYoEzwqnvSwmX1MwrSjHaJ71LH4fLcLCU95HuR1yI5ObeMeks4B/Kqv/CW6aJFjkmWDecI7HKsfQEV81eINcvfshPnvmR8E7qwjrmpG1e2W5cI/BGc9PSvjuMMbXyfFxwlCzdk2359Drw+fYSpHmkfXkXiCyJ+aZCoOGYHp9RVvVNPtdVsXt51V1dflcdR6EV4d8NNUfxD4c33RP2u1fyJj/fH8LfiK9j8GPIdGWORixiYqpPp2r5zhviuvjcdLA4mKU0rpry/4B9LVw9Cpho4ii7xkeQapbvaX09tJ96KQofwqtmtnxr/yM+of9djWJnmv1+m7xTPlbWbQ7NGabmg1dgsLS0mRRRYDxT47/wDI2Wn/AF5j/wBCavQP2Iv+Rz1//sHp/wCjK8++O/8AyNlp/wBeY/8AQmr0H9iL/kc9f/7B6f8AoyvAxP8AFkexh/4aPrOiiisDYyh/yMx/64f1qKi4l8nxEW25/c464q79h/6a/wDjv/16AKVXdM/5aZ9v60fYf+mv/jv/ANeg/wChf9NN/wCGMf8A66ALntRVP7d/0y/8eo+3/wDTL/x7/wCtQBSoq6LHn/W/+O//AF6PsH/TX/x3/wCvQAaZ/wAtPw/rVw+1Uz/oX/TTf+GMf/ro+3f9Mv8Ax6gC7WL2q6L/AP6Zf+PUfYef9b/47/8AXoApVd0z/lp+H9aPsHfzf/Hf/r0H/Qu/mb/wxj/9dAFw8Dij+lU/t3/TL/x6j7f/ANMv/HqAKVFXTY/9Nf8Ax3/69H2D/pr/AOO//XoApUVdFj/01/8AHaKALZ6cdqPoKOPSl/AUAUtS6R8ev9KpVd1L/ln07/0qnQAlbI6Vj1sd6ADpVPU/+Wf4/wBKu1S1TqnTv/SgCl2o/OloFAGwBz3o/wAil7+9HQ+9AFLU+fL69/6VSq7qf/LPkd/6VT96AExWyB9ax+9bP+RQAnTNZXiX/kHv/uN/StYcdxWT4n/5B79PuN/SgBfC3/INP++a1qyfC3/INP8AvmtagBH+6a/NTVP+Qpef9fEn/oRr9K3+6a/NTVP+Qpef9fEn/oRoA97+FZ/4oDSf+uR/9DaunyK5f4V/8iBpP/XNv/Q2rpiRX0VH+HH0PGqL32PyKQmmg0uRitSLD1YVPDJgYqqGpytx1osKUbnpnw123Gj38T52vIFOD6rUHhrwfY6d4ouNRjv1lkY5Masc8UfCYebo2pJuKkzAZHbKmp/D2gXdp4kmupL7zEznZ5gP6V87jcZiMPXcKMbqTtL0N5YeM1Rk4c3K9+x1Mt0I5WU21w+O6JkGk+2j/n0vP+/dOlvYYpWjcS7h12xkimf2hb+lx/36asj1g+2j/n0vP+/dBvR1+yXf/fuj+0YMdLj/AL9Ggajb56XH/fo0AeP+LX3+KtSfay5mJww5FZYPFafi51k8ValIucNMSMjBrLBr6Ol8EfQ8aoveYuaMikJoyK0sRYdkUmRSAikzzRYLDs1R15saROe+P61dyKz/ABGf+JNcfQfzrbDrmqxXmjuy3TGUn/eX5kvj1/JsfDNsnESaTHIPQs3U1m+Cn/4rPRR1zfRf+hCrWvOdW8AaPq8RLyaXmwuwP4Fz8jH2rp/hZ4AW/ttL8WT6wkaRTicQIAQAh6Mex4rvnOlhsG/auzvKPz1/4c/Sfr1OjhJRm/5l89TjvGd3cz+KNVW4uZ5gl3Iqq8hIADHjHSriyL/wqk7NuBrODj/cNVoLrQ3+I91NrpMmlNeys5TJB+bgnHVa6P4p654Nk8N2mi+EjAVW68+QQIQo4Iyc96cqck6NGNN68rvbTz1CWJa9jRjF/Zd+miOX8I3MkPi3SZYyQwu0AwfXg1rlVi8V6/CmAiXbAD2zWZ8OLZZ/EqalcELZaUjXlxIeFG0fKufc0vh+8e/1PU72T708plPtk/4VWNo+/NrpFX9W9Dg4hq+0w9Xyiv8A0q6N1XxzUqzH1qtmgtXj2PzZwLouDSNcH1qoG9qC3tSsL2aJ3lJHWmZz0qNfmNXLaHcRxVKNx8thsELMwzWPp9x5PgXxfKhw/wBqigYj+6Tk11VugDqMVwfg2ZdUuvFfhFnUS6kjvaZOMzRnIX6kV6mEpWpzn0i4t+ilr/meTmdL2koR6vmS9XGyHeGtJTW7e4k/tqy0+SJgqQzEl5iem0DrzxXf6ho9rpvhSLwiut6bpt/Kon1Ce4fBbP8AAMc//Wry34e6jpukatda3rLiKfTIyba3K5aS4JwFwfTnntWHruuXOt6xdarflTcXMhZh1Cjso9hXqV8vxOMxTip2hGz2W/l3tv6ng4VYfCYe/s05yunq/h6+l9tOh7ZPY2ur+EE8M3GuWOo6nYKJbG4tSXJToVI68A/yrz7xTpkWiNBHHrVlqZmDbvs5OYiOzehrmfDGvy6FrlrqlszoYn/eiPhnjP3l/EVs/EWTRL/xbbv4QXzIdUijcQoDuWZjggj17mlhsBXwWJVOU26bTleytfqn27oeLhRxuH5/ZpTVo7u9unr218jqtaui9j4FvSSJ5LdkLd8K/FdVZ6ypwlwvP94V594wvIofGvh/w3byiSLRoI7aQj/nsTucfhxXSOMV4+Npfu6bfVNr0cm1+B7WBw0XKonvdK/mopP8TsI5YpRmORSPSn1xaTSRnKOR+NWYtYu4+N+7615bps6JYGX2WdXTkODXMjXp8cqhpf7euM8Ko/Cp5GR9TqHbWrcCrBdV6muO0/V55CA78VuwzeYud2aylBo5atCUNzobUPceHNUjizvaN1XHrtr5tuVeQKSpDgbW+or6Z8Ic2dxkZ/ef0rzL4m+Eo9De+11VJ0wgzSADmJu4+hrvyLHww+InTl9q1vU4uIsnxONweHrYbVxumvVnkt/Zvc2xjA5BytVNG03THuJDq961rFFgskYy5z2FMl8dactwBHZu8efvA9KzluINSnkuoiXEjZZSOVNc3GeR0MVWhiZq02ra7NL/AIc+08L/AA3nmOIqzzhNU4JWV92+/kkvvPWvButeBtDFwLC5vEacAsJ8EMRXtfgTUdO1Tw9Df6ZOs0MpJJHVT3U+4r5IggjRQQmW9a92/Zotbi00rVUOfsssqSop/hYg5/PAr4rC8N4LB1njIW9o1bTsfq/EXC2BynLr4RuKi1ZdNd/8yl41bPijUR/02NYtavjFv+Kr1Mf9NzWTmvt6S9xeh+RSXvMdkUZFNyKMirsTYdkUmR600n0pQfWgLHi3x2/5Gy0/68x/6E1eg/sRf8jnr/8A2D0/9GV578dcf8JXa/8AXmP/AEJq9C/Yi/5HPX/+wen/AKMr5/FfxZHr0P4aPrOiiisDUwdQ/wCQ+f8AriK3eawtQ/5D/wD2xH863fegBeapannMf4/0q5njrVPU/wDlnj3/AKUAUqPeiigDZ5paT3NGetAFPU8/u/x/pVKrup/8s8c9f6VSoAK2c+lY1bNABzVPVP8Aln+P9Ku1S1PH7vHPX+lAFKjrRRQBs5o5o6j2pc80AH4UUnHc/rRQBi9+tLSc5o4oAu6YP9Zj2/rVz24qnpvPmfhVw/nQADrWNWzjtxWN6dKACrumn/Wfh/WqVXdN/wCWnTt/WgC4c8dKO2KD0ozx6UAY3eijFFAF3TTjzOPT+tXP1qnpn/LTn0q5igArG/z0rZ5FY2KAFFE//IKvv+uf+NGKJ/8AkFXv/XP+hoAk8L/8g4/75rWrJ8L/APIOP++a1qAEf7pr81dT/wCQpe/9fEn/AKEa/Sp/umvzU1P/AJCl5/18Sf8AoRoA94+F3/Ig6V/1zP8A6E1dOATXNfCtS3gPSv8Ark3/AKG1dlBb+1fSUF+7j6I8etJRk/UqiMntT/JOOhrRSACpPKFa2OV1jHMZA6YpuCOta7wAjpVSeDHaixcaqZ2fwinVrXVLESBJiVkU98EEZq34c8P61Z+J57y6uHNuSCAen4V57p9/daTqCXlnIY5U/Jh6H2ruLP4nWflgX2mTLKOvlOCD+debiKVWMpOmrqR7GExip03DudxLfW0MrRSS7WHUYPFN/tOy/wCfg/8AfJrkB8T9Ixgafej8qP8AhaGkf8+F7/47XB9Vrfyl+2h3Ov8A7Tsv+fg/98mganZcZuSPwNch/wALQ0nH/Hhe/pWL4j+IVxqVs9pp1u1nG4w8jNlyPQelVDB1pO1rEyrwSvc5/wAS3KXniLULqI5jknJU+oqhmmqaXNe7GPKkjzXq7i5NKM03PtRmqsKw7mkpAaKLBYXNUtdjaXSLlEBJ25AHtV2ml8c4H41dOTpzU10NaNR0qkZro0zkvCfiA6JeyNLALvT7uPyr21bpInt6MO1bV34c1CSxkvPBOo3OqaPIdzW0MpE8OeqvH3+tUNT8PwzTNNaTiAsclGGVz7VWs9E1SyuRc2WqLazDo8TFT+lfSzxGFqv21Oooye6ktH6+fZo+0/tXC1P3kZpPqmvz/wA0Zcltewv5Uljdxv02NCwP8q29D8Ia9qamd7U6bYLzLeXv7qNB689fwrci1/x/FF5a+KQQOMsisfzIrF1iz8Raw4fVdea8xyFkclR9B0pvMJT93nhHzvJ/hZfmaf2zTentIr73+g/xFrWm22kf8Ix4bd30/eHvLxxh7yQfyQdhR4KRvIuZ8HazBV98VTg8NkuPtF6gTPIjHJFdNaJDb26QQLtjQYUVyY3E4aGHdCi+ZvVv9Ty80zOhLDuhRd23qyfNFJkUZrwbHy1hc0c0maM0WCxYgXLYrTgXArPs+taaEba3poUiWM4YH0NeCeIJrzRfGd40Mj293bXZmhcHlTnKmveK5fxx4P0/xKEmeY2l9Gu1LhVzuHow717GVYylhqrVVe7JWZw4zDOtFcu6OYuINN+IzHUdJnttN8Vso+16dM4SK9Yf8tImPRj3Fchq2keINJuGt9U0XUbWRePngYg/Qjg1ty/C7V9+I9YsCAcqSGU//WrptGsPinpUIgsvHaCIDCrKTIAPQbga9WOMp4ZcuHqxlHopXuvJNJ3Xk1p3OOWDVbWpFp91bX5HBaLofiPWrhYNK0PULlz/ABeSVRfcseAK6uN9L+HEck73VtqnjFkKRRwtvt9OyMFmP8UlaGt6R8T9agMOoeO45Im4aNGMasPcLiubj+FuqowEusaeiE8lVYmiWMpYnTE1YqHWMb6+raWnklr3COD9lrTi2+76eiM/wQbjUPGVkSzyyGYzzSHknHJY17DJzWJ4R8NWHhy3dbeRri5l4luHGCR6AdhW1IeOteJm+MhiqydNe6lZHdgsM6ELPdkL4qM09zjJqJjz9a8do7Ugpc00c0ZpWCxZtpijA5roNMvxgBjXLZwamhnKc5xUyjcwrUVNHsHga5jljuIgfmDBvwo+J2lX2s+DL+x07m5ZNyJ/fx/D+NeaaX4gn0+6S4hfDr19GHoa7S0+JViYh9pspVk7+WwINeXUo1aVZVaavZp/cd+X4hUIRjLRxPki90+5h1F7a40xoZlbDI8ZUg9wRXqvg/4UatFoUeqC1laG7+cQlcSRe+O4NevzeOPDMs4uJtIaSZejtGpYfjUrfE3R1AH2K69sYr0eIsxq51ho0FScGtbp3fy8j6unxZXpSUqTS76bnm9p8P74XCKul3M7kjCldij/AHmPQV7H4H0BfDukfZmkV5pG8yZhwoPoPYVgN8UtIz/x4Xp/AVg+JviLcanavaafbmzhcYeRny5HoPSvlsBk1ei/fk5ev+RhmnEdfMIKNWWi6GB4juUu/EWoXURBjknbaR6VQzTEdccYxTs19ZGPKkj5R6u4uaM0lGaqwrC0UmaM0WCx4z8c/wDka7X/AK8x/wChtXoX7EX/ACOniD/sHp/6Mrzz45nPim1/68x/6Ea9D/Yi/wCRz1//ALB6f+jK+dxX8aR6lH+Gj6zooorA1Mr/AJmY/wDXCoqlH/IzH/rh/WoqADvVzTP+Wn4f1qnV3S/+Wn4f1oAufjR260dOKPegDGo5oooAu6Z/y0/D+tXOcVT0z/lp+H9audKAD8axa26xe1ABzV3TP+Wn4f1qlV3TP+Wn4f1oAuAHHWj8aDxzS0AYtHOKKPegAFFLRQBb+wH/AJ6j/vmgWIz/AK7/AMd/+vVw9KKAKf8Ax5f9NN/4Yx/+uk+3d/K/8e/+tS6l/wAs/wAf6VS/GgC79u/6Z/8Aj1H2H/pr/wCO1SrZ7UAU/sP/AE2/8d/+vQf9C/6ab/wxj/8AXVzpVPU/+Wf4/wBKAD7d/wBM/wDx6j7fx/qv/HqpdqKALv2H/pr+lH2Hj/Xf+O//AF6uD60d6AKZ/wBC7+Zv/DGP/wBdH27/AKZf+Pf/AFqTUv8Aln+P9Kp0AXTf8/6r/wAe/wDrUfYeP9b+lUq2R9aAKf2IY/13/jtVdWH2XTLhc7/MjI9MY/8A11rdO9ZXiX/kHv8A7jf0oAXwt/yDj/vmtasnwt/yDT/vmtagBH+6a/NTVP8AkKXn/XxJ/wChGv0rf7pr81NU/wCQpef9fEn/AKEaAPoP4Qx58AaUcf8ALM/+htXcRqAorj/g6P8Ai3ekf9cm/wDQ2rsq+mor93H0R85iJXqS9Qz60uaSlrQ5wzTJFDD2p1J1PFA7mRfRb7iKPJAkcKSOwJqO/wBCZ5mFlOESNnVzJIGA2kAcjuc9O1X7+PcMjgg5BHY1hSRzxuxSaRdzEn5upPUmsqkJt3i7HoUJpxsx50W5STyWv4PP6eWFJycFsZ6dBSHR7kswS6iDBfMZDklEyRuz3PB4qDy5w28XEu4d9xz6UBLgOH+0Shhxncc9c1PJU7nRePYu/wBgXMqo9peRtG6rsaTKliRk8dhUP9nSw2kl0LuO4WOUxsEU8EHB6+9MY3js7NdzFnxuJbrjpRGJxCYTK5iZtxTPBNEYVO4Pl7E0Z+UVJkVGvA4pa6LGVh2aM02iiwWHA0ZptFFgsOJpioZrmKBTy7BetLTHBBDKxVhyCD0NJrTQaQt1ZRy2cUlkJ1lb7/mPuH3ivAH0zSLoV60xiF3CXjUPMvPyKQcH36dKhjFzC26K4lQ4Iyrdj1pFW4V94uJQ/dt2c46Vh7Optc0vHsN1PTbuwtGuHuIpdrbWEeSBnpzV1tMt3SMwzzqoB8yRhn5tuQpXqpqnIs8kJhkndoydxQngmnu12+wNdzEIPky3TjFJ06jW4XiPXRroiRvtsH7khZchhtc4wo9eo56VJdWM+nTJFNIkhcZyh6Y61WdbmVVSS5ldVG0AselSjzHfdM7OwGMsauEZ31Yna2hMDxS5ptFbGdh2aMim0d6LBYu2bAEVqIeKxLd8N1rVt5AV5ramxSRYqsYnubyO3UkBj8x9FHJNWAar3EZcMASNww2D1HpVTTcdBLRlW80q6S4dEuF+ZyIFYEl1ABzkcDg1Wnt5re7t43ufMhllMTPGhyrL14PWr2LsWqWqzOIUYkLn9PpUdzBcXNz9onmdpAcoc42n29K5lTrbNmjlEdLY70Z7ad1+75QY7lfJwTkdMelQppl3N5TR3kRSbmLIILLjJPPTFSSJcsxd7mXccZOfQ8frVO5M5mErXEpcHIO7oenFQ6dVdR3j2HlJLa6e2kZXZO4PB96ez1Vj3bi7EsxOST608tkda1je2pFtRWbJ9qZkUhPGKSkwsOzRmm0CiwWHZpGPFJQenNFgSHWtqk0cLyCZ3uJmhjWJgNhAzk56k9hUQ0e8Fus8l2kSAkPuRsqR7d6RGuYS32a4kh3ddpx+P196jb7W8flvdTMn90tXPKFRvRmi5eqLC6HfOz7L6BkQlC/IG/OMc9veqdqkZs45rlLqV55XhQW+DsKjqfX6elOVblSxFxLznPzZzmkt0ngjeOCeSNHHzBTgGj2c+4e72J5dEvYYxJc3sEaqgaQ8krnoMd+oqT+wrljiK9QlEzKWBADEkAD1HHWqjRzlFRp5CoG0AntTgLkHi5l6Edc8GlyVe47x7E0tu9ndtaySpLIijeU6A+nvUmahjVtxZ2LMepJyTUtbxVlqZtDs0E02iqsKw7NGabQaLBY8b+OJ/wCKptf+vQf+hGvRP2Iv+Rz1/wD7B6f+jK86+OH/ACNFr/15j/0I16L+xF/yOev/APYPT/0ZXzmL/jSPTo/Aj6zooornNDFuJfJ8Rltu79zjrVz7D/01/wDHaz9Q/wCQ+f8AriK3c0AU/sH/AE1/8doP+hf9NN/4Yx/+urlU9T6x/j/SgA+3f9Mv/Hv/AK1H27j/AFX/AI9/9aqVFAFz7Dz/AK3/AMdpfsH/AE1/8dq5n0o9qAKZ/wBC/wCmm/8ADGP/ANdH27/pl/49/wDWo1T/AJZ/j/SqVAF37d/0y/8AHv8A61J9h5/1o/75qn9K2c+lAFP7B/01/wDHaP8Ajy/6ab/wxj/9dXKp6p/yz/H+lAB9u/6Zf+Pf/Wo+3f8ATL/x7/61UqKALpsef9b/AOO//Xo+wf8ATX/x2rmaKAKf2H/pr/47/wDXoq70ooAbwaX8Kxe9LQBc1P8A5Z/j/SqdXNM/5aY9v61c9sUAY1bPf0oFY1AG1+FUtU/5Z/j/AEqlV3TSP3n4f1oAp0CtgnpxzR2/xoAXnNJ+FY3eigC9qef3f4/0qlVzTSB5n4f1q52oAx62ec+9JWNQBtAeorK8Tf8AIPfj+Bv6VEPwp03/ACCr3/rn/jQA/wALf8g0/wC+a1qyfC3/ACDj/vmtagBH+6a/NTU/+Qpef9fEn/oRr9Km+6a/NXU/+Qpef9fEn/oRoA+jPg9/yTrSP+ubf+htXX5rjfg8R/wrzSB/0yb/ANDaux7V9PQX7qPoj5yurVJeo7NGabRWtjIXNLTaM0WCxFcfdNZFzjdWndvhTzWRM2WNCR14eIzNLTRzRjnrTsdNh1ApBijIosFhc0ZptHFFgsOzRmm/jR+NFgsOzRmmg0UWCw7NGab260DFFgsOzzmik4ozRYLC59qM+1NxQaLBYdnmjNNo/GiwWHZozTT6UUWCwtLmkFJ+NFgsPDYOatW1xtGDVKlDYprQLG5FMrAZNS7gR1rEimIxzU63WOtbKZPKamVprSKB2rPN3moZLknvQ5oXKW7m45IrPllyTTWck9aYeeaybuWojs0Z4pvHrQPrU2Cw7NGabxRRYLDs0ZpooosFh2aM54ptAPNFgsO9qDSUU7BYUUfWkoosFhRSZxRmjiiwWFzRmkzScUrBYdmjNNoosFhaXNNH1o79adgseO/G/wD5Gi1/69B/6Ea9F/Yi/wCRz1//ALB6f+jK85+Nv/I0Wv8A16D/ANCNejfsRf8AI6eIP+wen/oyvmsX/GkehS+BH1nRRRXMaGBqH/IwH/riK3u+ayv+ZmP/AFwqOgDaqlqf/LP8f6VS9quaZ/y0x7f1oAp0Vs8j0ox9KAD3paxaKALup/8ALP8AH+lUquaZ/wAtMe39au84oAxq2f6UflWL0oA26pan/wAs/wAf6VSq7pnHmfh/WgClRWyM+1H5UAHXilzWLR70AbX40Vi4+lFACd+lGKu/Yf8App/47/8AXo+w8/63/wAd/wDr0AGm5/eY9v61cNUxmy/29/4Yx/8ArpPt3OfK/wDHv/rUAXcGsb8Kum+/6Z/+Pf8A1qPsJ/568/7v/wBegClV3Tf+Wn4f1o+w/wDTb/x3/wCvQf8AQv8Appv/AAxj/wDXQBc7Uds1T+3dMxf+Pf8A1qPt3H+p/wDHv/rUAU+aSrv2H/pr/wCO/wD16PsPHM3/AI7QAaZ/y0/D+tXMVTI+xej7/wAMY/8A10fbj/zz/wDHv/rUAXOfSsbmrpvuf9V/49/9aj7Dx/rf/Hf/AK9AFMUTf8gq9/65/wCNXPsPH+u/8d/+vVTV1+yaZcDO/wAyMj0xj/8AXQA/wt/yDj/vmtasjwp/yDD/AL5rXoAR/umvzU1T/kKXn/XxJ/6Ga/St/umvzU1T/kKXn/XxJ/6EaAPfvhHME8B6Uv8A0zb/ANCNdvHIDXnPwxkK+B9MA/55n/0I119vdkcEmvqaH8KPojxcTSvJtG3uGOtGaopdA96kNyvrWpxuDLRPFRyShRyarPdKBkGqNxdlsgGg0hSbZLeThjxmqDNk9aa8hY9elRlgOpxTsd1OFkShqXfxUJdcfeFAdMfeFFi7E27im7qj3j1FKG7gg0BYkDUFuKYW9DSbs9aBD93pS5FRk8UZyOOtICTdxRnPNR5oD0wJM0ZFR7uaN3fNAEmaM1EXx1IH1pDMmfvD86LDJgaM5qHzk/vr+dHmp/fH50WETbqN1RCRSeGH50buvNFhk27ik3VHu9+KARRYRJmlBqINzgnilUigCTNJmm7qM80WEOzx1pd5qLPNBYYzSsMl3mkLc1D5qg4LjP1o86P++Pzp2AlzS5qHzY/74/OjzF7MvPvRYCYmjNR5GeD9KN3vRYZJupQ3OKi3ds0bjxzzSES7s0maj3UbqdgJd1AYCot1Ab86QE26k3etRFu1Lup2Ak3c0bqi3YHNG6iwEufekz61Hu4680u4Y5osA/NKDios+9GfU0AS7hSbqj3UFj60gJN1Gaj3UZGeaAPIvjYf+Kotsf8APoP/AEI16P8AsRf8jnr/AP2D0/8ARlebfGnnxPbf9eo/9CNek/sRf8jnr/8A2D0/9GV81jP48jvp/Aj6zooormLMof8AIzH/AK4f1qKi4l8nxGW27v3IHXFXPsP/AE1/8d/+vQBTq7pf/LT8P60fYP8Apr/47/8AXo/48v8Ab3/hjH/66ALvtzScVT+3c/6r/wAeo+3cf6r/AMe/+tQBSoq79h5/1v8A47/9ej7D/wBNf/Hf/r0AGmf8tB9P61d6VSP+hf8ATTf+GMf/AK6Dff8ATL/x6gC7WL2q79u/6Zf+Pf8A1qT7D/01/wDHf/r0AU6u6YeZPw/rR9g/6a/+O/8A16D/AKF/003/AIYx/wDroAu9KKpfbuP9V/49R9u/6Zf+PUAUqKumx/6a/wDjtJ9g/wCmv/jv/wBegCpRVz7B/wBNf/Hf/r0UAWz9c0fTFB+vWj86AKep/wDLP8f6VSq7qX/LMfX+lU+1ACVs9qxq2e/FABVPU/8Aln+P9KuVT1P/AJZ8ev8ASgClRS0g6UAbI/Cj8qB1oFAFPU/+Wf41Sq7qf/LPj1/pVPigBO9bI/Csetjv0oAOmf8ACsnxN/yDpP8Acb+lawHqKyvE/GnScfwN/SgA8Kf8gz/gZrXrH8J/8gz/AIGa2KAEf7pr81NU/wCQpef9fMn/AKEa/St/umvzV1P/AJCl5/18Sf8AoRoA9o+G7EeCdNHpGf8A0I10XmEd65j4dN/xRemj/pmf/QjXQbq+rw/8KPovyPPn8TLInIHWn/am9ap7u+aN3FakcqLLTse9MLk1BuyPSl3Y4oHY1NDsW1K88osUiQZkYdceldhbaZpkChUtYzxjLDJNc94NkC2ty3cuB+ldbpenalqSNJZQb0U4LE4Ga/LuJMxxlbMJYak3aOll6Jt6HzePxFariXRp3duiIfsdh/z5wf8AfAo+x2H/AD6Qf98CtP8A4RrXv+fZP+/go/4RvXv+fZP++xXg+zzHtP8AE5vY43+SX4mZ9jsP+fSD/vgVm6roVlcQs1sognA+Xb0b2Iq5cPJbzPDMhSRDhlPY0z7Rz1PrUUM0xmFqKcKjTXm/xOaONq0pXTd0cOyspZWGGU4I9DTS34Vo6nCGv52AOC5NUXjI7V+2Yer7alCp/Mk/vVz6+nWU4p9yMtRu96a/HWoy3NbG6ZLvo31EH5o3UATbsnrT7aKa6uYra3QySzOERR3JqsG5ro/hmqy+OdNVhnDsR9QpqKsuSDl2Kirux6f4Y8AaLp1tG97At9eEfO0vKg+gHpUmtSeDtKfyZdOs5Z/+eUcQZh9fSj4h+I20m2WxtJNl3OpJcc+VH3avI7nVjvKwsc7ss5bJLeue+a8/AZdWxv7ybdj5riHiZZdL2FBJy6vt5W6s75tc0HzAF8LWmD0BC5NaOl6n4OunWO50e1s3b7vmRDafxryT7Y2QxY5HTnpUd14ij0yJfPYymUhI4V5eX/ZHt6mvTxWT0aVJzk7JdbnzOVcT5zi8VGjSj7SUto2Xz2tZeey9D3fUvB/hrUrba2nQR7hlZIBtI9wRXjnjDQ7jw7rT2EjmSIjfBKR99f8AEV2Xwy8UT20lvp2oyh4Lk7UYfdhkPOwE9R2zTfj2AsmkyY+Yl1z+FeRQjWw+IVKb0fc/RcJjaWOoucLXTs7O+vk+q7Pqeb7qTdUe/ikL5r1zQl3Y5p2+oA1Lv6igGTB/ejeeag3djS7u3emIlZvU13vgTwlp8+lprviEv9nkbEEA4DD+8a86mfETfSvc9RcWvgPTSoAVIo+3HSvNzGtKnBKLtc3oxTepIZfANvPFZPFpkU8g/dRSKA7j1APWrHl+DcZFlYY9o1ryPx3o+ga/Nb6rrLTk2EZWMW7FGwT69a5G0fwHbakl5AdRLRTLOqNeNsBBO35fTOeK8qjhsTXV6cWwr43DYeSjVkk2fSVjp/ha9dlttMs3KjLfuQMVYn8NeHpY2R9IsyCMHEYFeW+GvixoFnPcS3SzMZAABCoYk5+tetaffRX1hb3sAIjuI1kTdwcH1pVqGIoWdRNDw+Mw2JbVKSbR5Z8SvBcOiW41TSd/2MsFmiJz5eehB9K4Ld717748VZfBurB1BAtmbHuK+fEb5B9K9jLq0qlL3ugq0VF6E26l3VDv70bhXeYk26k3VHuFNDcdaAJ9xo3GoS49aN1AE27mjfmod9Jvx1p2C5Nu7Uu6od+aA3vRYLk26gmot3rSbuKQEu7j1o3VEGoDetAybPWjdUO7FG8UCJdxpd3eod1G/FAHlXxk58S23/XqP/QjXpX7EX/I56//ANg9P/RleZ/GE58SW/8A16j/ANCNemfsRf8AI56//wBg9P8A0ZXzGM/jyO+n8KPrOiiiuYswdQ/5GA/9cRW7WDqB/wCKg/7Yit8daAEqnqfWP8f6Vdqlqf8Ayzz7/wBKAKVFFFAGzwO1FA60tAFLU/8Aln+P9KpdKu6n/wAs8+/9KpUAFbPuBWNWz6UAFU9U/wCWf45/SrtUtT/5Z59/6UAUqKKKANnjrRmjtS0AJwOKKXmigDE70tJ370fjQBd0z/lp+H9audu9U9M48zHt/WrhPegA61jVs/Ssb86ACrum/wDLT8P61Sq5pv8Ay049P60AXs9OtAPHekPTmjIx60AY9JRRQBd03/lp+H9audqp6b/y049P61c5oAM1j1sfhWNQAopLr/kD3/8A1y/xoouf+QPff9cv6GgB/hL/AJBZ/wB81sVjeEP+QWf+uhrZoAa33TX5q6n/AMhS9/6+JP8A0I1+lb/dNfmrqf8AyFLz/r4k/wDQjQB698PTjwbp3/XM/wDoRrf3DHNc34Cf/ikNPBP8B/8AQjW4X96+rw6/dR9F+R5037zJ91BaoN/vRvz3raxNycOKcrcVW3VIjZoA6Dw9N5dtMM4y4/lXs3w2lt5tAL2yMiiUg7jyW7mvCrGUxIR0ya9n+DL+Z4Uc5BP2l6/Mak/+Mgrx/rZHgZbW/wCFqpDy/wAjuMUm2nA0ma90+yOGtvD8Wr+KdRvLuTNvDOEEQ/iIHf2rnvHjx295bRxqsagygBRjo1adt4xs9D8Z6rpuoKVgluAyzjkKSOh9q5r4lXcb3tpJFKsiN5pUqwII3cV8hj3h/qdT2fxX1735j4jMquG+o1XStzc3vd78xlyRiT58fe5qrPb8Grtmd1nEeuVokXPbFfquXf7nS/wx/JF4au/Zx9EYNzEVPTiqUnymtq7TqcVj3IwTXYevRq8xDu54oD8dahZucmm7+T2pWOq5YL+ldP8ACo58e6aM93/9BNcgXOOtdT8Jn/4uBpg93/8AQTWOJ/gy9GVD4kT/ABM1dpfFGrOZQGjl8hBkhgF447dc1xf2zHet34u272fi7WoXO3dMLhMtgFXGeB3Oc1gfD/Qrrxd4gTTonMVpF+8vZzwIox1/E19Nl3saWBVWTtFJfkj8zzHLquIx0o2u23+ZV1/V59K0uG+a0maO4YrBIVxGzDrz/Ss/w6lw0ravqbmW7lGIwf8AlmvsO1em/Fbx14ZOiDwX4dsLW9tIAI3uHTKRkf3PVv8AarysXhKjDV5+DyvFZji1jMXpTXwQ8/5n59j6uvmWDyjJZZXltO1eppVq9XH+SPZP7Vt13vp2ej6gVMigkMoDIQMkYOevYV6F8Yrz7bovhu7JOZoyx+u2vHdDfzd7bQ7NhIwcjJJx8pHBOT0r1z4xWxsNB8M2jfeiiKn67ayzynCGKp231/I5uFaE6UKl9rL8zz7cO9LvHTNVy3qaNxrksfUFgvzTd2Tiod/vRv8AegCwHx3pC3PHSq+4+tKHx1oC5NI37th7V614xur+38O6V/Z9qb2b7JFsty+1T0ySfYZryNVLqR7V6v4t1Ox0rS9JuL+4EEZtI0DEZyce1fA+IsprKH7NXd1prrqu2p7GQwdTFqMVdnIalda1PpN+b6witbceYF7sVGNjE++W/KvPE0K1urqNUjleZ9qKqt94g5A/M11Ft9ou4tYv4tS+1WioyvhidxPTg9MVufDnTLa11S21XV4QQhDQIx4T/bYd/YV6PAlGnluCxEYVY1dYv3b6Nxvyu7buuup8ZxTPF4vHUo1KUqL1TUt7KW+nfocFY6HC2oQ2ML+RK0hAMrYVGXPX8zXs+leM9T0/S47FbfR5VsoVQuLsjdjA49/auC+JdhaRahJqenRiKCeZt8e7I3kk7l9j6VpaRovhef4ePfzm3+1+U7tKZcOsgPAC/wCc1x8XZ/UoYiEdeXTRLZvc4cnpYiFWpGElzJN3b3S+R3j+JLjXPB/iBbiC2jMVoWVoJd4YEd/Q148r/KOa6b4Xt/xQni/P/PAfyrkVb5a9zh+bqYbmfVn0eGrzr4eFSW7/AMyxuFG7vUG80bz6mvdsbE+73pd3NV95o30WC5OX/wBqkLD1qHdzik3c8GiwFjfxSbzUIfB4NAY5560AT7j9aUU1AScVbgty2OKVyJTUSHnHTNGGxyK0Y7MkdMU5rJu44qeZGX1iJlkkU0mr01qQOFqlLGVOaaZpGqpDdwo3ionJpm7mqsaFndSbx61B5lIHGOaLAeafFw58RW5/6dh/6Ea9P/Yi/wCRz1//ALB6f+jK8t+Kxz4gtz/07D/0I16l+xF/yOev/wDYPT/0ZXy+M/jy9TvpfAj6zooormNDGJ/4qvH/AE70lMY/8Vko/wCnen0AHtVzTP8Alp+H9ap1d0z/AJafh/WgC5z6UYpaTFAGNRRRQBc0z/lp+H9au/hVPTP+Wn4f1q70oATHtWLW3isWgAq5pnHmfh/WqdXdM6yfh/WgC4M+lH4UvSkxQBjUUUUAGKKWigC39h/6a/8AjtH2Dn/W/wDjtXDnvRgigCmM2X/TTf8AhjH/AOuj7dz/AKr/AMeo1P8A5Z/j/SqX4UAXftx/55f+PUfYT/z1/wDHapGtntQBT+w/9NR/3zQf9CP9/f8AhjH/AOurlU9T/wCWf4/0oAPt3T91/wCPUfbuP9V/49VLtRQBd+w/9Nf/AB2j7Ccf60f98/8A16uDJo9c0AUzmy/29/4Yx/8Aro+3n/nl/wCPUan/AMs/x/pVKgC6b/n/AFX/AI9R9h4/1v8A47VLvWyM9MUAU/sJx/rf/Hf/AK9U9ZX7JpVyv3/MjI9MYrYH61keKP8AkGSf9c2/pQAeEOdKJ/6aGtmsXwd/yCf+BmtqgBH+6a/NTVP+Qne/9fEn/oZr9K3+6a/NTVP+Qpef9fEn/oRoA9T8CtjwnYD/AGD/AOhGtzfXP+CCR4VsfTYf/QjWwX719Zh/4UfRfkedP4mT76C/vUG7Io3VsSWEbmrETc1QDds1YhekyJPQuyylAuTwauaV4i1fSVddN1GW2VzllXkE1nSL50WA2GHINU2jnVsGJj9Oa/JOKctxlDMZ4qlF8s7Wa6aWtpsfned0cXh8bKvSvaXVX7baHV/8Jz4q/wCg5P8AkKP+E48VY51yfH0FcoI7k9IJD/wGnCC9P/LpN/3wa+d9pmH9/wDE8p5jmHWc/vZfmvJJpXlmkaSRzl2Y5JNMNwe7frVT7Nff8+c//fBrQ0vRry5lV7mMwQA/MW6t7AVOHyzG4qoqcKcm35P722c1OnXrSsou7Op0wkaZbZ67M1KTxTchQqKMKBhR6CmlsCv3zDUfY0YU/wCVJfcrH3dJckFHsivd4INYV6QCQK2bp+DWBfSZY4NbWPUwrKUrc5pm/mo5XqPcetSeqtiwGya6j4UTpH8QdLLnALsoz6lTXHhuRVmxuLm0vILu2bZNC4kjb0INZ1Y88HHuNSUWmz3H41eDLjXbFNX0hSdTtFKsg6zRHqo/2h1FeEa/rc9roH/CO+GIZLHT851A8i4uZicbXPUD2r6H8I/EjQtXs4hfXEen3wUCSOY4GfVT6Vn+MvDXw78Tzte3Gp2tnfn/AJerW4VHPpu7GufKs0eEcaWKi3GLuvJ+nXy7GOMwMa950nZvf+vzPlAyyIQhRlJOAAOvOOPxq5ZwXE5y4McYBZieDgHBxnjI9K9luvhLoDSjy/iHaCIAAb4ULAA567vWuj8N/D74dabOLnVPEUOszB94E86rHu9dgNfW1+LcJGF4Xb8k/wBbHjQyKblrsYHwM8Ey6nqEGuXlu0WlWb77fcpUXco4EgB6KP1NdF+0XKBJo0eRuy7Ee2K7fVPHHhLR7QFtWtGVFxHDAQxIHQACvBfHnie48U6/LqMiGKBR5dvFnOxB6+5r436xXx+L9vNWS2PoaWHp4Wj7OBkF+cmgP71Bu6Uhb1616JJZL9KAxxVbfS7+1AFjd9KFbnrVffxmlVyDxSA2dPUOORXoXxI8M6x4m8N6TDpVq0u2ONiT0wBXnOlS4cZr2T4feLbe30+PTdSk2In+ql7Aehr5/iDLnj8OqadrNPTyN8pzV5Zjo11a62vscf4F8G+JNB0vULe60wsblgAAu75e/wCNbJ0LWsY/su5x6ba9QTWNKKhhqFvj/roKRtb0hPvanaj6yCvHyTDTymFSMW5c75temiXT0OjPqsc9xP1qtJKVraHkmraBrhtg40a4kEZ3lREGZuOAoPHWueHhzxKbV5v7F1cOJAoj+zRcjGc9K93bxJoCE7tZsRj1mFQXHi3wxBE0kmvWCqoyf3wNaY3DPG1faSWp439iUf52eZWFjqGneCfElzfadLZRz2o2iWMIwbGCDjg+o+teWhuBk16H8WviFba9bf2Lors9juDTzkY8zHRV9q81L19DlOFeHoWZ0qnGlFU4u6RPv7ml3dqrl/ekLnrXqDLO/jPak31XDcUu/wBO1AFgt2pN59qr7+KN2KALAapoRk1TRvTnNaNgpZxxSZnOXKjQsbcuy4Fb1lY9OKi0q3BxxXR2sIUA1zzkeFisW72RVislAHFPayXb93NaaoAKXbWVzzfrUrnP3ViApwtYV/abQflruJoww7Vi6nbgg1cZM68Pi2nqzhrpCh4zVVmOP88Vs6pFtJPasOY4J7V0xdz6CjU51cXd70bqgL0buOao3PPPiic69B/17j/0I16t+xF/yOniD/sHp/6Mryf4mnOuQf8AXuP/AEI16x+xF/yOniD/ALB6f+jK+Wxv8eXqehS+BH1lRRRXMaHNXk/k+NYzjd/o/T861/sP/TX/AMdrn9Xb/iuYV9bf/Gut4/OgCn9g/wCmv/jtH/Hl/t7/AMMY/wD11cqnqnWP8f6UAH27n/Vf+Pf/AFqPt3H+q/8AHv8A61UqKALv2H/pr/47/wDXpPsH/TX/AMdq7wKKAKf/AB5f9NN/4Yx/+ug33/TL/wAe/wDrUap/yy/H+lUqALv27/pl/wCPf/WpPsP/AE0/8d/+vVOtk460AU/sHP8Arf8Ax2j/AI8u3mb/AMMY/wD11cqnqn/LP8f6UABvv+mX/j3/ANaj7d1/df8Aj3/1qpUUAXfsP/TT/wAd/wDr0n2D/pr/AOO1dOOtFAFP7B/01/8AHf8A69FXRRQA3HHHejA/yKxu9LQBc1LH7v8AH+lU8cVc0zgyfh/WrhPHJoAxq2aXrWNQBsd+ap6nj93+P9KpVd03/lpz6f1oAp0g6VtEjHWkB4oABij61j0lAF3U8fu/x/pVLirumf8ALTn0/rVztQBj1scUf56Vj0AbHXrWR4q40yTrny2/pSc0l3/yBr/r/qj/ACNAB4N/5BH/AG0NbdYngz/kEH/roa26AEf7pr81NT/5Cl5/18yf+hmv0rf7pr81NT/5Cl5/18yf+hmgD174fwQyeDdOZl+byznn/aNbEtlE33WINY3w/bHg7T/+uZ/9CNbpfivucNTToQ9F+R5FR+8yhNaSpyBuHtVRyVzkYrbL/X8DUFzbxTKeMN2xVyodhKXcyw/NSxydBUFzDJCxLdPWolk965nFp2ZV00aqzbR14rQltb+K3tpQqublQ8UaElyp6dsfrXP+blStaUOvXcdzaSOBLFawCGOFmIXgY3f71YVOf7Jk4LqaED6gg3G0nUB9hO3o3pWvafb2t5Jmkih8tgjxyPhwT0475rHfxRcyXsV79khW4iOFYMSNvcY6fjTn1m4nmklaJAXeNxk5xs6Csl7V9Dkq0YGv5up7C4tJzGOrBeKkjmnXZ58Uke8bk3dxVFNcvDL5gVFyytgE4+Xpx+NWbvVJtQaJplRPLBwFOck9/ataftebVaHFOlBLR6l0vlQaZJJtFUzcgLjNVJ7vHeusxjBtkl9cAA4rCvJskinXl3nPNZc0x9ag9XD0+Ue8npTQ9Vt/zVJE26pO65bjBOOKv2tsWwMVBYRFyK6bTrQYBxUSkcOIxPIVIrDK8oKkXRpZbWS5RIFjjJBLHGSBnFdBFbDaeKSMvaqwjgSQknliccjGCP4hXPUnK3unmRxqcveZyg0i8ljlcWJVI4xIxYYypOBj15qodIvWZgbB02DLFl4XvXY3NzdSLGv2OIIn8O44POagvr6+meM+RGipngMecqRz+BrKNSrfVHXDF0v5jhWRUHCgA+lRM23vWveWpjXGOlY0425ruTuj0KVZTQb6N/fNV2Y9KN3HFUbk5bk0u/jn9KrFzknNKXPHPSiwFjfQJKrb/U0BuaANO1uNjDrXRabc3ctlPdQKHjtyol55G44Bx3rjVf35q7p2s3Wnqfs20kypKS3fb/CR3B71nVjJr3dzCpQjU+I62a9v4PM320pCEqzKMrxyeaoXd1qEiufsc+E++dvC/Wqk/jLUJZEc28C7ZA+wZ2MoP3CPTmoH8XX7zPLNbxSGSPy2TcQpPJ3EdzXMoVeqMYYGlF3ILq01OSKac6dIEiCs+QAcMcA4981Sax1BfMLabOBEMyHZ90ds/wD1qvS+J7iQqHsIHAVVIZ2JbaQRk/hRc+Kr+W4hmS3iiMIwqhiQeMDPr0rROrbY74xhFWRWntr20ghnu4HhWYkR7+Ccd8fjUYcY60uo6o1/FDEbdIRG7yZDltzNjJ56DjpVUPgVvDma94Tt0LJcZ5oD1X380m/3qhFnzM5oD988VWDZpS/U9aLAWN9G8EVX38g5pA/PfmgC7G3IFbekjLLyK52J8MM9a3tGkAcc1MtjlxLtE7jSUAUGtyEfKKwdKkGwfStuN8j8K5ZHyWJm+YsZoJzUINOLVFjlchzgYqhfKCpzVtm71TvnAQ5qkjWlL3jktbXAbFcrdt85rqNck5PSuRvJMtmumB9VgZPlIi3XmjfmoGcc03fx9K0PSOI+JB3a1D/1wH8zXrf7EX/I6eIP+wen/oyvIfiCc6xCf+mA/ma9d/Yi/wCR08Qf9g9P/RlfLYz+PL1PRpfAj6zooormNDi9abHxBth623+Ndn39q47UHx8UbFfW1P8AJq2KANr3qlqf/LP8f6VSq5pn/LTv0/rQBTorZo/OgA70tYtFAF3U/wDln+P9KpVc0z/lp36f1q770AY1bPpij86xqANqqWp/8s+PX+lUqu6Z/wAtPw/rQBSorZHTpR15oAP50vtWLRQBs9eworG/OigBO9HNXfsI/wCe3/jv/wBej7Bz/rf/AB3/AOvQAaYceZ+H9auZ5qmD9i/6ab/wxj/9dH2//plx/vf/AFqALn0rGq79vP8Azy/8e/8ArUGy/wCmmf8AgP8A9egClVzTf+Wn4f1pfsP/AE0/8d/+vR/x5f7e/wDDGP8A9dAFw+veiqf27p+6/wDHv/rUfbhj/Vf+Pf8A1qAKXeirv2H/AKa/+O0fYeP9Z/47QAmm/wDLT8P61dqnzZer7/wxj/8AXR9v/wCmP/j3/wBagC5x/wDqrGq6b7n/AFX/AI9/9aj7Dx/rf/HaAKVNvDjRdQP/AEyP8jV8WPH+s/8AHf8A69UPEA+yaJeAHd5kTD0xj/8AXQAvgo50g/8AXQ1uVgeBTnRM/wDTRq36AEf7pr81NU/5Cl5/18yf+hGv0rf7pr81NU/5Cd5/18yf+hmgD1jwE2PCWn/9cz/6Ea3S/vXN+Bmx4UsfZD/6Ea299ff4RfuIei/I8ap8b9Sx5lAkwarhzQXJ9q3sZksoSVCrisa8haByD909DWpvP/1qjuEE0RU9e1Z1KXOioysYyyEdM08TYA+b8qrXAaKUqxxg1H5hHPrXA0aGik+Pap4rrBHzZrI8z0pRMQcUWJcEzoIr7A61ZXUMY5rmRPwBxThPx1OM00zCWHTOjfUD6iqk19kE7qx/tBHOaY024elNscaCReluSc81AZM96rNJnvTPMqTdJIslwRVq2YMwGeKzVfPfvV6yb5wOKTFN2R1Ojx5wa6yxQBRgVy2iNgiustCNq1hI+Zx1R8zLyAbTxRtBHQU3dRuqLHluQpRfSoLiNCDgCpt1RTEYPagqM2mc5q0Q2scVyWocOcdK7LWSMEVxerMA7Y4raB9DgKjZQaTn9Kbv9xUEj/NzTN/YVqj2kyzvHTNHmdgRVbeaQP1oC5bEnuKPM55PBqrv44o30BcteYKQSVW384NG/wB6ALPmZH9KN/pVbfkGgSdaALW4d+9JvXPOKrCQ4zRvGOvNAXLIcdqDKarGSjfz1oC5ZEmcc0u/nqKq78nrQH9KAuWS4z1oD4FVg/40M/60BcsiXNL5mD1qpv8AzoD0AXYpMPnFa+l3AVhz3rnRIR3xVu0uChBzSaMa0eaNj0zRroFV+aukt5gyj5q800jUNpA3c/Wur0/UQVGWrnlE+XxmHalodQHBHWl3CsuK9Qgc09rxMdeKzseW4SLskgCmsrUrkKp5qO71BVHLVzmralwfmqoxOzDUJSkU9autxYE1zFzLk9an1K73MR1rKlkyeDXTFWPqsLT5IkocDvSiT3qqX60b6o7LnJ+PDnVov+uI/ma9h/Yi/wCR08Qf9g9P/RleM+NTnU4/+uX9TXs37EX/ACOniD/sHp/6Mr5bG/7xP1PSo/Aj6yooorlNDhtVfHxb01fW2b/0Fq365fX5fJ+L+lNjP+jNx/wFq7T7D/01/wDHf/r0AU6u6Z/y0/D+tILH/pr/AOO//Xpf+PLp+83/AIYx/wDroAu0n41T+3c/6r/x7/61H27j/Vf+Pf8A1qAKXFFXfsP/AE1/8d/+vSfYf+mv/jv/ANegBdM/5afh/WrtUv8AjyP/AD03/hjH/wCug33/AEy/8e/+tQBdrF4xV37d/wBMv/Hv/rUn2H/pr/47/wDXoAp1d0z/AJafh/Wk+w/9Nf8Ax3/69L/x5f7e/wDDGP8A9dAF360VSN9/0y/8e/8ArUfbv+mX/j1AFKirv2H/AKa/+O0n2H/pr/47/wDXoAqUVc+w/wDTX/x3/wCvRQBcJ+gpORg0H+fvR+P60AU9T/5Z/j/SqX9Ku6l0j/H+lU8UAIa2c8ZrGrZoAP8APFU9T/5Z/j/SrmM1T1PHyc+v9KAKXailxSUAbIOccUdeOaBQBzQBT1P/AJZ/j/SqVXdSx+759f6VSx2oAO9bOe2Kx62PxoAB+PSsPxocaFcH0if+lbnWsDx4dvh27bP/ACwf+lADfh427w+D/wBNGro65f4Ztu8Mqf8Apo1dRQAj/dNfmpqn/ITvP+vmT/0M1+lb/dNfmpqf/IUvP+viT/0I0AemeCTjwvYj/YP/AKEa2g/GKwfBj/8AFM2Q/wBg/wDoRrY3jOa/Q8Gv9nh6L8jxKnxv1Jt+R6Um73qIt70u70rosQS7j+NG7iod/vRu4zRYCnrEeQJVHPesjfycnNb9yPMgdD6VzUh2yEGuDEw5Xc0g9CUvx1xS7vU1X3jHFG7jrXMVcn396Xfiq4koDg9aB3LG/wDGk31BvwaN9AiwH/KkD1AH6n0o30AWd1WrSXEi96zN+TUsMpU0EyV0dxolxyOa6+xmDIOa8y0q82EfNXXaXfggDdWUonz2Oou9zr1finbu9ZlvdqR1qcXAI61nY8SUWi2XqvcSgKee3rUMlyuODWXf36qpw1NIunTcmVtZuBg89q4zU59znnNaWsX24EBq5q6nDsTmtYo+mwNJxQ15Pm9Peml8moGftTXlABYk4Ayas9Usb/el3+9dBq3gfV9M+H9n41uLq1axuyoEKt+8UN90n1+lZWk6Jeano93qcEsKxWudwc8nHXFZxqwkrp+RbjJFQsKA/FVkkDKGB+lLvweTWhNyxv460b81X39weaA/uKAuWC9G7moN+PQUm/3oC5Y8zijfxzVffwQDRv4xQFyxv9qN1QqTx3p6j2oBaj93cHFG4+340bD6U1lI7U7DsOL0b+xqEnHak3mkIn3e/NIHqEvz14pA/GaBXLG/B5p6S478VU3880B6AZsW120eOcVtWeq7f4jxXILKR0NSx3BB6mk1c56tCMzv4dZwPvfrUj6zwfm6VwS3jY4anG+fu1TyHE8BG51l3q5PRqxbzUGcn5s1kPds3GahabPemopHTSwsYFqefd3qFnyPWq5fr3NIHOetUdi0LG73o38fWq+/3oL9TnFAXOb8YHOpR/8AXL+pr2j9iL/kc9f/AOwen/oyvFfFRzqCHr+7/rXtX7EX/I56/wD9g9P/AEZXy2N/3iXqepR/ho+s6KKK5TQ818Utj4w6QPW3b/0F69J/GvMfFp/4vRoo/wCndv8A0B69O70AFU9UPMf4/wBKu8VS1P8A5Z9e/wDSgClRRRQBs/jRR/KloApap/yzGfX+lUqu6n/yz/H+lUjQAVs/U1jVs+lABVPVP+Wf4/0q7xVLU/8Aln+P9KAKVFFFAG0frSZo7UvFAAKKT8D+dFAGLS0nejmgC7pnBk/D+tXO3aqemYHmd+lXO/rzQAvtWL71s9KxvxoAKu6b/wAtPw/rVKrmm9ZPw/rQBe/KkHTtR1GcUdPagDH/ACpKKKALumf8tOnarn5VS03nzPw/rV3NABn1xWP+VbHGeuKxqAFqj4obb4O1o56WzH9DV4Vm+LzjwTrh9LVv5GgBPhQ27wnGf+mrfzrra434Otu8GxN6yv8AzrsqAEf7pr81dT/5Cl5/18Sf+hGv0qf7pr81NT/5Cl5/18yf+hGgD07wRp2oTeFrGWG2Z0ZDggjn5jWz/ZOp/wDPm/5ir/wv/wCRD0r/AK5t/wChGulx7mvt8LiZKhBW6L8jx6kFzs4w6Tqf/Pm/5ikGkan/AM+r/mK7Q49TSY7ZOa3+tS7EciON/sjU/wDn0f8AMUn9kan/AM+jfmK7Pnpk0h/Gj63LsHIjjv7J1Mf8ur/mK56/0HV/tTFbGQjPUEV6iST3qCWPLZyaxrV5TVrFRikeXf2FrP8A0D5f0o/sLWSf+PCT8xXpnk98mmmL3rm5pF2R5odC1n/nxl/MUf2HrGf+QfJ+Yr0oxmkKehpc8gsjzc6HrBI/4l8n5ig6FrOf+PCX8xXo/l0bD6mlzy7BZHnB0PWef+JfL+Yo/sPWe1hJ+Yr0gJnuacIvfij2khaHmn9h60emnyfmKeuh611/s+X8xXpaRD1qZIBR7SRLkjzaHR9bRgRp8v5itexs9aTGbGX8xXcJB25qZLfHrUupJ9DlqqE9znbVNWUc2kg/EVdX+0wv/HpJ+YrbSKpPK461POzglg6UmczMuqEcWkh/EVlX0GsN92yk/MV3LRepNQvB70KbNKeFpQPL7vS9bkJ/0GU/iKovomtE/wDHhL+lesPb/WoXg96tVZdj0IOK2PKzoetZ/wCPGT9KRtD1nH/HhJ+Yr094Rmomj96ftJdjZNM85k07xLJZpYyJePaRnckDS5RT6hc4FMTSNeSJ4o7a4RJPvqr4DfUZr0YpTdpxxQm1sijzk6FrA/5cZPzFB0TWSf8Ajwf8xXopQ+tGz3o55BZHnX9h6z1+wSfmKP7D1j/nwk/MV6MU9zRsJxRzyCyPOf7D1j/nwk/MUf2HrB5NhJ+Yr0kRmpEgzRzyCyPM/wCwtZPSwl/MU5dC1n/nwk/MV6klqCBzU8dkSaXtJDsjyyLw/rPewk/MVdg8Pat0aykH5V0Oo+OPDem3zWjST3DIdrvCoKg/XvXUaNdWWq2CX2nzieB+AR1U+hHrXPRzKjWm6dOabXQ9fE5LjsFRjXxFGUYS2bWn9ep5/wD8I7quP+PKT8xUUvh7VecWUh/KvUTCfQ/nTGhz611+2Z59os8kn8P6v/z4SZ+oqs+g6wD/AMg+X8xXrklvmoHtvek6jM3BHk50LWe2ny/mKBoWs4/48JPzFeovb45qIw4JOaXPLsQ4o8z/ALC1n/nwk/MUf2HrJOPsEv5ivS/KGetKsf40e0kS7I8yGh6z0/s+X8xThoes/wDQPk/MV6YIuetSLFzil7SRLaPLxoetD/mHy/mKP7D1r/oHy/mK9R8oZoMK+pp+1l2FzI8u/sPWh/zD5fzFINC1rJ/0CTn3FeomEdjTWh4yDR7SXYLo8w/sHWR/zD5PzFH9h6z1+wSfmK9MaLnrTTHjuaOeRSseaf2HrH/PhJ+Ypf7D1j/nwk/MV6OYh6mm7OcZp88uxVkeG+MbW5tNTjjuoTG5iBCn0yea9m/Yi/5HTxB/2D0/9GV5n8YhjxJb/wDXqP8A0I16Z+xF/wAjnr//AGD0/wDRlfNYt3ryPSpfAj6zooormNDzLxEf+L7aAP8Ap3b/ANAkrs64rxGf+L8+Hx/07v8A+gSV2tABVzTP+Wmfb+tU/erumf8ALT8P60AXOOtBpe1HNAGLRRRQBc0zpJn2/rV33qnpn/LT8P61doASsatrmsWgAq7pn/LTPt/WqVXdM/5afh/WgC5waKUUc0AYoooo9qACilooAt/YP+mv/jtH2Dn/AFv/AI7/APXq5+FGT1oAp5+x/wDTTf8AhjH/AOuk+3Z/5Zcf71LqX/LP8f6VS4oAu/bvSH/x6g2P/TQ4/wB3/wCvVI1s+9AFP7D/ANNf/HaP+PL/AKab/wAMY/8A11czVPU/+Wf4/wBKAD7dn/ll/wCPUfbuOIv/AB6qXaigC79h/wCmn/jv/wBej7Dx/rT/AN8//Xq4CDijPvQBTJ+xf9NN/wCGMf8A66Pt/wD0y/8AHv8A61Gpn/V/j/SqVAF033byv/HqPsP/AE0/8d/+vVLvWzkYoAp/YeP9b/47/wDXrB+IQ+yeCNYXO/zLR+2MYH/166rn/IrlPisceBtVPpaSfyFAFT4Jtu8DQn/pq/8AOu4rgvgQ27wBAf8Apq/8672gBH+6a/NTVP8AkKXn/XxJ/wChGv0rf7pr81NU/wCQpef9fMn/AKEaAPdvhf8A8iFpX/XNv/QjXS5rmvhcf+KD0sf9M2/9CNdKelfX4ZfuYei/I8qp8TEJzR1pB3oArYgWg0GkOakZU1W9g0+1a5uD8o4AHVj6CuTuPFOou5MKQwr2BXcas/ECQ+fZw7vlCl8e+a5n2r5nMsxqQrOnB2SP2ngrhTL6uXQxeJpqcp331SV7bfI1/wDhJNW/56w/9+6T/hI9XB/1sX/fut/4bfDnUvG8E93b30FnawSeWzOCzFvYV6ZpPwF0SMBtU1a9um7iM7F/SuKOLxMldSf3noZjV4Uy+pKlVoxclulC/wClvxPFP+Ej1XGTLD/37q7pfiMvMsN9GqhjgSL0B967n47eCPDvhLQNMn0WyME0twY5JGcszjGec15EcYNH9o16UtZXNsJkeQ59gXUo4dQTuk0kmmuuh6MTwOc/SkqppbmTS7V2PJjGanBr6unPnipdz8IxVB4evOi94tr7nYlBxShsGos8UZqmjnLAapkkqorelPD9xUtGckX0kqVJDxjnPFZ6y+9XtGYNqUIPIDZxXPiaqoUZ1X9lN/cYVbQg5PodDZaQpjV7p23EfcXjH41a/sqy9H/76oM+TweSegrpdF8MXV0iz3sn2dG5CDlsf0r8rhmubY+q/Zzfy0SPEoSxWLnal/wDmjpNl6P/AN9Uh0iw7h/++q9CXwppirhjOx9d9UNS8I4Qtp9yd2OEkPB/GuucM7jG/tW/SR3zy3HwjdO/zOHn0SzdD5UkkbdiTkVzN/HLa3DQTLh1/Ij1rsboT2tw1vcIY5UPIP8AOua8Xupe2cfeIKk+1d3Ded4ueMWFxEnJO++6a1OXA4qbreymY7yVEzUwscetMDYr9Ese/FD2NNzTc+9ANOxQ7PtRmmk4pAaB3JAcmq19fLbfIoDSeh6CrC4BHvWFOHlvGQAs7vtUepJwBXfl+HhWqPn2R83xLmdbA4eKo/FJ2v2LH9q3Y/iQD6U5dZvf4XTj/ZFe3+A/hnoum6dFNrNnHf37qGk80ZSMkdAPb1rR17wL4FmIlvrC1s8fxRv5Wfy61hLPMvjUcFSuu6SPPp5Dns6CqyxPK30bf4s8DGvagOjRj/gFR6nr+rSaTeQxNGXeBlXC89O1ex6j8KPC+o2rPoV+9vJj5SsvmIfqK8h8UaBqfhvVW0/Uogr4yjrysi+oNd2Gr5fmEZUoK0mtmrP5Hm4l55ktWniatRyimnveLs72fqef+DodI/sjU2u7y0S8ktZkWO4Q5TC8FD03E12P7P8AFdfY9WlcEWrGMJnoXGc4/DFVNP8ADmi6lr1qLq0LCSUCRUYqGz9K9d0+ws9OtEsrC3jtreMYWNBgD3+tfB4fhivlmMjOpJNK9rXu79+x/QWY+KeX8SZRVpYWnNTqOPNzWtG2totb9lsRMlROtXmQ1A6e1fQJnwKqFGQcGq0g4q9KvWqc1WjVSKshGMVXkPGKmlNVpGGaoGzM8Sa3ZaBpb398x2g7Y41+9I3ZRXBL8RdXuJS0VtawRk/KvLEfjVT473bjVtItNx8tYWk2+rE4zXMeH4jdSAFisK/eb19hXh5hj5UZNXskenlmWzxtWNKlG8pHoNr4z1iU4xAzHssZNXX8U63Gm54lUephNZ+lXVrZxhLeNI8dTjk/U1cm1pXXBlU9sZFfOT4gr3929vU+9p+H8eX356+S0Ks/jnWY/uG1P/AKn0L4j775LTW4I4UlbalxHnCk9Nw9Peuc1v7Nc7niKRzY4I4z9a4rU5ch0bII4I9K9PB5tOrqnqujPmc74Yq5W17RXi9pL8n2Z9LM/PH+NNZ+axfB12934T0m5lYs8lqhJPU8YrVLA9K+rj7yTPkHGzsPLUwtTT1pCaqwIUmjNNJpAcU7DueT/GT/AJGS3/69R/6Ea9M/Yi/5HTxB/wBg9P8A0ZXmXxiOfEtv/wBeo/8AQjXpv7EX/I6eIP8AsHp/6Mr5nF/xpHp0fgR9ZUUUVzmh5X4rk8r48+H2xnFs3Gf9iSvRvsP/AE1/8d/+vXmfjL/kvGgf9ezf+gSV6zQBT+w/9Nf/AB2j/jy/6ab/AMMY/wD11cqnqnWP8f6UAH27n/Vf+PUfbuOYv/Hv/rVSooAu/Yf+mv8A47SfYf8Apr/47/8AXq735xRQBT/48j/z03/hjH/66Dff9Mv/AB7/AOtRqn/LP8f6VSoAu/bv+mX/AI9/9ak+w/8ATX/x2qdbJ98UAUvsP/TX/wAd/wDr0v8Ax5c58zf+GMVcqnqn/LP8f6UABvsj/Vf+Pf8A1qPt3/TL/wAe/wDrVSooAu/Yf+mv/jv/ANek+w9vN/8AHf8A69XjSUAU/sP/AE1/8doq6KKAGn6ZowaxqWgC5qQ/1frz/SqWKu6Z1k49P61d7cUAYtbPTg0cdBWNQBs49OKp6mP9Xz6/0qlV3Tf+WvHp/WgClQK2qB0oAQcGgDn+dY/4UlAF3Ux/q+fX+lUvarumf8tOPSrnpQBjVs9+vWl61jUAbHXpXJfFz5fAOrn/AKc5f5CtWsP4jHHw18Snjixf+RoAp/s/Nu+HNsf+mr/zr0KvN/2cm3fDO1P/AE1k/nXpFACP901+amqf8hS8/wCviT/0M1+lb/dNfmpqn/IUvP8Ar4k/9DNAHunww48B6X/1zb/0I10uciuY+GR/4oXS/wDrm3/oRrpAfWvr8M/3MPRfkeVP4mPFHApuc9KCc1qShxORSHgUDpzSNSKRyHj3nULT/rkf51zpFdF49/4/rQ/9Mj/OucdgoyxAr83zqvy46ovP9Ef0fwX/AMiLD+j/APSmen/Dvxhd+C/hdfanZWkVzNLqohVZGwq5HWszVvi947v9wj1GCxQ9oIhkfic1mwkP8F5ipznXB/6DWd4Y8La94llmTRNPa4EOPMckBVJ7Zrmlianuwh1RjSwGWOricXi4RuptXl2srb6G9reqanq/whtLrVb6a9nGuSKJJTkhdnT6VxB4B+leheMPDmreF/hNp9hrMSQ3MusPMEVt2FKYHNefEHHTtUYis4NKW9kejw/OjOlVlQtyc8rW2tpsdnov/IHtf+udWs4NVNG/5BNr/wBcxVlj0r9HwrvQg/Jfkfzpm3/Iwr/45f8ApTFJ5ozTSaMiug88eGp4aoc0ZoEThsVc0iXbfxN9f5Vm7uKltHCXCHPSvOzbTAVv8MvyOXG6Yeo/J/keqfDa0TUNceeUB47ZcgH+8eleobFrx74S6zFaeIpLKZ1UXabUJ/vjoK9gDHPavhuH+T6muXe7v/XoPhqdOWBTjvd39f8Ahh20Um0UvamliK9w+gOQ+JtijaQNSQAS27DLeqnivIvEUu9YOehNepfF/WIbTQV01XBnunHy55CA5JrxzUpd4j5zjNeJhuT/AFhpcu9nf1sz43Gzp/21CMN7a+tn+hXLe9NzTc0Zr9JPbHZopoNGeaBinmnCo84pymgRKnUZrKsrhbXXLa5YZSG5V2HsGrWj+8K5+44lkPox/nXq5VFTc4vqj4njGbhGhJdJP9D65WdZLAXUI3hovMQevGa+evDosfGPiu9bxlrktqMnykaTYCcn5QTwMDFe6eE7yG58JaddoQYzaqTjnoOf5V5za6T8P/iHf3kloJ9Ov0clwpCmT/aCng18xldRYf23MmunMldx1/U+gzylLGLDuEou+vI3ZS0X5CWngTV9E8R2V/4L1lbixLgTK84IVc85A4YYrp/jNocOq+DLm6KL9qsR50b45wPvD6EV5b4n0u7+HXiWyGj629xv+faGwQAQNrAcc17j4hhl1PwdeRINstxZtgHsSucVtjJ1aVWhiOfmT2laz31uc+XQoV8PisG6bg1vG/Mldacp8zeGsHX7DB4My/zr1Zl6815R4ZBXxBYKRgrOqt+BxXrRxXtZ471Yeh89wpLloVE/5v0IWGO1V5lq1JVeavHTPro1ChPjmqFxwOOa0LjBzWfccVojqhMozH1qpIc1ZnNU5D1FaI3TueOftAMR4h0sqefshx9d1dDP4fWDwdZJaxgXNpEJDgcvnlga534+tjxDpbf3bbP5PXoulXK3Gn2txGQVeJSPpjpXwfEs5KqrbX/yCrmeIyyrh8TQdnF3/wCA/JrQz/AGiaVJo48R+IVa6tpZTDZWKvs89l+87nrsHTA6mu2E/g1ti6j4T077Nxua3LLJGPUc84rntZsni8F2MulxvKmmTSi5gjGWjSQ7g+B1XPBrmLHULnV7qPT9NhmurmY7UjRDkn39BX0uSZTgMTl8ZzSd9/L/ACO/PeNcwx2OdejUlGGnKk7L8N33PaW8BeElYFdLtZ4nUPHIM/OpGQeteM/tNeFdL0KHSNX0ezS0SZnt7hUzhjjKn69a+hrWE2mmWFi8iyPaWqQs69CwHP614r+1teRDw3omnbh5st40oGeyrz/OvwPKMVVp8T+ww9VypqcktW1y6n2eKxNfEZenXk72T1fUk+Hx/wCKE0TPX7ItbtYPw9GfAmiH/p1Wt4Cv6TpL93H0R+fT+JjieKaSO1O28Um2tLEjTSe9KR6UlKwHk/xh/wCRktj/ANOo/wDQjXpn7EX/ACOev/8AYPT/ANGV5n8Yv+Rkt/8Ar1H/AKEa9M/Yi/5HPX/+wen/AKMr5nGfx5HqUfgR9Z0UUVzGh5L4y/5LxoH/AF7N/wCgSV6zjmvLPEv/ACcD4d/69n/9FyV3VAG1VLU/+Wf4/wBKpdu1XdM/5adun9aAKRorZooAP85paxaKALup/wDLP8f6VSNXdM6Sdun9aufjQBjVs/rR7isagDaxVLU/+Wf4/wBKpVd0z/lp+H9aAKVFbPXvR7igA7UuKxaKANk/U0VjflRQAnejNXfsH/TX/wAd/wDr0fYef9b/AOO0AGm4/eZ9v61cOP1qn/x5/wDTTf8AhjH/AOuj7dzxF/49/wDWoAuVjVd+3D/nl/49/wDWo+wj/nr/AOO0AUquab/y0/D+tL9hH/PX/wAd/wDr0cWR/wCem/8ADGP/ANdAFw4x/Sjiqf27p+6/8e/+tR9u4/1X/j3/ANagCl3oq79hH/PX/wAdo+wj/nt/47/9egA03/lp+H9aufhVPiyP/PTf+GMf/ro+3D/nl/49/wDWoAuY5/xrGq79tH/PL/x7/wCtR9h/6a/+O0AUxWB8Szj4Y+Jj/wBOD/yNdWLEf89f/Hf/AK9cp8XV+y/DHxEud/mWEgz0xgf/AF6AMz9mo7vhbaH/AKbSf+hV6ZXl/wCzEc/CizP/AE2k/wDQq9QoARvumvzU1T/kKXn/AF8yf+hmv0rf7pr81NU/5Cl5/wBfMn/oZoA9v+GZ/wCKG0z/AK5t/wChGulBzXMfDM/8URpn/XM/+hNXSA19fh/4MfRfkeVP4mSUq0zNKDWokPY00njFITzTSaljOc8YR+Zd27DnEZH613P7PmkeGru51CTVY7ebUEIEMU4BATuQD71zWsWhu4lKD54+R7isIwsjcbo2XgHkEfQ1+a56qmDzOVacbxlqu2x+ycP1aea5BHAwq8ko6O2+99uzPWf2hJNGg8NWOiaelrFM10JTDCAMADkkCuY+EXj608F2d3p+o2M01tPL5yyQgFlbAGD7cVxjR7m3O5dj1LEkmlEa+35V4lTM5Ov7WGnQ93DZDQhl31CvJzTd29nf8TrPi746j8a/Y7Sys5reztmMhaXG52Ix0HQVwJg4PHFaQjHSnxWrSvgLx3OKzdStjK2ivJ9j0cN9UybCckXywjd6s0NOBXT4F9EqftTVARQq/dAwKTNfr+HpunShB9El9yP50xtZV8TUqraUm/vdxelGaaxFJmtjnH5ozTM0hNAEmaN207vSmZpH5Ug1yY+i6+FqUo7yi196OfF0nVoTpx3aa/AmFyVIKsVYHKkHkGvX/h343lbQJrjxHLDDb22FiuXbDTY6jb3I9RXhkjPGdrZ+tNM5IGWJA6AngV+JYXF18srSUk09mnpr5n5rl+a18prydnfZp6K/n/XzPpGH4leD5I939qqnsyMD/KsPxF8WdJt42j0eCS9mI4dhtjHv6mvCfOHc/Sl87tmuypxLipRskl5npVuNcdOHLFRi+6/4Jv6trN5ql/LfX03mzyHk9lHoB2FVPN3++KzFlLHC5JNXIFKJ8x5PWu/hHDV8RmSxFnaN236q2/zMuHY1sTjlWd2ldt/h+pPmjIpmaM8V+un6KPB5opmaXNADqcOtRg08UhMni4cVg3PE7/7xrciPNZ+qWjpKZ0UtG3JwOhr1MpqxhVab3R8bxfhalbDQnBX5Xr8zv/g949t9Fh/sHWH2WTMWgnPSInqre1ddrPwx8N65dnVdLv5rF5jvLWzgqSe49K8Dx3xxVi01DULNNtpf3duvpFMyj9KvFZNJ1nXwtTkb37M8LA8SU44eOFx1L2kY7PZo948PfCjRNN1KO/vLy51OaNgy+cflyOhPrXV+LtYs9C8P3d9dyKqxxkIpPLsRgAV856V418VaYpW11u62nqsreYP/AB7pVHXNc1jXZxLquoT3bL90MflX6AcCvNnw/iq9ZSxNROK/rboe1Di7AYXDShg6DjJ/dfu3uxfDztL4mtJCuGe5DEfU5r1UnmuD8DaLObxdTukaOKPPlBuC7euPSu4LetbZvUhOsow6I5OH6dSnQcpq3M7isfWq8p45p7njrVeVsCvKR9HGZWuT1rNuDzV25PXms25atUdlORUuDzVRz1JqedqquatHZFnj3x9GNe0xj0a0I/8AHqd8LPFMawLod9IqSx/8e7scB1/u/UV03xZ8MXXiLSIrnT1D31jkpHnHmIeqj3rw24SWCQxzxTQyIejqVZTXzWb4P20mpddmdlTDwxdD2ctz6asb2W3uFuLSd4JVyAynBx6H2rovD91q2uamLeS4SGziAe5aCJYzIOyEqM8mvmXR/HeuadGsUjrexKMDzPvY+veux0n43XulaUbSy8PRGZjueV5j8x+npXxOY5bmMcPKlhHrLTe3zObKcqdLFp4iVqa1069kfTGq6nY6bp897dzx21tAheSRzhVAr5D+LPjE+NfFkmporJY26eRZo3XZ3Y+7Gs7xn448R+Lpl/ti+P2ZTlbSEFIgfcdz9ah8KeGtV8T6ilpZWzi3LfvrhlKpGvf8falwpwgsrn7Wo+ao9NOh9ZmGYqsuSGkV+J758PgV8CaIpGD9kWt2orK2hs7O3s4BiKCNY0+gGKnGMV+w04csVF9D5STu7iDrQadmkJq7E3G4xSMKdmjrRYaZ5F8Yv+Rkt/8Ar1H/AKEa9M/Yi/5HPX/+wen/AKMrzT4yf8jJb/8AXqP/AEI16X+xF/yOev8A/YPT/wBGV8rjf48vU9Sj/DR9Z0UUVzGp5X4m/wCTgfDv/Xs//ouSu6xXBeK5PL+Pvh98ZxbNxn/Ykr0r7D/01/8AHf8A69AFL3q7pn/LT8P60fYef9b/AOO//Xo/48f+mm/8MY//AF0AXe3Sk/Cqf2/n/Vf+Pf8A1qPt3H+q/wDHqAKWKKu/Yf8Apr/47/8AXpPsPpL/AOO//XoAXTP+Wn4f1q7+FUv+PL/ppv8Awxj/APXQb/8A6Zf+Pf8A1qALlY1Xft//AEy/8eo+w/8ATX/x3/69AFKrumc+Z+H9aPsP/TX/AMd/+vR/x5c/6zf+GMf/AK6ALg9MUVTN/wD9Mv8Ax7/61H2//pl/49QBSoq79h/6a/8Ajv8A9ek+w/8ATX/x3/69AFOirv2H/pr/AOO//XooAt8ds0Z9aD0ooAp6lj93+P8ASqVXdSziP8f6VSoADWzmsatn2oAM1T1P/ln+P9KuVT1PP7v8f6UAUqKMUUAbOc96PpigcHtQOtAFPU/+Wf4/0qlV3Ugf3f4/0qlQAHrWznjr+tY1bOOe1ABnjtXE/G84+GWvH/pwm/lXbc9u9cR8csj4X6+f+ofN/IUAYv7LZ3fCSyP/AE2k/wDQjXqdeU/srHPwgsT/ANNpf/QjXq1ACP8AdNfmpqf/ACFLz/r4k/8AQjX6VP8AdP0r81dTP/E0vD/08Sf+hGgD2v4anHgjTP8Armf/AEI10ea5r4bkjwTpg/6Zn/0I10QavrsP/Cj6L8jyp/EyQNTt1RA5pQcGtRDyeKQmmFqTdUjHFqhmK7csF49aex5qG5XdGR6jFRJJqzVy4ycNU7EcyTRySI1pIGjTzHBj5VP7x9veqrXcWQMLz04ro5vENuWZzazGR4lgkYkfNGoG1fzqvHqulxW8ltHbXDRspyTGoZmLE9ewGcVxpd6a+5G3tqn87+9mMJV8zYyhWHUelS546Vb1HULe7tRFBFLAQcmLauzP97PXNUxnbW1OKWvKkZTnOWjk38wP6UhPFBNIc1sZCGjrSE+1Jn2oEO+lLmmZPpS59qAFJoY8cGmk+1IenSgBsgl8jzhC7Q7xHv25G49Fz61XuH8iZ4Z4/KkQ4ZGXBX6itrTNVgsrB7O4t5JkaYTgKRgOoG0/nViXxHaSkSNZnzjP5sjtGGLHj5ue/GMVyVFeWsExulTlq7XOaE8fHC+vSl+0xZ4210MmtaW8ckbW11sabzVwigg+pPce1Wm1bSp1nvNnlgKd9syL/pDY4J44/Cs2o9aa+5C+r0uy+5HLx3MZYYIBPYVaRsitdte0+VpwbR1SWPaAsQDd8DPYDP6ViwjC4rpo7fDYfJGOkSXNGaaT6ClB4rYQ4GjNMyc0oJoAd3pymmdaUZpCZYjPSrcLDAqgh5Aq1ExGPSpZjNXRcijEknlxWqyyHnAQE0jzRW7hJ7RImPZ4wDRYXAt7h3Z5EDRlNyKGH4g9RWk2pWd1JDBHZmGMOMyPyWUn5lOegxyMd656lWomcjw1Jq7S+4ope2ROPs8H4oK1dOltZCCkEA9wgphvrJY0CQtJGC6rb7BtKhhtLHrnAqaa5S7u1mii8tFXb93BNRGrUk7O5y1sNSirq1/Q01bPU0FvSoFb5QKC5qzmsPd+ozVaZu1K8lVpnqkjWCIp3HIz2rOuWqzO+M1nzPzVo7qSIJ2qqxyallJJqBjzWiR2wQhYg1A9nHfTiMafFdSkdDEGP8qlPNPtpoo4bu3uDMkdzGFMsP30IORj1B70p/Dtc2juZk9hY277bnR7aFsnh7YA8de1NEOk5/5B1l/34X/Cuij1u3QJb/Z7iW2jHAmw7M2chiT/ACpY9ag8sNJbu83J2eWuxGy3zjjryBj2rFOS+wXp3Ofjh0kt/wAg2xz/ANcF/wAK1rXYIwkSJGg6KihR+QrSs9etxKz3NmXOB5b+WMx8ANwOuTWeDvnkkVAiu5YKOi5PSt6TbesbES23JqUHjFICelOGa6EjIKQjNLzRzVWAaRS0tNYGkxo8k+Mn/IyW/wD16j/0I16Z+xF/yOniD/sHp/6MrzP4x/8AIyW//XqP/QjXpf7ER/4rTXx/1D0/9GV8pjf94n6nq0P4aPrOiiiuU1PI/GZ/4v34fH/Ts3/oElet15F40P8AxkB4eH/Tq3/oEleu96ACqep9Y8e/9Ku4qjqf/LPv1/pQBTooNFAGzijtQetLQBS1T/ln+P8ASqVXdT/5Z/j/AEqlQAVs49qxvrWyfegBapan/wAs/wAf6VdxVLU/+WfPr/SgClRRR9aANnHtS0h6UYoAUUUhPuKKAMaik70ZoAu6X1k69v61dzx3qlpv/LTJx0/rVz86ADjtWNWz9axqACrum/8ALTr2/rVKrmm5/efh/WgC9QOlIe3PFHb1oAx/zpKO9FAF3TP+WnXtVz0NU9Nz+8x7f1q5QAvf0rG/OtjHpWNQAorm/izx8JfFh9NOk/ka6Oua+LZ/4tH4s/7Bsn/oJoAx/wBlHn4O2B/6bS/+hGvWK8l/ZO5+Den/APXaX/0I161QA1unNfBnx48Hah4Q+IGpCa2ZNPvLh57OUD5GRjnbn1FfehrO17Q9I16z+xa1plrqFtncI7iIOAfUZ6H3oA/PKy8R63ZWqWtrqU0UEYwiLjAFTf8ACWeI/wDoL3H6V9l3HwH+GM87St4e2ljkhLiRVH0AOBTP+FBfC/8A6AD/APgXL/8AFVoq1RaKT+8nkj2Pjj/hLfEn/QXuPzFH/CW+Jf8AoL3H5ivsf/hQXwu/6AD/APgXL/8AFUf8KC+F/wD0AH/8C5f/AIqn7er/ADP7w5I9j44/4S3xJ/0F7j9KT/hLPEn/AEF7j9K+yP8AhQXwv/6AEn/gXL/8VR/woL4X/wDQAk/8C5f/AIqj21T+Z/eHJHsfG/8AwlniP/oL3H5ij/hLPEn/AEF7j9K+yP8AhQXwv/6AEn/gXL/8VR/woL4Xf9AB/wDwLl/+Ko9tU/mf3hyR7HxqfFPiEn/kLT/pQfFHiDn/AIms/wCYr7K/4UF8Lv8AoAP/AOBcv/xVH/Cgvhf/ANACT/wLl/8AiqXtqn8z+8OSPY+NB4o8Qf8AQVn/ADFL/wAJT4hx/wAha4/MV9lf8KC+F/8A0AJP/AuX/wCKo/4UF8L/APoASf8AgXL/APFUe2qfzP7w5I9j41/4SjxB/wBBW4/Sk/4SjxB/0FZ/0r7L/wCFBfC//oAP/wCBcv8A8VR/woL4Xf8AQAf/AMC5f/iqPbVP5n94ckex8af8JP4g/wCgpP8ApR/wk/iD/oKT/mK+y/8AhQXwv/6AEn/gXL/8VR/woL4X/wDQAk/8C5f/AIqj21T+Z/eHJHsfGn/CT+IP+gpP+Yo/4SfxB/0FJ/zFfZf/AAoL4X/9ACT/AMC5f/iqP+FBfC//AKAD/wDgXL/8VR7ap/M/vDkj2PjT/hJ/EH/QUn/Sj/hJ/EH/AEFZ/wBK+y/+FBfC7/oAP/4Fy/8AxVH/AAoL4X/9ACT/AMC5f/iqPbVP5n94ckex8ZnxNr566pP+lH/CS69n/kJz4/Cvsz/hQXwv/wCgBJ/4Fy//ABVH/Cgvhf8A9ACT/wAC5f8A4qj21T+Z/eHJHsfGf/CS69/0E5/0pP8AhJNdzn+0pv0r7N/4UF8L/wDoAP8A+Bcv/wAVSf8ACgvhd/0AH/8AAuX/AOKo9tU/mf3hyR7Hxn/wkuvf9BSf8xS/8JNr/wD0FJ/0r7M/4UF8L/8AoAP/AOBcv/xVH/Cgvhf/ANACT/wLl/8AiqPbVP5n94ckex8af8JP4g/6Ck/5ik/4SfxB/wBBSf8AMV9mf8KC+F//AEAJP/AuX/4qkPwC+F3/AEAJP/AuX/4qj21T+Z/eHJHsfGv/AAk/iD/oKT/mKP8AhJ9f/wCgpP8AmK+yv+FBfC7/AKAD/wDgXL/8VR/woL4Xf9AB/wDwLl/+Ko9tU/mf3hyR7Hxr/wAJR4g/6Ck/5ij/AISjxD/0FZ/zFfZf/Cgvhf8A9ACT/wAC5f8A4qk/4UF8Lv8AoASf+Bcv/wAVR7ap/M/vDkj2PjYeKfEP/QVnH5U4eK/EY6avcfpX2R/woL4X/wDQAf8A8C5f/iqP+FBfC/8A6AD/APgXL/8AFUe2qfzP7xezh2PjgeLvEo/5jFx+Ypf+Ew8TDprNz+n+FfY3/Cgvhd/0AH/8C5f/AIqj/hQXwv8A+gA//gXL/wDFUe1qfzP7xeyp/wAq+4+Ox4z8UjprVz+Y/wAKevjjxaOmu3Q/Ef4V9g/8KC+F/wD0AH/8C5f/AIqj/hQXwv8A+gA//gXL/wDFUe1n3YvYUv5V9x8f/wDCdeL+n9vXf5j/AApf+E78X/8AQeu/zH+FfX//AAoL4X/9AB//AALl/wDiqP8AhQXwv/6AD/8AgXL/APFUvaz/AJmHsKX8q+5Hx/8A8Jz4uP8AzHrr8x/hTT428WHrrl1+Y/wr7C/4UF8L/wDoAP8A+Bcv/wAVR/woL4X/APQAf/wLl/8Aiqftan8zD2FL+VfcfHZ8ZeKD11q5P4j/AAph8XeJT11i5/Mf4V9j/wDCgvhf/wBAB/8AwLl/+Ko/4UF8L/8AoAP/AOBcv/xVHtan8z+8fsoL7K+4+Nj4q8RHrq1x+YpD4o8Qf9BW4/Svsr/hQXwv/wCgA/8A4Fy//FUf8KC+F/8A0AJP/AuX/wCKo9tU/mf3j9nDsfGg8UeIP+grP+lH/CT6/wB9Un/Svsv/AIUF8L/+gA//AIFy/wDxVH/Cgvhf/wBAB/8AwLl/+Ko9tU/mf3j5I9j40/4SfX/+gpP+Yo/4SfxB/wBBSf8ASvsv/hQXwv8A+gA//gXL/wDFUf8ACgvhf/0AH/8AAuX/AOKo9tU/mf3hyR7HxqPFPiEdNVn/ADH+FO/4SvxH21a4/MV9kf8ACgvhf/0AH/8AAuX/AOKo/wCFBfC//oAP/wCBcv8A8VT9tU/mf3i9nHsfG/8AwlniP/oL3H5ij/hLfEv/AEF7j9K+yP8AhQXwv/6AEn/gXL/8VR/woL4X/wDQAf8A8C5f/iqPb1f5n94ezh2Pjj/hLvEv/QYuPzFH/CXeJf8AoMXH5ivsf/hQXwv/AOgA/wD4Fy//ABVH/Cgvhf8A9ACT/wAC5f8A4qj29X+Z/eHs4dkfHH/CW+Jf+gxcfmKP+Et8Sf8AQXuP0r7H/wCFBfC//oAP/wCBcv8A8VR/woL4X/8AQAk/8C5f/iqPb1f5n94ezh2PibU9SvdSnWa/uXnlVdqs/XHpX1d+x74Nv9C8O6jr+q2zW8upsgtkcYbylHUj3PSu+0D4P/DrRJxPaeGbSSRWDK1zmbaR0I35xXdooVQoAAHAA6Cs223dlpW2H0UdqKQHkXio4/aP8Mr62r/+i5a9Drzjxa2P2lfCy5xm1k/9Fy16PigAq7pn/LT8P61SxV3TR/rPw/rQBc70c0cYo/CgDGooxRQBd0z/AJadun9aud6p6YP9Z+H9auADGKADmsatn2xWN2oAKu6Z/wAtPw/rVL6Vd0wf6z8P60AXKDQAOlHtigDGooooAPwooFFAFz7Af+ev/jtH2H/pr/47/wDXq5x60A80AU/+PP8A6ab/AMMYpPt3PEXP+9S6l/yz/H+lUqALv24f88v/AB6j7CP+e3T/AGf/AK9UjWzxQBT+w/8ATX/x2j/jyP8Az03/AIYx/wDrq517VT1P/lnj3/pQAG+/6Zf+Pf8A1qPt3H+qz/wKqX0o/OgC79hH/PX/AMd/+vR9h/6aj/vmrlHbgUAUz/oX/TTf+GMf/ro+3f8ATL/x6jU8fu/x/pVKgC6b3/pl/wCPUfYRj/W9f9n/AOvVI9etbPagCoLEf89v/Hf/AK9cd8a1+y/CbxOmd/mabL7Ywv8A9eu8zx0964T48/8AJKPERx/zDpv5UAYX7Jn/ACRnT/8ArrL/AOhGvWq8k/ZL/wCSM6d/11l/9CNet0AFFFFABRRRQAUUUUAFFFFABRRRQAUUUUAFFFFABRRRQAUUUUAFFFFABRRRQAUUUUAFFFFABRRRQAVDPMsQx1Y9BUjHAJPasxpC7lz1PSmkBK0kjk7nIHoKbjB4Zwf96mLuY4A/M0p3Drt/A07CJo55Iz8x3r+oq3GyugZTkGszdU9lJtl2dm/nSaAv0UgpaQwooooAKKKKACiiigAooooAKKKKACiiigAooooAKKKKACiiigAooooAKKKKACiiigAooooAKKKKAPF/G0vlftM+FWxn/RJOM/8ATOWvW/sP/TX/AMdrxzx+cftN+FB62cn/AKLlr2+gCn9h/wCmv/jtH/Hl/wBNN/4Yx/8Arq5VPVP+Wf4/0oAPt/P+q/8AHv8A61H2/wD6Zf8Aj3/1qpUUAXfsP/TX/wAdo+w/9Nf/AB2rnfvR2oAp/wDHkf8Anpv/AAxj/wDXQb//AKZf+Pf/AFqNU/5Z/j/SqVAF37f/ANMv/Hv/AK1H2H/pr/47VKtn86AKf2H/AKa/+O//AF6P+PL/AKab/wAMY/8A11c96p6p/wAs/wAf6UABv/8Apl/49/8AWo+3/wDTL/x7/wCtVKigC79h/wCmv/jtH2H/AKa/+O//AF6uH8aKAKf2H/pr/wCO0VdFFADT+VBrHooAual0j/H+lUqu6Wf9Zz6f1q7nigDFrZ7Yo7dc1jd6ANn9ap6n/wAs/wAf6VSq7pv/AC059P60AUscUVtHrQOlACAYPSjv9ax/xpKALup/8s+PX+lUqu6Z/wAtOfSrue+aAMWtkDnpS9+DWN+NAGx645riPjhC0/ww8QRKOW0+bH/fNb4+tF1ZLqWi6jp7jK3MDREHp8ykUAef/smf8kZ07/rrL/6Ga9aryr9mmE6f4Hn0WQbZbK7ddp64PIP55r1QUALRRRQAUUUUAFFFFABRRRQAUUUUAFFFFABRRRQAUUUUAFFFFABRRRQAUUUUAFFFFABRRRQAUUUUARXXFu/0rM2N14rWkUMhX1FZ6AjKHqODVITIwjeWy8ZJFNaJ9vQcCp3QsOGINRtbysMeewB68CmBFAjvGG9amiRkmQnu3FTQxiOMIvQU6Ib7gf3U/nQwsWxS0lLUDCiiigAooooAKKKKACiiigAooooAKKKKACiiigAooooAKKKKACiiigAooooAKKKKACiiigAooppoA8N+IJ/4yi8JKOf9CkJ/79y17n3614tp+3xB+1Ve3MeGi0DShE5HQSP0/RjXqFAG1VLU+sZ+v9Kpdqu6Z/y0x7f1oApGitnvRQAH9aWsWigC7qef3f4/0qlV3TP+WmPb+tXO9AGNWyfyo/WsYUAbXNUtU/5Z/j/SqVXdM/5afh/WgClR1rZoNAATxRzWNRQBtc+1FYvH+RRQAnejNXPsPP8Arf8Ax3/69L9h9Jf/AB3/AOvQAaYP9Z26f1q5+NUyPsf/AE03/hjH/wCuj7dz/qv/AB6gC4Kxqu/bvWP/AMeo+wf9Nv8Ax2gClV3TT/rPw/rR9g/6a/8Ajv8A9eg/6Ef7+/8ADGP/ANdAFw54549aKp/bv+mX/j3/ANaj7ccf6r/x7/61AFLvRV37B/02/wDHf/r0fYP+mn/jv/16ADTSf3mPb+tXKp/8eX/TTf8AhjH/AOuj7b/0y/8AHv8A61AFznNY1Xftx/55/wDj3/1qPsHH+t/8d/8Ar0AUv6Vd0w/6zHt/WlFh/wBNf/Hf/r0n/Hl/003/AIdP/wBdAHPppzaB4ln1K3Rvsl4d04AzgnqfwP6E11cTKyhlOVPINZWqyPeabcW0RMEskbLHKOTGxHDY74NeI+E/iT4i+G+sDwl8TI5bi0ZybLVkUkMhPf1A9Oo70AfQ1FZ+i6tpms2KXul38F5A/R4nDD8cd6v96AFooooAKKKKACiiigAooooAKKKKACiiigAooooAKKKKACiiigAooooAKKKKACiiigAooooAKr3EJc70wHH5GrFFAFDftOJAUPv0p3mRj+MGrhAIwQDTRHGDwi/lTuBVBeXiNcD+8aswxrGm1fx96kx7UUrgFFFFABRRRQAUUUUAFFFFABRRRQAUUUUAFFFFABRRRQAUUUUAFFFFABRRRQAUUUUAFFFFABRRTaAHVznxF8V6d4M8J3uvalMqJChESk8ySH7qgdzmrOt+I9L0pxDNdRvct92BWBb8fQfWuf1jQ9J8YwI3iKyj1G1DrLFGxIRCDkY9fr3oAwP2adAvrXwte+LdaRl1bxJcm8cN1SLnyx7cEn6Eeld/ircd2kcaxx26qigBVBwAB26U77D/ANNf/Hf/AK9AFKrum/8ALT8P60fYf+mv/jv/ANej/jy6/vN/4Yx/+ugC5+NH51T+39vK/wDHv/rUfb/+mX/j1AFKirv2H/pr/wCO/wD16PsP/TX/AMd/+vQAaZ/y0/D+tXMe/NU/+PI/89N/4Yx/+uj7f6Rf+Pf/AFqALn51jVd+3/8ATL/x6k+w8f63/wAd/wDr0AU6u6Z/y0/D+tH2HH/LX/x3/wCvR/x5f9NN/wCGMf8A66ALgHbNHtzVP7fxxF/49/8AWo+3/wDTL/x7/wCtQBSoq79g/wCmv/jv/wBej7Dxnzf/AB3/AOvQBSFFXfsP/TX/AMd/+vRQBc/GjIzSHpx2o+goAp6kP9X+P9KpYq7qXSPj1/pVKgAOK2TisatkdKADiqep/wDLPHv/AEq50qnqf/LP8f6UAUvpRR2o/OgDZowAOlAHPej/ACKAKep4/d9+v9KpVd1Pny+vf+lUqADvWz27VjYrZA+tAB26GqWpc+X17/0q70zVLUv+Wf4/0oAp1Q1/RtL17TZNO1eyhvLV+qSLnn1Hofer/wBaz7q+dpfIs08yToW7CgDzPVvgPcaPdPqHgHxjd6K+c/Z7hmKfQOpyB9Q1ZU7/AB+0UGGK+sdSReN8cySE/wDfQBr3ZNLklIe8nZ29AelWU020UY8vP1NAHzfN4y+PcBxLpkxz0K28Z/rQnjr45dG0m7/8BY/8a+iNQ0+0Gz9yO/f6VU+wWn/PEfnQB4Qvjn42Y+bSLz/wGj/xqynjL42fxaJf/wDgNH/jXt/2G1/54itb7Fa/88hQB4CnjH4y/wAWhah/4DR/41J/wmnxcTHmaHqIz/07R/41739jtv8AnkKq6haW37v90O/9KAPE08a/FP8Ai0XUf/AaP/Gp08a/Ev8Ai0TU/wDwGT/GvWvstv8A88xS/ZoP+eYoA8uj8XfEvPzeH9WP/bun+NTx+LfiIThvD+sf+A6f417B9mg/55il+zw/3BQB5GfF3jtMeZoGrjP/AEwT/GnL4y8afxaDrH/fhP8AGvT9Qgi+T5B3/pVXyYv7goA8+HjHxf30DWv+/Cf41ZXxV4x6Hw5rf/flP8a7jyY/7orW8mP+7QB5n/wlHi//AKF3Wv8Avyn+NNfxX4sTG7w9rQz/ANMU/wAa9O8qP+7VXUIo/k+Ud/6UAec/8Jf4q/6AGs/9+U/xoHi7xUf+YBrP/flP8a7vyk/uijyk/uigDiv+El8X/wDQvax/36j/AMaP+El8Yf8AQvax/wB+o/8AGvSvKj/u0vlR/wB0UAeZP4p8WpjdoGsDP/TJP8aaPFnion/kBav/AN+k/wAa9E1CKP5PlHf+lVPKj/uigDiP+Eq8Vf8AQD1b/v2n+NSf8JF4w/6AGrf9+4/8a7Pyk/uitbyo/wC6KAPN/wDhIvGH/QA1b/v3H/jTX8S+LUI3aFqoz6xx/wCNeleVH/dFVNQij/d/KO/9KAPPv+Eo8V/9ATVP++I/8aP+Eo8V/wDQE1T/AL4j/wAa7by0/uijy0/uigDj/wDhIPGH/QC1T/viP/Gga94wJ/5Aepj6rH/jXo3lR/3R+VHlx/3R+VAHnEniHxdHjfoupDPT5Y/8ab/wkviv/oD6l/3zH/jXfahGnyfKO/8ASqnlp/dFAHGf8JL4r/6A+pf98x/41MNc8Yk/8gXUR9RH/jXW+Wn90VreWn90flQB57/bXjH/AKA2oflH/jTJNe8XR43aPqAz7R/416L5af3R+VVNQjT5PlHft9KAOD/4SLxZ/wBAjUPyj/xoHiHxWf8AmE34+oj/AMa7LYn90flRsT+6PyoA5T+1/GP/AECL7/yH/jR/a/jH/oEX3/kP/GvQPLT+6PypfLT+6PyoA87k1zxdHjfpN8M9P9X/AI00a/4sP/MKvfx8v/Gu71FE+T5R37fSqmxP7o/KgDkP7e8Wf9Au8/OP/Gpv7V8Zf9Am8/OL/Gup2J/dFa2xP7o/KgDz46r4z7aVefnH/jUcmseM0A3abdLnpkx/416LsT+6PyqpqKJ+7+Ud+30oA4Btc8afw6fc/nH/AI1C2u+Ov4bCf84/8a7rYn90flRsT+6PyoA4Z9U+IuPl0+X/AL6i/wAagbU/iYQdtkw+rRf416t5af3F/Kk8uP8AuL+VAHkFzrHxSjx/omM9Pmi/xqrJrvxX/htl/OL/ABr1/UY4/wB38i9+30qn5cf9xfyoA8kfXvjAPuwR/nF/jSNqnxtIOyCAfVof8a9c8uP+4v5VreXH/wA81/KgDwZ9T+O38MVp/wB9Q/41VuNY+PMePksxnp80P+NfQflR/wDPNfyqpqMcf7v92vft9KAPn59d+Pv8Isvzh/xqI67+0IfunTx9TD/jXvflR/8APNfyo8uP/nmv5UAeDNqX7R/ZtM/76h/xqhcaT+0D4il+z6l4gtdJhbhpEuABj6Rgmvp7yo/+ea/lUctrbSD54UP4UAeR/D34Tad4cEd7qmuT+IL9uWdxsjU/7uST+Jr0gABQAAAOAMUt/p6RPG8BK9eM01DxgnnvQA6tmsatnmgA6VT1T/ln+P8ASrvNUtTzmP8AH+lAFKiij3oA2R1o6Uc0tAFLVP8Aln+P9KpVd1PP7v8AH+lUqAAVs96xq2c+lAB05qnqn/LP8f6Vc5qnqn/LP8f6UAUqKKOtAGyetGKM0c0AKKKPwooAxKWk79aWgC5pn/LTp2/rV2qWmD/WY9v61c9uKAF571i962R1rGoAWrmm/wDLXp2/rVKrumn/AFn4f1oAu0DpSHPHSjtigDH70d6TvRQBd0z/AJacjtV334qlppx5nHp/Wrn60AL34rGrYrG/z0oAUfhVzTP+WnI7f1qmKuaaceYe3H9aALMxBUxnqwxxTLO1ito9sa4J6nuabaHzWaU+uBVkUAZVFFJQBc07/lp+H9at1U07/lp+H9at0AFZNa1ZGaAFq3p38f4f1qnmrmnf8tPw/rQBbooooAyaKTNLQBb07+P8P61bqpp3/LT8P61boAKya1qyM0ALVvTv+Wn4f1qnmrmnf8tPw/rQBbooooAyaKTNGaALmnf8tPw/rVuqmnf8tPw/rVugArJrWrIzQAtW9O/5afh/Wqeauad/y0/D+tAFukzS0w8mgDKye1GT7UlGaALmnn7+fb+tXKp6dz5n4f1q2vpQA6smtasjNAC1b07+P8P61TzVzTv+Wn4f1oAt0UUUAZNFJmjNAFzTv+Wn4f1q3VTTv+Wn4f1q3QAVk1rVkZoAWrenf8tPw/rVPNXNO/5afh/WgC3RRRQBk0UmaM0AXNO/5afh/WrdU9O/5afh/WrlABWTWtWRmgBat6d/y0/D+tU81b07/lp+H9aALlFFFAGTRSZozQBc0/8A5afh/WjUYHlgbymKuORjvSadz5n4f1q2aAK+n3H2i2DN98cN9azqt2y+TqMsY+643AVUoAO1XdM/5afh/WqXermmf8tPw/rQBd60E0fjR260AY3vRRRzQBd0z/lp36f1q53qnpn/AC0/D+tXOcUABrGrZ/GsWgBau6X/AMtMc9P61S5q7pn/AC0/D+tAFzNBoAOOtH40AY3WiijnFABx60UCigBoPNOI4oooAt6af9b+FXRyfxoooAD/AFrFz0oooAX/AAq5pv8Ay1/D+tFFAF4crQePxoooAxf8aXGDRRQBb0zrJ+FXB29+KKKADJyfasc96KKAAd6s2ZIhmI/u/wCNFFAFjTR/oo+tWRRRQBkUUUUAXNN/j/D+tW6KKAFrHoooAKuab/y0/D+tFFAFsUtFFAGPRRRQBc03/lp+H9atiiigBax6KKACrmm/8tPw/rRRQBb70tFFAGPRRRQBc03/AJafh/WrfeiigBax6KKACrmm/wDLT8P60UUAWzTaKKAMmkIFFFAFzTOkn4f1q4etFFAC1kUUUAFXNO/5afh/WiigC3RRRQBkUUUUAXNO/wCWn4f1q3RRQAVkUUUAFXNN/wCWn4f1oooAuUUUUAY9FFFAFzTv+Wn4f1q5RRQAlZFFFABVzTf+Wn4f1oooAuUlFFAGRRRRQBc03/lp+H9at0UUAVJR/wATKI+3+NUaKKACrumf8tPw/rRRQBdooooAxaKKKALumf8ALT8P61doooAKxaKKACrumf8ALT8P60UUAXaKKKAMWiiigBaKKKAP/9k=;clipPath=inset(4.33% 17.67% 4% 17.67% round 8%);" vertex="1" parent="1">
          <mxGeometry x="50" y="170" width="578.4130909090909" height="820" as="geometry" />
        </mxCell>
      </root>
    </mxGraphModel>
  </diagram>
</mxfile>
